<svg id="Bag" xmlns="http://www.w3.org/2000/svg" viewBox="0 0 512 512"><path d="M185.7 150.1V135c.2-16 10.3-26.4 26.2-26.4 30-.1 60-.1 90 0 16 0 26.1 10.3 26.4 26.3.1 4.8 0 9.6 0 15 2.1.1 3.8.3 5.6.3h58c18.5 0 30.4 11.7 30.5 30.2.1 64.7.1 129.3 0 194 0 18.7-11.9 30.4-30.8 30.4H123.1c-19.8 0-31.5-11.5-31.5-31.3-.1-64-.1-128 0-192 0-19.8 11.7-31.3 31.4-31.4h62.7zm150.2 17.3H178v220h157.9v-220zM160.2 387.6V167.2h-35.4c-12.8 0-16.3 3.5-16.3 16.3v188.4c0 1.8 0 3.7.2 5.5.7 5.7 4.3 10 9.9 10.2 13.8.2 27.5 0 41.6 0zm193.2-.1c14.2 0 28.2.4 42.1-.2 6.3-.2 9.7-5.3 9.7-12.4V180c0-8.5-4.5-12.8-13-12.9-10.5-.1-21 0-31.5 0h-7.3v220.4zm-42.5-237.6c.1-1.1.2-1.6.2-2.1v-11.5c0-8.2-2.5-10.7-10.7-10.7H212c-4.5 0-8.4 1.4-9 6.1-.7 6-.2 12.1-.2 18.2h108.1z" fill="#0098ce"/></svg>