<svg id="Target" xmlns="http://www.w3.org/2000/svg" viewBox="0 0 512 512"><style>.st1{fill:#0098ce}</style><path d="M411 227.7c1.7 9.2 2.5 18.7 2.5 28.3 0 87-70.5 157.5-157.5 157.5S98.5 343 98.5 256 169 98.5 256 98.5c15 0 29.5 2.1 43.3 6" fill="none" stroke="#0098ce" stroke-width="15" stroke-linecap="round" stroke-linejoin="round" stroke-miterlimit="10"/><path class="st1" d="M255.4 375.5c-48 .3-92.4-30.7-108.7-76.1-24-66.7 15.9-138.4 85.2-152.9 21.9-4.6 43.4-2.8 64.4 5.2 6 2.3 8.4 6.9 6.5 12.1-1.7 4.5-6.5 6.7-12.1 4.7-16.5-5.9-33.2-7.8-50.6-5.3-37.2 5.4-69.9 35.2-79.3 71.4-13.3 51.5 15.9 101.8 63.5 118.2 41.5 14.3 90.7-3 113.8-40.9 16.1-26.4 19.3-54.4 9.7-83.8-.5-1.6-1.1-3.1-1.5-4.7-1.2-4.9 1.1-9.5 5.4-11 4.5-1.6 9.4.2 11 5.1 2.8 8.5 5.8 17.1 6.9 25.9 6.7 53.2-18.8 99.3-67.3 122.2-14.7 6.8-30.5 9.8-46.9 9.9z"/><path class="st1" d="M415.1 100c10.1 0 19.4.1 28.7 0 8.7-.2 15.5 2.9 18.9 11.1 3.4 8.2.6 15.1-5.5 21.2-16.1 15.9-32.1 31.9-48 48-6.7 6.8-14.5 10.1-24.1 9.9-14.2-.3-28.3.1-42.5-.2-3.7-.1-6.1 1.1-8.7 3.7-21.7 21.9-43.5 43.6-65.3 65.4l-2.1 2.1c-4.8 4.5-10 5.1-13.7 1.5-4-3.8-3.7-9.2 1.1-14.1 22.5-22.5 44.9-45 67.5-67.4 2.6-2.5 3.7-5 3.7-8.7-.2-14.3.1-28.6-.2-43-.1-9 2.9-16.5 9.3-22.8 16.5-16.4 33-32.9 49.5-49.5 5.8-5.9 12.6-8.1 20.4-4.9 7.7 3.2 11.2 9.5 11.1 17.8-.2 9.9-.1 19.5-.1 29.9zm31 17.9c-12.4 0-23.5-.1-34.6.1-1.5 0-3.2 1.5-4.4 2.7-16 15.9-31.9 31.8-47.7 47.7-1 1-1.8 2.1-3.2 3.7 11.4 0 22.1.2 32.7-.1 2.1-.1 4.5-1.4 6.1-3 16.7-16.6 33.4-33.3 51.1-51.1zM343 159.7c15.9-15.9 30.5-31.2 45.8-45.6 6.5-6.1 9.5-12.3 8.6-21.2-.7-7.5-.1-15-.1-22.9-1.1.4-1.4.5-1.6.7-16.6 16.6-33.2 33.1-49.7 49.7-1.5 1.5-2.8 4-2.9 6.1-.3 10.6-.1 21.2-.1 33.2z"/><path class="st1" d="M255.2 322c-36.2 0-65-31.3-62.1-67.4 2.7-33.5 33.8-60.3 66.3-57 7.9.8 12 7.6 8.2 13.6-2.4 3.7-6.1 4.2-10.1 4.1-8.5-.3-16.5 1.5-24 5.7-18.6 10.6-27.3 33.2-20.4 52.9 7.3 20.8 28 33.3 49.1 29.8 21.5-3.5 37.2-21.6 37.6-43.4 0-1.8-.1-3.7 0-5.5.4-4.8 3.8-8.2 8.2-8.5 4.5-.2 8.4 2.8 9 7.6 1.6 12.6-1 24.5-7.1 35.6-10.8 20.2-31.9 32.6-54.7 32.5z"/></svg>