<svg id="Rocket" xmlns="http://www.w3.org/2000/svg" viewBox="0 0 512 512"><style>.st0{fill:#0098ce}</style><path class="st0" d="M243.8 347.2c-1.4.9-2.1 1.3-2.7 1.8-4.3 4-8.8 4.5-13.5.9-2.8-2.1-4.7-1.7-7.3.6-7.3 6.4-14.9 12.3-22.3 18.6-3.7 3.1-7.2 3.3-11.5 1.2-19.8-10.1-34.7-25-44.7-44.9-2.1-4.1-1.6-7.6 1.3-11 6.4-7.5 12.8-15 18.9-22.6 1-1.2 1.5-3.9.8-5-4.1-6.3-6.4-12.3 2.4-18.7-11.7-.7-21.6-1.3-31.5-1.8-20.5-1.1-40.9-2.1-61.4-3.1-3.9-.2-7.3-1-8.9-5.1-1.6-3.9.3-6.7 2.9-9.3 16-15.8 31.6-32.1 48-47.4 25.1-23.3 55.3-34 89.4-33.6 12.2.1 24.3.6 36.5 1.1 3.4.2 5.5-1 7.5-3.6 13.7-17.3 27.6-34.2 44.7-48.3 40.1-32.9 86.2-50.3 137.9-52.8 11.8-.6 19.8 7.3 19.2 19.2-3 61.9-26.5 114.6-71.4 157.4-9.7 9.3-20.7 17.3-31.2 25.8-2.3 1.9-3.2 3.7-3.2 6.7-.1 16.8.6 33.7-.8 50.5-2.6 31.1-16.1 57.4-38 79.4-13.8 13.8-27.6 27.6-41.3 41.4-2.8 2.8-5.7 5.4-10.1 3.7-4.4-1.6-4.9-5.3-5.1-9.3-1.5-28.6-3-57.2-4.5-85.9.2-1.7.1-3.3-.1-5.9zm-11.2-11.3c1.2-.6 1.7-.8 2.1-1.1 41.9-32.6 84.8-64.2 125.5-98.2 47-39.2 70.8-91.1 74.6-152.1.2-3.5-.5-5.3-4.6-5.1-52.4 2.9-98.5 21.2-136.5 57.5-16.2 15.5-30 33.5-44.3 50.8-23.9 28.9-47.4 58.1-70.9 87.2-1 1.2-2.3 3.7-1.8 4.5 5.7 8.6 11.8 17 18.1 25.9 13.1-13.1 25-25.1 37.1-37.1 6.1-6.1 10.2-7.1 14-3.4 3.8 3.7 2.9 8-3.1 14-9.2 9.2-18.3 18.4-27.6 27.5-3 3-6.3 5.7-10.2 9.2 10 7.4 18.9 14 27.6 20.4zm-.5-151.1l-.6-1.8c-10.3 0-20.6-.1-30.9 0-25.1.3-48.4 7.1-67.6 23.2-15.4 12.9-29.1 27.7-43.6 41.7-.1.1.1.6.3 1 27.7 1.4 55.5 2.9 83.3 4.1 2 .1 4.8-1.3 6.1-2.9 15.7-19 31.2-38.2 46.7-57.3 2-2.7 4.1-5.4 6.3-8zm98.1 97.4c-.7-.1-1.3-.2-2-.4-.4.2-.9.3-1.3.6-22 17.1-44 34.1-65.9 51.3-1.4 1.1-2.3 3.6-2.2 5.4 1.2 27.3 2.6 54.6 4 81.9 0 .6.3 1.1.4 1.5 11.4-11.2 23-22 34-33.3 14.6-15 25.1-32.8 28.4-53.5 3-17.6 3.2-35.6 4.6-53.5zm-173 39.2c6.7 13.1 18.9 25.8 31 32.3 1.1.6 3.2 1.1 3.9.5 6.2-4.9 12.2-10 17.5-14.5-12.5-12.4-24.6-24.4-37-36.6-4.8 5.8-10 12-15.4 18.3zM86.8 401c1.6-6.9 2.7-14 5-20.7 2.8-8.1 8.7-14.2 16.2-18.4 6.4-3.6 13-6.8 19.6-10 4.9-2.3 9.2-1 11.1 3.1 1.8 3.9.2 7.9-4.3 10.3-4.8 2.6-9.7 5.1-14.7 7.4-10.9 4.9-16 13.4-16.6 25.2-.6 12.4-.4 12.4 12.1 11.6 12.1-.8 20.3-6.4 25.1-17.4 2.1-4.7 4.5-9.3 6.9-13.8 2.5-4.6 6.4-6.1 10.3-4.3 4 1.9 5.4 6.3 3.2 11.1-3.1 6.5-6.2 12.9-9.7 19.1-6.8 11.7-17 18.4-30.5 20-3.1.4-6.3.7-9.5.8-15.8.8-24.3-7.9-24.2-24zm-16.2 47.8c-3.9 0-7.4-3.4-7.5-7.3-.1-4.1 3.4-7.7 7.6-7.7 4 0 7.3 3.3 7.4 7.3.1 4.1-3.4 7.7-7.5 7.7z"/><path class="st0" d="M341.5 207.2c-17.7.1-32.2-14.3-32.4-31.9-.2-17.8 14.6-32.5 32.4-32.4 17.6.1 32.2 14.7 32.2 32.2-.1 17.6-14.6 32.1-32.2 32.1zm-.3-15.1c9.5.1 17.2-7.5 17.2-17 0-9.3-7.4-16.9-16.6-17.1-9.5-.2-17.3 7.3-17.5 16.8-.2 9.4 7.5 17.2 16.9 17.3zM265 255.9c-4.1.1-7.8-3.4-7.8-7.5 0-3.8 3.5-7.3 7.3-7.5 4-.1 7.4 3 7.6 7 .4 4.3-2.9 7.8-7.1 8z"/></svg>