<svg id="Phone" xmlns="http://www.w3.org/2000/svg" viewBox="0 0 512 512"><style>.st1{fill:#fff}</style><linearGradient id="SVGID_1_" gradientUnits="userSpaceOnUse" x1="150.81" y1="74.074" x2="360.881" y2="437.926"><stop offset="0" stop-color="#fa26de"/><stop offset="1" stop-color="#da18c1"/></linearGradient><path d="M255.8 466.1C140 466.1 45.7 371.9 45.7 256S140 45.9 255.8 45.9 466 140.1 466 256s-94.3 210.1-210.2 210.1z" fill="url(#SVGID_1_)"/><path class="st1" d="M255.8 53.4c111.9 0 202.6 90.7 202.6 202.6s-90.7 202.6-202.6 202.6c-111.9 0-202.6-90.7-202.6-202.6S143.9 53.4 255.8 53.4m0-15c-29.4 0-57.9 5.8-84.7 17.1-25.9 11-49.2 26.6-69.2 46.6s-35.7 43.3-46.6 69.2C44 198.1 38.2 226.6 38.2 256s5.8 57.9 17.1 84.7c11 25.9 26.6 49.2 46.6 69.2s43.3 35.7 69.2 46.6c26.8 11.4 55.3 17.1 84.7 17.1 29.4 0 57.9-5.8 84.7-17.1 25.9-11 49.2-26.6 69.2-46.6s35.7-43.3 46.6-69.2c11.4-26.8 17.1-55.3 17.1-84.7s-5.8-57.9-17.1-84.7c-11-25.9-26.6-49.2-46.6-69.2s-43.3-35.7-69.2-46.6c-26.8-11.4-55.3-17.1-84.7-17.1z"/><path class="st1" d="M363 349l-16.2 16.2c-2.9 2.9-11.4 4.7-11.7 4.7-51.3.4-100.7-19.7-137-56-36.4-36.4-56.6-86-56-137.5 0 0 1.9-8.3 4.7-11.1l16.2-16.2c5.9-6 17.3-8.7 25.3-6l3.4 1.1c8 2.7 16.3 11.5 18.5 19.6l8.2 29.9c2.2 8.1-.8 19.7-6.7 25.6l-10.8 10.8c10.6 39.4 41.5 70.3 80.9 80.9l10.8-10.8c6-6 17.5-8.9 25.6-6.7l29.9 8.2c8.1 2.2 16.9 10.5 19.6 18.5l1.1 3.5c2.8 8 .1 19.4-5.8 25.3zm21.4-84c-4.1 0-7.5-3.4-7.5-7.5 0-66.2-53.7-120-119.7-120-4.1 0-7.5-3.4-7.5-7.5s3.4-7.5 7.5-7.5c74.3 0 134.7 60.6 134.7 135 0 4.2-3.4 7.5-7.5 7.5z"/><path class="st1" d="M347.9 263.7c-4.1 0-7.5-3.4-7.5-7.5 0-46.7-37.9-84.8-84.5-84.8-4.1 0-7.5-3.4-7.5-7.5s3.4-7.5 7.5-7.5c54.9 0 99.5 44.8 99.5 99.8 0 4.1-3.4 7.5-7.5 7.5z"/><path class="st1" d="M313.2 264.1c-4.1 0-7.5-3.4-7.5-7.5 0-27.3-22.2-49.6-49.4-49.6-4.1 0-7.5-3.4-7.5-7.5s3.4-7.5 7.5-7.5c35.5 0 64.4 29 64.4 64.6 0 4.2-3.3 7.5-7.5 7.5z"/></svg>