<svg id="WhatsApp" xmlns="http://www.w3.org/2000/svg" viewBox="0 0 512 512"><style>.st0{fill:#fff}</style><circle class="st0" cx="256" cy="256" r="202.6"/><linearGradient id="SVGID_1_" gradientUnits="userSpaceOnUse" x1="127.654" y1="87.532" x2="337.725" y2="451.384"><stop offset="0" stop-color="#50d661"/><stop offset="1" stop-color="#41c452"/></linearGradient><path d="M256 466.1c-41.6 0-81.7-12.1-116.1-35l-75.5 20.7 20.5-73.9c-25.5-35.7-39-77.8-39-121.9 0-115.9 94.3-210.1 210.1-210.1S466.1 140.1 466.1 256 371.9 466.1 256 466.1z" fill="url(#SVGID_1_)"/><path class="st0" d="M256 53.4c111.9 0 202.6 90.7 202.6 202.6 0 111.9-90.7 202.6-202.6 202.6-42.6 0-82.2-13.2-114.8-35.7L75.1 441l18-64.7c-25-33.6-39.7-75.2-39.7-120.3 0-111.9 90.7-202.6 202.6-202.6m0-15c-29.4 0-57.9 5.8-84.7 17.1-25.9 11-49.2 26.7-69.2 46.6-20 20-35.7 43.3-46.6 69.2-11.4 26.8-17.1 55.3-17.1 84.7 0 44.5 13.2 86.9 38.3 123.3l-16 57.8-7.1 25.5 25.5-7 59.5-16.3c35 22.5 75.5 34.4 117.4 34.4 29.4 0 57.9-5.8 84.7-17.1 25.9-11 49.2-26.7 69.2-46.6 20-20 35.7-43.3 46.6-69.2 11.4-26.8 17.1-55.3 17.1-84.7 0-29.4-5.8-57.9-17.1-84.7-11-25.9-26.7-49.2-46.6-69.2-20-20-43.3-35.7-69.2-46.6-26.8-11.5-55.3-17.2-84.7-17.2z"/><path class="st0" d="M363 349l-16.2 16.2c-2.9 2.9-11.4 4.7-11.7 4.7-51.3.4-100.7-19.7-137-56-36.4-36.4-56.6-86-56-137.5 0 0 1.9-8.3 4.7-11.1l16.2-16.2c5.9-6 17.3-8.7 25.3-6l3.4 1.1c8 2.7 16.3 11.5 18.5 19.6l8.2 29.9c2.2 8.1-.8 19.7-6.7 25.6l-10.8 10.8c10.6 39.4 41.5 70.3 80.9 80.9l10.8-10.8c6-6 17.5-8.9 25.6-6.7l29.9 8.2c8.1 2.2 16.9 10.5 19.6 18.5l1.1 3.5c2.8 8 .1 19.4-5.8 25.3z"/></svg>