<svg id="Mail" xmlns="http://www.w3.org/2000/svg" viewBox="0 0 512 512"><style>.st1{fill:#fff}</style><linearGradient id="SVGID_1_" gradientUnits="userSpaceOnUse" x1="150.811" y1="74.073" x2="360.881" y2="437.926"><stop offset="0" stop-color="#ffd248"/><stop offset="1" stop-color="#fdc92a"/></linearGradient><path d="M255.8 466.1C140 466.1 45.7 371.9 45.7 256S140 45.9 255.8 45.9 466 140.1 466 256s-94.3 210.1-210.2 210.1z" fill="url(#SVGID_1_)"/><path class="st1" d="M255.8 53.4c111.9 0 202.6 90.7 202.6 202.6s-90.7 202.6-202.6 202.6S53.2 367.9 53.2 256 143.9 53.4 255.8 53.4m0-15c-29.4 0-57.9 5.8-84.7 17.1-25.9 11-49.2 26.6-69.2 46.6s-35.7 43.3-46.6 69.2C44 198.1 38.2 226.6 38.2 256s5.8 57.9 17.1 84.7c11 25.9 26.6 49.2 46.6 69.2s43.3 35.7 69.2 46.6c26.8 11.4 55.3 17.1 84.7 17.1s57.9-5.8 84.7-17.1c25.9-11 49.2-26.6 69.2-46.6s35.7-43.3 46.6-69.2c11.4-26.8 17.1-55.3 17.1-84.7s-5.8-57.9-17.1-84.7c-11-25.9-26.6-49.2-46.6-69.2s-43.3-35.7-69.2-46.6c-26.8-11.4-55.3-17.1-84.7-17.1z"/><path class="st1" d="M254.5 271.8c1.8 0 3.5-.5 4.8-1.5l.4-.2c.1-.1.2-.1.3-.2l4.3-3.7 103.5-88.9c-.2-.3-.6-.5-1-.5H141.7c-.3 0-.5.1-.7.3l108.3 92.8c1.2 1.2 3.2 1.9 5.2 1.9zm-114-82.4v131.7l77.5-65.2zm150.1 66.9l77.4 64.8V189.8z"/><path class="st1" d="M265.9 277.5c-3.1 2.6-7.1 4.1-11.4 4.1s-8.3-1.4-11.4-4.1l-17.8-15.2-85 71.4v.2c0 .7.6 1.3 1.2 1.3h225.2c.6 0 1.2-.6 1.2-1.3v-.2l-84.9-71-17.1 14.8z"/></svg>