<svg id="Vk" xmlns="http://www.w3.org/2000/svg" viewBox="0 0 512 512"><linearGradient id="SVGID_1_" gradientUnits="userSpaceOnUse" x1="150.81" y1="74.074" x2="360.881" y2="437.926"><stop offset="0" stop-color="#4b74a0"/><stop offset="1" stop-color="#37618e"/></linearGradient><path d="M255.8 466.1C140 466.1 45.7 371.9 45.7 256S140 45.9 255.8 45.9 466 140.1 466 256s-94.3 210.1-210.2 210.1z" fill="url(#SVGID_1_)"/><path d="M255.8 53.4c111.9 0 202.6 90.7 202.6 202.6s-90.7 202.6-202.6 202.6c-111.9 0-202.6-90.7-202.6-202.6S143.9 53.4 255.8 53.4m0-15c-29.4 0-57.9 5.8-84.7 17.1-25.9 11-49.2 26.6-69.2 46.6s-35.7 43.3-46.6 69.2C44 198.1 38.2 226.6 38.2 256s5.8 57.9 17.1 84.7c11 25.9 26.6 49.2 46.6 69.2s43.3 35.7 69.2 46.6c26.8 11.4 55.3 17.1 84.7 17.1 29.4 0 57.9-5.8 84.7-17.1 25.9-11 49.2-26.6 69.2-46.6s35.7-43.3 46.6-69.2c11.4-26.8 17.1-55.3 17.1-84.7s-5.8-57.9-17.1-84.7c-11-25.9-26.6-49.2-46.6-69.2s-43.3-35.7-69.2-46.6c-26.8-11.4-55.3-17.1-84.7-17.1z" fill="#fff"/><path d="M248.4 344.8h15.9s4.8-.5 7.2-3.2c2.3-2.4 2.2-7 2.2-7s-.3-21.3 9.6-24.5c9.8-3.1 22.3 20.6 35.6 29.7 10 6.9 17.7 5.4 17.7 5.4l35.5-.5s18.6-1.1 9.8-15.8c-.7-1.2-5.1-10.8-26.4-30.5-22.3-20.7-19.3-17.3 7.5-53.1 16.3-21.8 22.9-35 20.8-40.7-2-5.4-14-4-14-4l-40 .2s-3-.4-5.2.9-3.5 4.3-3.5 4.3-6.3 16.8-14.8 31.2c-17.8 30.2-24.9 31.8-27.8 30-6.8-4.4-5.1-17.6-5.1-27 0-29.3 4.4-41.5-8.7-44.7-4.3-1.1-7.5-1.7-18.6-1.8-14.3-.2-26.3 0-33.2 3.4-4.5 2.2-8.1 7.2-5.9 7.5 2.6.4 8.6 1.6 11.8 5.9 4.1 5.6 3.9 18.1 3.9 18.1s2.4 34.5-5.5 38.8c-5.4 2.9-12.8-3.1-28.7-30.5-8.1-14-14.3-29.6-14.3-29.6s-1.2-2.9-3.3-4.4c-2.6-1.9-6.2-2.5-6.2-2.5l-38 .2s-5.7.2-7.8 2.6c-1.8 2.2-.1 6.8-.1 6.8s29.7 69.6 63.4 104.6c31.1 32.3 66.2 30.2 66.2 30.2z" fill-rule="evenodd" clip-rule="evenodd" fill="#fff"/></svg>