<svg id="Telegram" xmlns="http://www.w3.org/2000/svg" viewBox="0 0 512 512"><style>.st1{fill:#fff}</style><g id="_x31_"><g id="_x33_"><linearGradient id="SVGID_1_" gradientUnits="userSpaceOnUse" x1="150.811" y1="74.073" x2="360.881" y2="437.926"><stop offset="0" stop-color="#3fbae7"/><stop offset="1" stop-color="#26a9dd"/></linearGradient><path d="M255.8 466.1C140 466.1 45.7 371.9 45.7 256S140 45.9 255.8 45.9 466 140.1 466 256s-94.3 210.1-210.2 210.1z" fill="url(#SVGID_1_)"/><path class="st1" d="M255.8 53.4c111.9 0 202.6 90.7 202.6 202.6s-90.7 202.6-202.6 202.6S53.2 367.9 53.2 256 143.9 53.4 255.8 53.4m0-15c-29.4 0-57.9 5.8-84.7 17.1-25.9 11-49.2 26.6-69.2 46.6s-35.7 43.3-46.6 69.2C44 198.1 38.2 226.6 38.2 256s5.8 57.9 17.1 84.7c11 25.9 26.6 49.2 46.6 69.2s43.3 35.7 69.2 46.6c26.8 11.4 55.3 17.1 84.7 17.1 29.4 0 57.9-5.8 84.7-17.1 25.9-11 49.2-26.6 69.2-46.6s35.7-43.3 46.6-69.2c11.4-26.8 17.1-55.3 17.1-84.7s-5.8-57.9-17.1-84.7c-11-25.9-26.6-49.2-46.6-69.2s-43.3-35.7-69.2-46.6c-26.8-11.4-55.3-17.1-84.7-17.1z"/></g><g id="_x32_"><path id="_x32__x5F_3" class="st1" d="M170.3 279.2L103.6 250c-7.5-3.3-7-14.1.8-16.7L358 149.8c6.6-2.2 13.1 3.7 11.5 10.5l-50.7 215.4c-1.5 6.4-9.2 9.1-14.4 4.9l-59.5-48.7-74.6-52.7z"/><path id="_x32__x5F_2" d="M308.5 196.3l-138.1 82.9 16.9 78.4c1.5 7 9.8 10.1 15.6 5.8l42.1-31.5-34.7-28.4 102.6-101.6c2.9-2.9-.8-7.8-4.4-5.6z" fill="#e6f2f8"/><path id="_x32__x5F_1" d="M192.8 364.5c3.1 1.4 6.9 1.2 10-1.1l42.1-31.5-17.3-14.2-17.3-14.2-17.5 61z" fill="#d5e8f3"/></g></g></svg>