<svg id="E-mail" xmlns="http://www.w3.org/2000/svg" viewBox="0 0 512 512"><style>.st0{fill:#0098ce}</style><path class="st0" d="M306.8 45.3c83.3 18.8 149.2 88.1 164 172.1.9 5.3 2.8 19.5 3.4 32 .5 11.4-.2 21.4-.3 22.3-1.1 20.4-4.9 40.4-12.4 59.4-31 78.5-88 125.7-171.3 140.7-7.7 1.4-15.4 2.1-23.1 3.1h-20c-1.8-.4-3.5-.8-5.3-1.1-14.1-2.4-28.6-3.2-42.2-7.3-85.5-26-137.7-83-156.4-170.5-1.1-5.2-5-30.9-3.1-56.8 1.7-23.4 8.9-47 12.4-55.9 30.9-78.8 88-126.1 171.5-141.2 3.8-.7 21.3-2.1 39.4-1.5 18.4.7 37.6 3.4 43.4 4.7zm151.5 211.8c0-111.5-89.8-201.3-201.5-201.4-110.7-.1-200.7 90-201.2 200.7-.5 110.9 90.6 202.1 201.1 202 111.5-.2 201.6-89.9 201.6-201.3z"/><path class="st0" d="M257 160.3h108.5c18.3 0 27.2 8.9 27.2 27.3v140c0 16.6-9.3 26.1-26 26.1H146.3c-16.6 0-26-9.5-26-26.1V186.1c0-16.3 9.4-25.8 25.7-25.8h111zM147.5 175c1.8 2 2.7 3.1 3.8 4.1 34.1 31.6 68.3 63.1 102.3 94.8 3.2 2.9 4.8 1.9 7.3-.5 33.5-31.3 67-62.5 100.5-93.8 1.2-1.2 2.3-2.5 4.2-4.6H147.5zm217.9 164.1c-1.3-1.7-1.8-2.5-2.5-3.2-23.6-22.1-47.3-44.1-70.9-66.2-2.5-2.3-4.1-1.8-6.2.3-7.2 6.9-14.6 13.7-21.9 20.5-5 4.6-8.5 4.7-13.5.1-7.4-6.7-14.8-13.4-22-20.4-2.9-2.8-4.7-3-7.7-.1-22.9 21.6-46 43-69 64.5-1.2 1.2-2.3 2.5-4.1 4.5h217.8zm-151.7-82.4c-25.9-24-51.4-47.5-77.5-71.7v144c26.3-24.6 51.7-48.2 77.5-72.3zm163.1 72.2V185c-26.2 24.4-51.4 48-77.1 71.9 25.8 24.2 51 47.7 77.1 72z"/></svg>