<svg id="Phone_number" xmlns="http://www.w3.org/2000/svg" viewBox="0 0 512 512"><style>.st0{fill:#0098ce}</style><path class="st0" d="M320.4 386c-16.1.1-29.5-3.6-42.5-8.8-67.8-27.5-114-76.4-141-143.7-8.1-20.1-9.2-41.2-2-62.1 5-14.5 14.4-25.9 26.4-35 11.2-8.5 24.1-7.7 36.8-4.5 7.2 1.9 11.6 7.7 13.8 14.7 5.2 16.3 10.2 32.7 15.1 49.1 2.7 8.9 1.3 17.1-5.8 23.8-4.3 4.1-8.2 8.7-12.4 13-2.5 2.5-2.8 4.9-1 8 16.8 29.4 39.2 53.3 69 69.9 4.1 2.3 6.7 2.1 9.7-1.6 5.4-6.5 11.3-12.6 17.1-18.9 6.6-7.3 14.3-9.2 22.9-4.5 16.5 9 32.8 18.4 49 28 6.9 4.1 9.2 10.6 7.6 18.5-.3 1.3-.4 2.6-.7 3.9-6.9 31.5-30.7 50.2-62 50.2zM184.2 145.1c-4.4 1.4-9.6 1.6-12.9 4.3-10.8 8.6-19.5 18.9-22.7 33.1-4.1 18-1.6 35.4 5.8 51.7 27.5 60.3 69.9 105.7 133.2 129.1 8.5 3.1 17.6 5.2 26.6 6.4 25.4 3.4 47.7-13 52.7-37.7.6-3 .2-5-2.7-6.6-14.4-8.1-28.7-16.3-42.9-24.5-2.6-1.5-4.4-1.1-6.5 1.2-5.7 6.5-11.6 12.9-17.5 19.2-8.4 9-15.4 10.3-26.3 4.5-33.8-18-58.9-44.7-77.6-77.8-5.4-9.6-4.3-17.8 3.2-26 3.5-3.8 6.9-7.8 10.7-11.1 4.8-4.1 5.1-8.5 3.2-14.2-4.5-13.4-8.5-27-12.6-40.5-2.5-8.9-4.4-10.3-13.7-11.1zm207.5 108.7v1.5c.1 6.2-2.3 9.4-7 9.5-4.8.1-7.4-3-7.4-9.2-.2-16.9-3.6-33.2-11.2-48.3-21.8-43.7-57.2-67.1-106.2-69.7h-1c-5.5-.2-8.9-3.2-8.7-7.6.2-4.2 3.6-7 8.8-6.9 18.2.5 35.8 3.8 52.3 11.5 45.1 21.1 71.3 56.5 79.1 105.6.9 4.8 1 9.5 1.3 13.6z"/><path class="st0" d="M355 251.7v3.5c-.1 5.4-2.6 8.5-6.9 8.5-4.1 0-6.4-3-7.1-8-1.1-8.1-1.7-16.3-4-24-10.1-34.4-41.9-58.7-77.8-59.9-1.3 0-2.7 0-4-.3-4.1-.9-6.5-3.4-6.1-7.8.4-4.1 3.2-6.7 7.1-6.2 10.2 1.2 20.7 2 30.4 4.9 39 11.9 67.2 49.2 68.4 89.3z"/><path class="st0" d="M258.7 193.1c30.9.7 58.2 26 61.1 55.6.2 2.2.6 4.3.7 6.4.2 5.3-2.3 8.6-6.7 8.8-4.7.3-7.4-2.6-7.7-8.3-1.2-23.5-16.7-42.2-39.4-47.3-3.1-.7-6.2-.9-9.4-1.3-5.3-.6-8.4-3.4-8.1-7.5.3-4 3.5-6.4 8.6-6.5.8.1 1.4.1.9.1z"/><path class="st0" d="M256 53.7c111.7 0 202.3 90.6 202.3 202.3S367.7 458.3 256 458.3 53.7 367.7 53.7 256 144.3 53.7 256 53.7m0-15c-29.3 0-57.8 5.7-84.6 17.1-25.9 10.9-49.1 26.6-69.1 46.6-19.9 19.9-35.6 43.2-46.6 69.1-11.3 26.8-17.1 55.2-17.1 84.6s5.7 57.8 17.1 84.6c10.9 25.9 26.6 49.1 46.6 69.1 19.9 19.9 43.2 35.6 69.1 46.6 26.8 11.3 55.2 17.1 84.6 17.1s57.8-5.7 84.6-17.1c25.9-10.9 49.1-26.6 69.1-46.6 19.9-19.9 35.6-43.2 46.6-69.1 11.3-26.8 17.1-55.2 17.1-84.6s-5.7-57.8-17.1-84.6c-10.9-25.9-26.6-49.1-46.6-69.1-19.9-19.9-43.2-35.6-69.1-46.6-26.8-11.3-55.3-17.1-84.6-17.1z"/></svg>