<svg id="Adress" xmlns="http://www.w3.org/2000/svg" viewBox="0 0 512 512"><style>.st0{fill:#0098ce}</style><path class="st0" d="M41.5 227.8c6.7-46.3 25.7-86.9 58.2-120.7 36.2-37.7 80.4-59.9 132.6-66 6.2-.7 25.7-2.1 38.5-.9 12.9 1.2 16 1.4 22.3 2.4 40.1 7 75.8 23.5 106.4 50.4 41.9 36.9 66.6 83.2 73.3 138.8.4 3.2 1.5 14.9 1.4 26.7 0 11.8-1.2 23.8-1.7 27.7-6.7 46-25.4 86.2-57.5 120-36.2 38.1-80.5 60.4-132.8 66.6-2.8.3-13.3 1.2-24.4 1.2-12.6 0-26-.9-29.9-1.5-46-6.7-86.2-25.4-120-57.5-38.1-36.2-60.4-80.5-66.6-132.8-.4-3.1-1.8-14.5-1.8-26.2 0-12 1.5-24.3 2-28.2zm416.9 29.6c1.2-110.8-91-202-201.4-202-110.1 0-201 90.6-201.6 200.5-.6 111.2 90.9 202.4 200.9 202.8 110.8.3 202.9-91 202.1-201.3z"/><path class="st0" d="M152.4 311.3c0-13.8-.2-27.7.1-41.5.1-4.5-1.6-5.9-5.8-5.8-5.7.2-11.3 0-17 0-3.9 0-6.7-1.7-8.3-5.3-1.6-3.7-.6-6.9 2-9.6 2.9-3.2 6.1-6.1 9.2-9.2l117.3-114.6c7.8-7.6 11.1-7.6 18.6.1 39.4 40.2 78.9 80.4 118.3 120.6 1 1.1 2.1 2.1 3.1 3.3 2.4 2.9 3.7 6.6 1.4 9.6-1.8 2.3-5.1 4.5-7.9 4.8-6.2.7-12.6.3-19 .3-8.6 0-8.6 0-8.6 8.4v78.5c0 9.7-3 12.6-12.9 12.6h-54c-9.5 0-12.5-3.1-12.5-12.6 0-18.8-.2-37.7.1-56.5.1-5.2-1.9-6.6-6.7-6.5-9.5.2-19 .2-28.5 0-4.7-.1-6.4 1.5-6.4 6.3.2 18.7.1 37.3.1 56 0 10.6-2.7 13.3-13.3 13.3h-56.5c-9.8 0-12.8-3.1-12.8-12.8v-39.4zm.1-65.6c2.1.3 2.9.6 3.6.6 12.3.7 13.7 2 13.7 14.2 0 26.2.1 52.3-.1 78.5 0 5 1.5 6.7 6.6 6.5 11.8-.4 23.7-.3 35.5 0 4.5.1 5.7-1.4 5.6-5.7-.2-19-.1-38-.1-57 0-9.4 2.9-12.4 12.1-12.4h52.5c8.9 0 11.7 2.8 11.7 11.6 0 19.3.1 38.7 0 58 0 4 1.2 5.6 5.4 5.5 10.8-.2 21.7-.1 32.5-.1 6.6 0 6.7 0 6.7-6.7v-81c0-8.4 3-11.3 11.5-11.4h10.4c-.7-2.6-1.6-3.8-2.7-4.8-31.5-32.1-63.1-64.2-94.5-96.4-3.3-3.4-5.2-3-8.4.1-32.6 32-65.3 63.9-97.9 95.8-1 1.3-2.2 2.6-4.1 4.7z"/></svg>