<svg id="Logo" xmlns="http://www.w3.org/2000/svg" viewBox="0 0 512 512"><style>.st0{fill:#fff}</style><path class="st0" d="M262.9 34.3c.4.1.7.2 1.1.2 8.6.3 17.2 1.1 25.7 2.4 31 4.8 59.8 15.6 86.2 32.6 12.2 7.8 23.5 16.7 33.9 26.7 30.4 29.5 51 64.7 61.4 105.8 2.2 8.6 3.8 17.3 4.9 26.1.8 6.8 1.5 13.6 1.5 20.5 0 .4.1.9.2 1.3v12.2c-.1.4-.2.9-.2 1.3-.2 12.5-1.8 24.8-4.2 37-3.3 16.3-8.4 31.9-15.2 47-12.7 27.9-30.4 52.2-53.2 72.8-27.1 24.5-58.3 41.3-93.7 50.4-8.6 2.2-17.4 3.9-26.2 5-5.4.7-10.7 1.2-16.1 1.5-2.2.1-4.5.2-6.7.3-.3 0-.6.1-1 .2h-10c-.5-.1-1-.2-1.5-.2-4.9-.3-9.8-.4-14.7-.9-5.7-.6-11.3-1.3-16.9-2.3-17.9-3-35.2-8.3-51.8-15.7-19.1-8.5-36.6-19.4-52.5-32.8-20.4-17.2-37.2-37.3-50.4-60.5-10.7-18.8-18.4-38.7-23.2-59.8-1.9-8.5-3.4-17.1-4.3-25.8-.4-4.5-.7-9-1-13.4-.1-1.3-.3-2.5-.4-3.8v-13.2c.2-1.2.4-2.4.4-3.7.7-15.4 3-30.5 6.9-45.4 4.4-16.8 10.7-32.9 18.8-48.2 9.2-17.3 20.5-33.1 33.9-47.4 13.4-14.5 28.6-27 45.5-37.4 20.1-12.4 41.7-21.3 64.7-26.8 8-1.9 16-3.3 24.2-4.3 6.4-.8 12.8-1.3 19.3-1.5.4 0 .7-.1 1.1-.2h13.5zM256 475.9c121.3 0 219.9-98 220.1-219.8.1-58.6-22.9-115.6-66.5-157.6-43.8-42.3-96.5-63.2-157.4-62.4-118.5 1.7-217.3 98.9-216 222.4 1.2 120.4 99.3 217.4 219.8 217.4z"/><path class="st0" d="M256.2 472.9c-119.1.1-217.8-96.5-217-218.5.8-118.9 96.8-214 214.3-215.3 121.6-1.4 219.4 96.7 219.6 216.6.1 119.9-97.1 217.2-216.9 217.2zm212.2-216.8c.1-116.8-94.2-212.2-211.6-212.7-118.6-.5-213.5 95.4-213.6 212.5-.1 116.5 94.2 212.7 212.6 212.7 118.1 0 212.6-95.8 212.6-212.5z"/><path class="st0" d="M383 118.9c-.7.6-1.1 1-1.6 1.3-.3.2-.7.4-1.1.6-1.2.6-2.1 1.5-2.3 2.9-.2 1-.3 2-.4 3-.2 1.4-.3 2.8-.6 4.2-.5 2.2-1.8 3.7-4 4.4-1.5.4-3.1.7-4.6 1-3.9.8-7.1 4.6-7.2 8.5.1 0 .2.1.3.1 3.8.2 7.6.4 11.5.5 1.3 0 2.7 0 4-.2 2.6-.4 4.4-1.9 5.5-4.4.8-1.9 1.1-3.8 1.4-5.8.3-1.6.6-3.3 1-4.9.3-1 .8-1.9 1.3-2.8 1-1.6 2.7-2.2 4.5-2.4 1.9-.2 3.8.1 5.7.4 1.4.2 2.8.4 4.2.4 1 0 2-.3 3-.6 1.2-.4 2.1-1.1 2.5-2.3.7-1.8 2.1-2.5 3.9-2.7 1-.1 2-.2 3.1-.3-.3.8-.8 1.3-1.3 1.7-1.3 1.1-2.1 2.6-2.5 4.2-.2.7-.4 1.4-.7 2.1-.8 2.2-2.3 3.7-4.5 4.5-1 .3-2.1.6-3.1.9-2.8.8-4.7 2.7-5.8 5.4-.9 2.5-1.3 5.1-1.4 7.7-.2 2.9-.3 5.9-.5 8.8-.1 2.1-.6 4.1-1.3 6.1-.3.7-.5 1.5-.7 2.2 2.4.4 4.6.9 6.9 1.1 2.7.3 4.4-.7 5.4-3.1l1.2-2.7c.3-.7.7-1.3 1.1-2 .7-1.1 1.7-1.6 3.1-1.6 1 0 2.1-.1 3.1-.1.9 0 1.7.4 2.3 1.3-.5.2-1 .4-1.5.4-3.3.5-5.2 2.4-6 5.5-.3.9-.6 1.8-1 2.7-.8 2.4-2.7 3.6-5.1 4.1-1.4.3-2.7.1-4.1-.1-2.9-.6-5.5.1-7.5 2.3-1.1 1.2-2.1 2.5-3.3 3.9 1.1.4 2 .7 2.9 1 2.4.9 4.8 1.9 7.2 2.7 1.3.5 2.7.7 4.1.9 3.8.5 6.6-1.1 8.6-4.3.7-1.2 1.2-2.6 1.8-3.8.8-1.6 1.5-3.1 2.4-4.6.5-.8 1.2-1.6 2-2.2 1.5-1.3 3.4-1.6 5.3-.9 1.7.5 3.3 1.2 4.9 1.8 1.4.5 2.7 1 4.1 1.4 2.1.7 4 .3 5.7-1.3.4-.3.8-.7 1.2-1 .8-.6 1.6-.8 2.6-.7 1.3.1 2.5.3 3.9.5-.2.7-.7 1-1.1 1.3-1.8.9-3 2.3-4.2 3.8-1 1.2-2 2.3-3.2 3.3-1.4 1.3-3.1 1.9-5 1.7-.7-.1-1.4-.1-2.1-.1-1.3-.1-2.4.3-3.4 1-1.6 1.1-3 2.4-3.9 4.1-.9 1.7-1.6 3.4-2.3 5.1-1.3 3.3-2.3 6.7-3.6 10-.9 2.2-2.1 4.3-3.2 6.5.7.3 1.6.7 2.4 1.1 1.2.6 2.4 1.3 3.7 1.8.9.3 1.9.5 2.9.5 1.3 0 2.3-.8 3.1-1.7l1.8-2.4c.4-.5.8-1 1.3-1.5 1.2-1.1 2.6-1.6 4.1-1.1 1.5.5 3.1 1.1 4.6 1.6-.6 1-1.4 1.4-2.4 1.3-.3 0-.6 0-.9-.1-1.4-.2-2.6.2-3.5 1.2-.9 1-1.6 2.1-2.5 3.1-.8 1-1.5 2-2.4 2.9-1.5 1.4-3.3 1.9-5.3 1.3-1-.3-2.1-.7-3.1-1-.2-.1-.4-.1-.6-.2-2.6-1-5.2-1.1-7.6.5-.7.5-1.5.8-2.2 1.2-.9.5-1.5 1.2-2 2.1 3.1 1 5.4 3.1 7.9 5 1.7 1.3 3.5 2.5 5.7 3 2.8.7 5.4.2 7.6-1.6 1.2-1 2.3-2.3 3.4-3.5 1-1.1 1.9-2.3 2.9-3.4.7-.7 1.5-1.4 2.4-2 1.4-.9 2.9-1.1 4.4-.6 1.1.4 2.1.9 3.1 1.5 1.2.7 2.3 1.7 3.5 2.4 1.5.9 3 1.9 4.5 2.7 1.5.8 3 .8 4.5-.1.4-.3.9-.4 1.4-.6 2.3-1 4.4-.4 5.9 1.9-.3.1-.5.3-.7.3-2.2.2-3.9 1.2-5.4 2.8-.2.2-.5.4-.8.7-2.3 1.9-4.9 2.5-7.7 1.9-1-.2-2-.4-2.9-.5-2.3-.4-4.5 0-6.4 1.4-1.3 1-2.4 2.2-3.5 3.4-.9 1.1-1.8 2.2-2.5 3.4-2.3 4-5.1 7.7-8.4 11-.7.7-1.2 1.5-1.8 2.2 1.8 1.5 3.5 3 5.3 4.3 2.1 1.5 3.7 1.5 5.8 0 1-.7 1.8-1.4 2.8-2.1 2-1.3 4.1-1.2 6.2-.3 1.4.6 2.3 1.7 2.8 3.4-.4-.1-.7-.2-1-.3-2.7-1.1-5.1-.7-7.3 1.2-.7.6-1.4 1.3-2.2 1.9-.5.4-1.1.9-1.7 1.2-1.9 1-3.8 1.2-5.7.2-1.1-.6-2.1-1.2-3-1.9-2.7-2.2-5.6-2.6-8.9-1.5-1.2.4-2.5.8-3.8 1.1.1.9.4 1.5 1 2.1 2 1.8 3.5 3.9 5.2 5.9 1.3 1.6 2.7 3.1 4.5 4.3 2.3 1.5 4.8 1.7 7.2.5 1.2-.6 2.3-1.3 3.4-2.1 1.5-1 2.9-2 4.3-3 1.3-.8 2.6-1.4 4.1-1.7 1.7-.3 3.2 0 4.4 1.1 1.3 1.2 2.4 2.5 3.6 3.8 1.2 1.3 2.2 2.7 3.4 4 1.6 1.9 3.7 2.5 6.1 2 .4-.1.8-.1 1.2-.2 1.1-.4 2 0 2.9.7.9.8 1.9 1.6 2.8 2.4 0 .1-.1.2-.1.2h-1.8c-1.6-.1-3 .3-4.5 1s-3.1 1.2-4.7 1.6c-1.7.5-3.4.1-5-.7l-2.7-1.5c-2.2-1.2-4.4-1.2-6.6-.3-2.7 1.1-5 2.8-7.2 4.7-1.8 1.6-3.4 3.3-5.2 4.9-1.4 1.2-2.9 2.4-4.4 3.5-1.1.7-2.4 1.2-3.7 1.8.1.3.3.8.5 1.1.9 1.9 2.1 3.6 3.5 5.1 1.6 1.8 3.6 2.2 5.9 1.3.9-.4 1.7-.8 2.6-1.2 1.9-1 3.7-.7 5.3.7 1.3 1.1 2.3 2.4 3.3 3.9-1.1.2-2-.2-2.7-.8-1-.8-2-1.1-3.1-.7-1.3.3-2.6.7-3.8 1.1-.8.3-1.6.8-2.4 1.1-2.7 1.2-5.2.7-7.4-1.3-.9-.8-1.6-1.8-2.5-2.6-.6-.6-1.2-1.3-1.9-1.8-1-.9-2.3-1.4-3.7-1.4h-6.1c.1.6.2 1 .4 1.3.6 1.4 1.1 2.9 1.8 4.3.9 1.9 1.8 3.7 2.9 5.5.7 1.2 1.5 2.3 2.4 3.3 1.9 2.1 4.4 2.9 7.3 2.3 1.9-.4 3.8-1.1 5.7-1.7 1.5-.4 2.9-1 4.4-1.3 3-.6 5.5.3 7.3 2.9.4.6.8 1.3 1.1 1.9.9 2 1.8 3.9 2.7 5.9.4.9 1 1.8 1.5 2.6.6.8 1.4 1.3 2.5 1.1 2.2-.4 3.8.5 5.2 2.1.8.9 1.6 1.7 2.1 2.9-.5 0-1 0-1.3-.1-2.4-.7-4.8-.4-7.2-.1-.9.1-1.8.1-2.7.2-1.7.1-3.1-.5-4.3-1.6-.6-.5-1.2-1.1-1.7-1.6-2.5-2.6-5.6-3.4-9-2.4-1.8.5-3.6 1.2-5.4 1.9-1.3.5-2.5 1.2-3.7 1.9-3.6 2.2-7.5 3.7-11.7 4.5-.4.1-.8.2-1.1.3.5 1.8 1 3.5 1.6 5.2 1 3 2.5 4.2 5.7 4.2 1.8 0 3.7 0 5.5.2 3.2.4 5 2.8 4.7 6.2-.5-.3-1.1-.5-1.5-.8-.4-.3-.8-.6-1.1-1-1.3-1.6-3-1.9-5-1.5-1.7.3-3.3.7-5 1-2.5.4-4.3-.6-5.5-2.8-.5-.9-1-1.8-1.4-2.8-1.8-3.7-4.8-5.8-8.8-6.5-.7-.1-1.5-.2-2.4-.3.3 1.9.6 3.7.9 5.4.5 2.4.9 4.8 1.5 7.2.3 1.3.9 2.6 1.5 3.8 1.1 2.2 3 3.3 5.5 3.4 2.1.1 4.2 0 6.2-.1 1.8 0 3.6-.2 5.4-.2 2.9.1 4.7 1.4 5.6 4.1.6 2.1.9 4.2 1.3 6.3.2 1.2.5 2.5.8 3.7.5 1.9 1.7 3.2 3.5 4l1.5.6c1.4.6 2.4 1.6 2.9 3.1.3.9.5 1.8.7 2.7-.1 0-.2.1-.2.1-.4-.2-.8-.4-1.1-.7-1.5-1.2-3.2-1.5-5-1.5-3.4 0-6.1-1.4-8.2-4-1-1.3-2-2.6-3-3.8-1.5-1.7-3.4-2.7-5.7-2.8-1.4 0-2.8 0-4.2.2-2.7.5-5.4 1.1-8.1 1.6-3.5.7-7 1-10.5 1h-.9l-.2.2c-.1 2.4-.3 4.7.2 7.1.4 2.1 1.7 3.5 3.9 3.9 1 .2 2.1.3 3.1.5.7.1 1.3.3 1.9.5 1.6.5 2.6 1.6 3.2 3.1.5 1.5.7 3.1.7 4.8-.4 0-.7.1-1.1.1l-.3-.9c-.8-2.7-2.7-4.1-5.5-4.3-1.5-.2-3.1-.3-4.6-.5-2.8-.4-4.5-2-5.3-4.6-.4-1.4-.7-2.7-.9-4.1-.4-2.5-1.7-4.3-4-5.5-1.3-.7-2.6-1.4-4.2-1.8-.1.7-.2 1.3-.2 1.9-.3 2.8-.6 5.7-.9 8.6-.2 2.1 0 4.1.7 6.1.8 2.4 2.4 4.1 4.8 4.8 1.9.5 3.8.8 5.7 1.2 1.7.4 3.4.7 5.1 1.3 2 .7 3.5 1.9 4 4.1.2 1.1.2 2.2.2 3.3-.1 2.6-.4 5.1-.5 7.7 0 .8.1 1.6.2 2.4.1 1 .7 1.8 1.4 2.4.6.5 1.2.9 1.8 1.4 1.2.9 2 2.1 2.1 3.7.1 1 .3 2 .4 3.1-.9-.1-1.5-.5-1.9-1.2-.5-1-1.3-1.6-2.3-2l-3.3-1.2c-3-1.1-5-3.1-6-6.2l-.9-3c-.7-2.1-2.1-3.6-4.2-4.3-1.6-.6-3.4-1-5.1-1.2-1.8-.3-3.7-.4-5.6-.3-4.2.1-8.2-.7-12.2-1.8-.7-.2-1.4-.4-2.3-.6-.4 1.8-.7 3.6-1 5.3-.2 1-.2 2-.2 3 0 1.3.5 2.4 1.6 3 .8.5 1.6.8 2.5 1.2.7.3 1.5.6 2.2.9 2.6 1.3 3.6 3.3 3.1 6.2-.1.9-.3 1.7-.5 2.7-.3 0-.7 0-1.1.1-.1-.6-.2-1.1-.2-1.7-.3-2-1.3-3.5-3.1-4.4-1.1-.5-2.2-.9-3.3-1.4-1.2-.5-2.4-1-3.5-1.7-1.8-1.1-2.7-2.7-2.4-4.9.2-1.5.3-3 .4-4.5.1-2.1-.7-4-2-5.6-1.2-1.4-2.5-2.6-4.2-3.6-.2.5-.4 1-.5 1.5-.6 1.8-1.2 3.6-1.9 5.4-.9 2.3-1.8 4.6-2.2 7-.1.6-.2 1.2-.2 1.9-.1 2.7 1 4.8 3.3 6.1 1.5.9 3 1.5 4.6 2.3 1.6.8 3.3 1.6 4.8 2.6 3 1.9 4 4.3 3.1 7.8-.5 2-1.3 3.9-2 5.9-.6 1.9-1.3 3.7-1.3 5.7 0 1 .3 1.9 1.2 2.4.8.4 1.1 1.3 1.3 2.1.4 1.9.5 3.9.5 5.9-.7.1-1.3-.2-1.5-.8-.7-1.9-2-3.2-3.7-4.3l-2.1-1.5c-1.9-1.4-2.8-3.3-3-5.7-.1-1.2-.1-2.4-.2-3.6-.1-1.9-.9-3.5-2.2-4.9-1.6-1.7-3.5-2.8-5.6-3.6-2.5-.9-5-1.7-7.6-2.5-2.5-.8-4.9-1.5-7.2-2.8-.8-.5-1.6-1.1-2.3-1.6-.5-.4-.6-.4-1.9-.2-.1 1.5-.9 2.8-1.7 4-.3.6-.7 1.2-.9 1.8-.7 2.1-.4 4 1.2 5.5l2.7 2.4c.6.6 1.2 1.2 1.7 1.8 1.1 1.3 1.4 2.8.8 4.4-.4 1-.9 1.9-1.4 2.8-.2.3-.7.5-1.3.9v-3.7c0-2-.9-3.4-2.5-4.5-.9-.6-1.9-1.3-2.8-1.9-.4-.3-.9-.7-1.3-1-2.8-2.6-2.8-4.1-1.6-7 .7-1.7 1.3-3.3 1.5-5.1.2-2-.3-3.7-1.4-5.3-.7-1.1-1.4-2.2-2.2-3.5-.4.2-.9.4-1.2.8-.6.7-1.2 1.4-1.7 2.1-1.3 1.9-2.6 3.9-3.8 5.9-.8 1.4-1.6 2.8-2.1 4.4-1.1 3-.5 5.7 1.8 8 .9.9 2 1.8 3 2.6 1.2 1.1 2.5 2.1 3.6 3.2.8.8 1.5 1.8 2 2.8.9 1.6 1 3.4.2 5-.5 1.2-1.2 2.3-1.9 3.3-1 1.5-2.2 2.8-3.2 4.3-.6 1-1.1 2-1.5 3.1-.4 1-.3 1.9.1 2.9s.8 2.1 1.1 3.2c.5 1.9.1 3.6-1.4 5-.2.2-.4.3-.7.5-.2-.8-.4-1.5-.5-2.3-.1-1.1-.5-2-1.4-2.7-.3-.2-.5-.6-.8-.8-2.8-2.9-3.7-6.3-2.8-10.2.2-1 .3-2 .4-3 .2-2.2-.4-4.1-1.8-5.8-1-1.1-2-2.2-3.2-3.2-1.6-1.3-3.4-2.4-5.1-3.5-2.4-1.5-4.9-3-7-5-.9-.9-1.8-1.9-2.7-2.8-.5-.5-1.1-1-1.7-1.6-.7 1.7-2 2.9-3.1 4.1-.5.5-.8 1-1.2 1.6-.9 1.4-1.1 3-.4 4.5.4 1 .9 1.9 1.4 2.8.5 1 1.1 2 1.5 3 .7 1.6.5 3.3-.4 4.8-.4.7-.8 1.3-1.2 1.9-.4.6-1.1.9-1.9.9.1-.5.3-.9.4-1.4.2-.8.4-1.7.6-2.5.4-1.4 0-2.6-.8-3.6s-1.6-1.9-2.4-2.9c-.7-.9-1.4-1.8-1.9-2.8-1-1.7-1-3.4-.1-5.1.4-.8.9-1.6 1.4-2.4.4-.6.8-1.2 1.2-1.7 1.5-2 1.9-4.2 1.2-6.6-.4-1.5-1-3-1.5-4.5-1 .1-1.7.6-2.3 1.2-1.5 1.8-3.4 3.1-5.1 4.5-1.3 1.1-2.7 2.3-3.8 3.6-2.1 2.5-2.5 5.4-1.1 8.4.5 1.2 1.2 2.3 1.8 3.4.9 1.5 2 3 2.8 4.6.7 1.2 1.2 2.5 1.6 3.8.6 1.8.2 3.6-1.2 5-.9 1-1.9 1.9-2.9 2.7-1.2 1-2.5 2-3.7 3-2 1.6-3.1 3.7-2.9 6.3v1.6c.1 2.6-1.4 4.4-3.3 6.2-.1-.5-.1-.8-.1-1.1.2-2.3-.3-4.3-1.3-6.4-.6-1.3-1-2.7-1.3-4.1-.4-1.4-.1-2.8.7-4.1l.6-.9c2.3-3.3 2.4-6.8.8-10.4-.5-1.1-1.2-2.1-1.9-3.1-.5-.7-1-1.3-1.6-1.9-4.1-3.7-7.1-8.3-10.1-13-.2-.3-.5-.7-.7-1h-.5c-2.3.8-4.3 2-5.9 3.8-1.1 1.3-1.5 2.7-1.3 4.4.2 1.7.6 3.4 1.3 4.9.9 2 .5 3.7-1.2 5.2-1.1 1-2.3 1.9-3.6 2.8 0-1.1.3-1.9.8-2.6 1.5-1.9 1.4-3.9.4-6-.6-1.4-1.2-2.8-1.9-4.2-1.2-2.4-.7-4.5 1.1-6.4.9-1 1.8-1.9 2.8-2.7 2.6-2 3.7-4.7 3.4-8-.1-1.4-.2-2.7-.3-4.1-.1 0-.2-.1-.3 0-2.8 1.3-5.5 2.7-8.3 4.1-1 .5-1.9 1-2.9 1.5-.5.3-.9.6-1.4.9-3.4 2.4-4.6 5.4-3.7 9.4.4 1.6 1 3.1 1.5 4.6.5 1.7 1.2 3.4 1.5 5.1.6 2.9-.3 4.9-2.9 6.4-1.2.7-2.5 1.2-3.7 1.8-1.6.8-3.3 1.6-4.9 2.5-.8.4-1.4 1-2.1 1.6-.8.7-1.2 1.5-1 2.5.4 2.2-.7 3.9-2.3 5.2-.8.7-1.6 1.3-2.4 1.9-.1 0-.2-.1-.2-.1.1-.7.1-1.4.3-2.1.4-1.6.3-3.2.1-4.8-.2-1.4-.3-2.8-.4-4.2-.1-1.4.4-2.7 1.3-3.8.6-.7 1.3-1.4 2-2.1 2.2-2 2.9-4.4 2.5-7.3-.4-2.7-1.1-5.3-2.2-7.8-.4-.9-.8-1.7-1.2-2.6-1.9-3.6-3.4-7.4-4.5-11.3l-.6-1.8c-.1-.1-.2-.3-.3-.5-2.4.6-4.7 1.2-6.9 2.3-1.4.7-2.3 1.9-2.4 3.5-.1 1.3 0 2.7 0 4 0 .9 0 1.8-.1 2.6-.2 1.7-1.2 3-2.7 3.9-1.1.6-2.3 1-3.5 1.6-.1-.1-.2-.1-.2-.2.1-.3.2-.7.3-.9.5-.6.9-1.3 1.5-1.8 1.2-1.1 1.7-2.3 1.5-3.9-.2-1.5-.4-3-.6-4.6-.1-.5-.2-1.1-.3-1.6-.4-2.2.2-3.9 2-5.1 1.2-.8 2.5-1.6 3.9-2.2 3-1.1 4.7-3.2 5.4-6.3.3-1.5.8-3 .8-4.5-.1-.1-.2-.1-.3-.1-2.7 1-5.5 1.3-8.3 1.7-2.1.3-4.1.7-6 1.5-2.5 1.2-4.5 2.9-5.1 5.7-.2 1.2-.3 2.5-.2 3.7.1 2.5.3 5 .4 7.5 0 .6 0 1.3-.1 1.9-.3 2.1-1.4 3.6-3.4 4.3-1.5.6-3.1.9-4.7 1.3-1.8.4-3.6.6-5.4 1-.8.2-1.5.5-2.2.8-1.1.5-2 1.4-2.4 2.6l-.6 1.5c-.5 1.7-1.7 2.7-3.3 3.1-.8.2-1.7.4-2.9.6.4-.6.5-.9.8-1.2 1.2-1.3 1.5-2.8 1.5-4.5.1-1.1.1-2.2.3-3.2.4-1.9 1.3-3.6 2.9-4.8 1-.8 2-1.5 3-2.2 3.7-2.5 4.9-6.1 4.4-10.3-.3-2.3-.8-4.7-1.3-7-.9-4.4-1.5-8.8-1.5-13.2v-.8c-.2-.1-.4-.2-.6-.2-2.1 0-4.2.2-6.3.7-.3.1-.6.2-.8.3-2.5.8-3.8 2.5-3.9 5.1-.1 1-.1 2-.3 3-.2 1.3-.9 2.3-2.1 3-1.8.9-3.8 1.1-6 1 .5-.8 1.1-1.3 1.9-1.6 2.2-.9 3.1-2.6 3.3-4.9.1-1.7.4-3.3.7-4.9l.3-1.2c.7-2.4 2.2-3.7 4.7-3.9 2.1-.2 4.2-.6 6.1-1.7 2.9-1.7 4.3-4.4 4.9-7.6-.2-.1-.3-.2-.4-.2-4-.2-8.1-.4-12.1-.6h-2.5c-2.9.3-5.1 1.7-6.3 4.4-.8 1.9-1.1 3.9-1.5 5.9-.2 1.3-.5 2.6-.7 3.9-.1.5-.3 1-.5 1.6-1.1 3.1-3.1 4.6-6.4 4.6-2.1 0-4.2-.4-6.3-.6-1.9-.2-3.8-.3-5.7.4-1.3.5-2.3 1.2-2.8 2.5-.6 1.4-1.7 2.2-3.1 2.4-1.2.2-2.4.2-3.6.4-.1-.1-.1-.2-.2-.2.4-.5.7-1 1.1-1.3 1.4-1.2 2.3-2.7 2.7-4.5.9-4.1 3.3-6.5 7.4-7.4.8-.2 1.5-.4 2.3-.7 1.9-.7 3.3-1.9 4.1-3.8.8-1.6 1.2-3.4 1.4-5.2.2-2.4.4-4.7.4-7.1 0-3.4.6-6.8 1.5-10.1.3-1.1.6-2.3.9-3.5-.5-.1-1-.1-1.5-.2-1.4-.3-2.8-.6-4.2-.8-.9-.1-1.9-.2-2.9-.1-1.5.1-2.7.9-3.4 2.2-.6 1.1-1 2.4-1.6 3.5-.4.8-.8 1.6-1.3 2.3-.6.9-1.5 1.3-2.6 1.3-1 0-2.1.2-3.1.1-1 0-1.9-.3-2.5-1.3.9-.2 1.6-.5 2.4-.7 2.3-.5 3.9-1.9 4.7-4.2.4-1.1.9-2.3 1.2-3.4 1-3.4 3.9-4.4 6.3-4.5 1.2 0 2.5.1 3.7.2 2.9.3 5.3-.8 7.3-2.8 1-1 1.7-2.2 2.7-3.4-.5-.2-.8-.2-1.1-.3l-9.9-3.3c-1.6-.5-3.2-.9-4.9-.9-1.9 0-3.5.7-4.9 2-1.4 1.3-2.4 3-3.2 4.7-.8 1.7-1.6 3.4-2.5 5-.5 1-1.2 1.9-1.9 2.7-1.4 1.7-3.3 2.2-5.4 1.5-1.3-.4-2.5-1-3.7-1.5-2.1-.9-4.3-1.6-6.5-2-1.6-.3-3.1 0-4.3 1-.4.3-.9.7-1.3 1-1 .9-2.1 1.3-3.5 1.1-1.1-.2-2.3-.3-3.5-.5.3-.7.8-1.1 1.4-1.4 1.5-.7 2.6-1.9 3.6-3.2.9-1.2 1.9-2.3 3-3.4 1.4-1.4 3.2-2.1 5.2-2.1 1 0 2.1.1 3.1-.1 3-.4 5.1-2.2 6.6-4.7 1-1.7 1.8-3.7 2.5-5.5.7-1.7 1.2-3.5 1.8-5.3 1.3-3.8 2.8-7.5 5.1-10.9-2.4-1.1-4.6-2.2-6.9-3.1-2-.8-3.9-.2-5.3 1.5-.7.8-1.3 1.7-2 2.6-1.7 2.2-3.3 3.4-7.1 1.8-.9-.4-1.8-.7-2.7-1.1.4-.8 1-1.2 1.8-1.3.4 0 .8 0 1.1.1 1.6.4 2.9-.2 3.9-1.3.8-.9 1.5-2 2.3-3 .7-.9 1.4-1.9 2.2-2.7 1.6-1.6 3.6-2.1 5.8-1.4 1 .3 1.9.6 2.8.9.9.3 1.7.6 2.6.8 1.5.3 3.1.3 4.5-.4 1.8-.8 3.4-2 4.7-3.4.2-.2.3-.4.5-.7-2.9-.9-5-2.8-7.3-4.5-1.4-1-2.8-2-4.3-2.8-3.8-1.9-7.3-1.3-10.4 1.5-1.4 1.3-2.6 2.9-3.9 4.4-1 1.1-2.1 2.3-3.2 3.3-1.8 1.6-4 1.9-6.2.8-1.6-.8-3.1-1.8-4.6-2.8-1.4-.9-2.8-2-4.2-2.9-.6-.4-1.3-.7-1.9-.9-1.2-.5-2.3-.4-3.4.4l-1.5.9c-.9.4-1.9.3-2.8 0-1.2-.3-2.4-.7-3.6-1.1v-1c.6-.1 1.1-.3 1.7-.4 1.6-.2 2.9-1 4-2.1.7-.7 1.6-1.4 2.4-2 1.7-1.4 3.6-1.7 5.7-1.1 1.5.4 3 .7 4.5.8 3.3.3 6-1 8.1-3.4 1.2-1.3 2.2-2.7 3.1-4.2.8-1.2 1.6-2.6 2.3-3.9 1.6-3 3.6-5.6 6.1-7.8.8-.7 1.5-1.6 2.3-2.4-.3-.3-.5-.5-.7-.6-1.2-1-2.4-2-3.6-2.9-.5-.4-1.1-.8-1.6-1.2-1.6-1-3.1-1-4.7 0-1.1.7-2.1 1.5-3.1 2.3-2.3 1.5-4.6 1.5-7 .2-1.2-.6-1.9-1.6-2.3-3.1.7.2 1.2.4 1.8.6 2.1.7 4.1.3 5.9-1 .7-.5 1.3-1.1 2-1.7.5-.4 1-.9 1.5-1.3 2.4-1.8 5-2 7.6-.3l2.7 1.8c2.4 1.9 5 2.2 7.9 1.3 1.4-.4 2.8-.9 4.3-1.3-.2-1-.6-1.7-1.3-2.3-2-1.6-3.4-3.7-5-5.7-.8-1-1.6-1.9-2.5-2.8-2.8-2.6-7.5-3.8-11.9-.6l-3.9 3c-1.9 1.4-3.9 2.4-6.3 2.4-1.1 0-2.2-.2-3-.9-1-.9-2-1.8-3-2.8-1-1.1-1.9-2.4-2.9-3.6-.3-.4-.7-.8-1-1.2-1.8-2.4-4.2-3-7-2.4-.4.1-.9.2-1.4.2-.5 0-1.1 0-1.5-.3-1.2-.8-2.3-1.8-3.5-2.7 0-.1.1-.2.1-.3h1.2c1.9.2 3.7-.2 5.4-1.1 1.5-.8 3-1.4 4.7-1.6 1.2-.2 2.4 0 3.5.6.5.2.9.5 1.4.8 3.9 2.5 7.9 2.3 11.8.1 2.1-1.2 3.8-2.8 5.5-4.5 1.9-1.9 3.8-3.8 5.7-5.6 1.8-1.6 3.8-2.8 6.1-3.5.1 0 .2-.1.4-.2l-.3-.9c-1-1.9-2.2-3.8-3.6-5.3-1.7-1.8-3.7-2.3-6-1.4-.9.4-1.7.8-2.6 1.2-1.9.9-3.6.7-5.2-.7-1.3-1.1-2.4-2.4-3.4-4 1.2 0 2.1.2 2.9.9.8.7 1.7.8 2.7.7 1.5-.1 2.8-.6 4.2-1.2.8-.4 1.7-.8 2.5-1.1 2.5-1.1 4.9-.7 7 1.1.7.6 1.3 1.2 1.9 1.9.7.7 1.3 1.5 2 2.2 1.4 1.5 3.2 2.2 5.3 2.1 1.7-.1 3.5-.1 5.4-.2-.3-.9-.6-1.6-.9-2.3-1.2-2.6-2.4-5.3-3.8-7.9-.7-1.4-1.6-2.8-2.5-4-2.1-2.6-4.8-3.4-8-2.5-1.7.5-3.4 1.2-5 1.8-1.8.7-3.6 1.3-5.5 1.4-3.2.1-5.4-1.3-6.9-4.1-.7-1.3-1.2-2.6-1.8-3.8-.7-1.4-1.4-2.7-2.2-4.1-.3-.6-.8-1.1-1.2-1.6-.8-.9-1.8-1.4-3-1.2-2.2.4-3.6-.6-4.7-2.2-.6-.8-1.1-1.6-1.7-2.4.1-.1.1-.2.2-.2.6.1 1.2.1 1.8.2 1.9.5 3.8.3 5.7.1 1.2-.2 2.3-.2 3.5-.3 1.7-.1 3.1.4 4.4 1.5.6.6 1.2 1.1 1.8 1.7 2.5 2.5 5.4 3.3 8.8 2.5 3.3-.7 6.2-2.1 9.1-3.7 1.7-.9 3.3-1.9 5.1-2.6 2.1-.8 4.4-1.4 6.5-2 .5-.1 1-.2 1.5-.4-.7-2.2-1.3-4.3-2.1-6.4-.7-2-2.4-2.9-4.4-3.1-1.6-.1-3.2-.1-4.7-.2-.5 0-.9 0-1.4-.1-3.3-.4-5.1-2.7-4.9-6.2.7.1 1.2.4 1.7.9.4.4.9.8 1.2 1.2 1 1.2 2.3 1.5 3.8 1.3 1.7-.3 3.3-.7 5-1 .7-.1 1.5-.2 2.2-.1 1.5.1 2.7.8 3.5 2.1.7 1.1 1.4 2.2 1.8 3.4 1.4 3.8 4.4 5.6 8.1 6.5.9.2 1.9.3 3 .5-.1-.9-.2-1.6-.4-2.4-.6-3.1-1.1-6.2-1.8-9.3-.2-.9-.5-1.9-.8-2.7-1.7-4.6-5.4-6.3-9.9-5.6-2.3.3-4.5.7-6.8.7-4.1-.1-5.9-1.4-6.9-5.4-.7-2.6-1.1-5.3-1.7-7.9-.1-.6-.3-1.1-.5-1.7-.5-1.3-1.4-2.4-2.7-3-.6-.3-1.3-.6-1.9-.9-1.5-.6-2.6-1.7-3-3.3-.3-.8-.6-1.7-.6-2.8.5.3 1 .5 1.4.8 1.4 1 2.9 1.3 4.6 1.4 1.1 0 2.2.2 3.3.4 1.9.3 3.4 1.3 4.6 2.8l3.3 4.2c1.9 2.4 4.5 3.5 7.6 3.3 2.6-.1 5.2-.7 7.7-1.3 4.6-1.1 9.3-1.6 14.1-1.7.2 0 .3 0 .6-.1 0-.3.1-.6.1-.8 0-1.7 0-3.3-.1-5 0-.6-.1-1.2-.3-1.8-.5-1.8-1.6-2.9-3.4-3.3-1.3-.3-2.7-.5-4-.7-2.7-.4-4.3-2-4.9-4.7-.2-1.2-.3-2.4-.5-3.6h1.3c.2.5.4 1 .5 1.4.8 2 2.3 3.2 4.4 3.6 1.5.2 3.1.3 4.6.5 3.5.4 5.4 2 6.3 5.4.3 1.2.5 2.4.7 3.7.4 2.3 1.6 4 3.6 5.1 1.4.8 2.9 1.6 4.7 2.1.1-.6.1-1.2.2-1.7l.9-8.7c.2-2.4 0-4.7-1-6.8-.9-2.1-2.4-3.6-4.6-4.2-1.6-.5-3.2-.7-4.9-1-1.6-.3-3.2-.6-4.8-1-.6-.2-1.3-.4-1.9-.7-2.3-1.1-3.5-2.9-3.5-5.5 0-2.1.4-4.1.6-6.2.1-1 .2-2.1.1-3.1-.1-2.4-1.1-4.4-3-5.9-.5-.4-1-.7-1.3-1.1-.4-.5-.8-1.1-1-1.7-.3-1.4-.5-2.8-.7-4.2.9.1 1.5.4 1.8 1.1.6 1.2 1.6 1.8 2.8 2.2l2.7.9c3.2 1 5.2 3.2 6.2 6.3.3.8.5 1.7.7 2.5.7 2.5 2.3 4.2 4.7 4.9 1.7.5 3.5.9 5.3 1.2 1.6.2 3.2.3 4.7.3 4.4-.1 8.7.7 12.9 1.9l1.5.3h.3c.4-2.7 1.3-5.4 1.3-8.2 0-1.3-.5-2.3-1.6-3-.5-.3-1.1-.6-1.6-.9-.9-.4-1.9-.8-2.9-1.2-2.7-1.3-3.7-3.2-3.2-6.2.1-.9.4-1.8.6-2.8.3 0 .6-.1.9-.1.1.2.2.3.2.4.1.5.1 1 .2 1.5.3 2 1.3 3.4 3.1 4.3 1.1.5 2.2.8 3.2 1.3 1.3.6 2.7 1.2 3.9 2 1.5.9 2.2 2.3 2.1 4.1-.1 1.7-.2 3.5-.3 5.2-.2 3.4 2.7 7.5 6 8.8.2.1.5.1.8.2.2-2.9 1.3-5.4 2.4-8 .8-1.9 1.6-3.8 1.7-5.8.3-3.4-.6-6.4-3.4-8.5-1.4-1.1-3.1-1.8-4.6-2.7-.9-.5-1.8-.8-2.7-1.2-.6-.3-1.1-.5-1.7-.9-3.3-2-3.8-4.1-3.2-7.4.3-1.5.9-2.9 1.5-4.4.7-1.8 1.5-3.5 1.8-5.4.2-1.9.2-3.8-1.4-5.2-.3-.3-.5-.6-.6-.9-.9-2-.9-4.1-.9-6.2 1 .1 1.6.6 1.9 1.3.6 1.5 1.8 2.5 3.2 3.4 1 .6 1.9 1.3 2.8 2.1 1.6 1.4 2.4 3.3 2.6 5.4.1 1.2.1 2.4.1 3.6 0 2.3.9 4.1 2.6 5.5 1.5 1.2 3.2 2.2 5 2.8 2.9 1 5.9 2 8.9 2.9 2.6.8 5.2 1.9 7.4 3.5.8.6 1.6.9 2.6 1.4.1-.4.2-.7.3-1 .4-1 .8-2 1.4-2.9 1-1.5 1.5-3.1 1.4-5 0-1.1-.4-2.1-1.2-2.8-.8-.8-1.7-1.5-2.6-2.1-2.3-1.4-3.2-3.2-2.5-5.9.4-1.4.7-2.7 1-4.1h1.1c0 .2.1.4.1.5.1 1.2.1 2.4.2 3.6.1 1.3.8 2.3 1.8 3 .9.7 1.8 1.3 2.7 2 1 .8 2 1.6 2.9 2.6 1.5 1.5 1.8 3.3.9 5.3-.4 1-.8 1.9-1.2 2.9-1.8 5.1.9 9.8 3.8 11.9.1-.1.2-.2.2-.3 1.5-2.8 3.3-5.3 5.2-7.8 1-1.5 1.9-3 2.5-4.7 1-3 .6-5.8-1.7-8.1-1.1-1.1-2.3-2.1-3.4-3.1-1-.9-2.2-1.8-3.1-2.8-.8-.8-1.4-1.7-2-2.7-1.1-1.8-1.1-3.8-.2-5.7.6-1.2 1.3-2.3 2.1-3.4.7-1.1 1.6-2.1 2.4-3.2.7-1 1.3-2 1.8-3.1.7-1.7.7-3.4-.3-5-.9-1.3-.9-2.7-.4-4.2.2-.7.4-1.4.7-2.1.2-.4.6-.7 1.1-1.2.2 1.1.4 2 .6 2.8.1.8.4 1.5 1 2.1.4.4.7.8 1.1 1.2 2.6 2.8 3.5 6.1 2.8 9.9-.2.8-.2 1.6-.3 2.3-.5 3.3.6 6 3 8.2 1.6 1.5 3.4 2.9 5.3 4.2 1.5 1.1 3.1 2 4.6 2.9 3 1.9 5.8 4 7.9 6.9 0 .1.1.1.4.2.6-.6 1.2-1.2 1.7-1.8 1.1-1.3 2.1-2.6 3.1-3.9 1-1.3 1.1-2.7.5-4.1-.5-1.1-1.2-2.1-1.8-3.1-.8-1.2-1.6-2.3-1.8-3.8-.5-2.8 1.3-5.9 4.1-6.8-.1.5-.2.8-.3 1.2-.2.9-.5 1.8-.7 2.8-.3 1.2-.1 2.4.7 3.4.7 1 1.5 1.9 2.3 2.8.7.9 1.4 1.7 1.9 2.6 1.2 2 1.3 4 .1 6-.4.7-.8 1.3-1.2 1.9-.3.5-.7 1-1 1.4-1.9 2.4-2.1 5.1-1.2 7.9.4 1.2.9 2.3 1.3 3.6.7-.4 1.4-.7 1.9-1.2l4.8-4.2c1.4-1.2 2.8-2.4 4-3.7 1-1 1.7-2.3 2.1-3.8.5-1.8.1-3.5-.6-5.1-.6-1.4-1.4-2.6-2.2-3.9-1.1-1.9-2.3-3.7-3.3-5.6-.6-1.1-.9-2.3-1-3.6 0-1.1.2-2.2.9-3 .9-1 1.8-2 2.9-2.9 1.2-1 2.5-2 3.7-2.9 2.3-1.7 3.4-3.9 3.3-6.8 0-1.1.1-2.2.2-3.2.2-1.6 1.3-2.7 2.4-3.7.2-.1.4-.1.8-.2v2.6c0 .9.2 1.8.6 2.7.5 1.2 1.1 2.4 1.5 3.7 1 2.5.7 4.8-.8 7.1-2.5 3.5-2.4 7.2-.5 11 1.3 2.6 3.3 4.7 5.2 6.8 1.2 1.2 2.4 2.5 3.6 3.7 1.6 1.7 3 3.5 4.1 5.7.4.8.8 1.5 1.3 2.4 3-1 5.5-2.5 7.2-5.3.6-1 .6-2.1.4-3.1-.3-1.5-.7-2.9-1.1-4.3-.1-.4-.3-.9-.4-1.3-.4-1.3-.2-2.6.7-3.6 1.2-1.4 2.7-2.5 4.3-3.5.1 1-.2 1.8-.7 2.4-1.7 2.2-1.4 4.4-.4 6.7l1.8 3.9c1.1 2.3.6 4.3-1 6.1-.9 1-1.8 1.8-2.7 2.7-.4.4-.9.8-1.4 1.3-1.5 1.4-2.2 3.2-2.2 5.2 0 1.9.1 3.8.2 5.9.4-.1.7-.2 1-.4 3.2-1.6 6.5-3.2 9.7-4.9.8-.4 1.6-.9 2.3-1.4 3.3-2.3 4.5-5.5 3.6-9.3-.4-1.6-1-3.1-1.5-4.6-.5-1.7-1.1-3.4-1.5-5.1-.6-2.9.3-4.9 2.9-6.4 1.7-1 3.6-1.8 5.4-2.7 1.5-.8 3-1.7 4.5-2.5 1.3-.7 1.8-1.8 1.8-3.2 0-.7.2-1.3.2-2 .1-1.4.8-2.5 1.8-3.3.9-.7 1.8-1.3 2.7-2 .1.1.2.1.3.2-.1.6-.1 1.3-.3 1.9-.4 1.8-.3 3.5-.1 5.3.2 1.2.2 2.5.3 3.7.1 1.7-.5 3.2-1.7 4.4-.7.7-1.3 1.4-2 2-1.5 1.6-2.3 3.4-2.2 5.6.1 3 .9 5.9 2.1 8.7.9 2 2.1 4 2.9 6.1 1.1 2.6 2 5.3 2.9 7.9.3.8.6 1.6.8 2.4.3 0 .5.1.7 0l5.4-1.8c.4-.2.8-.4 1.2-.7 1.9-1.2 2.6-2.8 2.2-5-.1-.8-.3-1.6-.4-2.3-.4-3.3 1.1-5.8 4.2-7 .8-.3 1.6-.5 2.5-.8 0 .8-.4 1.3-.8 1.8s-.8.9-1.3 1.3c-.9.8-1.4 1.9-1.2 3.1.3 2.2.5 4.5.9 6.7s-.3 3.9-2.1 5.2c-.9.6-1.9 1.2-2.9 1.7-.8.5-1.7.9-2.5 1.4-2.6 1.6-4.1 4-4.5 7-.1 1-.1 2-.2 3.1 3.5-1.4 7.2-1.5 10.7-2.2 1.1-.2 2.2-.5 3.2-.9 4.4-1.6 6.2-4.5 6-9.1-.1-2.9-.3-5.9-.4-8.8 0-.5 0-1.1.2-1.6.4-1.9 1.6-3.3 3.5-3.9 1.7-.6 3.4-.9 5.2-1.3 1.7-.4 3.4-.6 5.1-1 2.4-.5 3.9-1.9 4.6-4.3.9-2.8 2.9-4.1 6.1-3.9-.3.4-.4.8-.7 1.1-1.1 1.2-1.3 2.6-1.5 4.1-.1 1.4-.2 2.7-.5 4.1-.6 2.4-1.9 4.3-4.1 5.6-.9.5-1.7 1.1-2.6 1.7-2 1.3-3 3.2-3.3 5.6-.4 3.1.1 6 .8 9 1.2 4.9 1.9 9.9 2 15 0 .3 0 .6.1.9 2.6.1 5 .2 7.4-.6 2-.7 3.2-2.1 3.7-4.2.3-1.1.5-2.3.7-3.4.1-.3.2-.6.2-1 .5-2 1.7-3.2 3.8-3.5 1 .4 2.3.2 4 .4zM256.3 273.8H131.6c-.5 0-1 0-1.5.1-5.6.5-10.1 5.4-8.7 11.5 1.1 4.7 2.2 9.4 3.7 14 3.9 12.1 9.3 23.4 16.3 34 11.1 16.6 25.2 30.1 42.3 40.5 18 10.9 37.6 17.3 58.6 19.4 7.4.7 14.9.8 22.3.4 6-.4 12-1.1 17.9-2.3 15.2-2.9 29.5-8.3 42.9-16.1 14.7-8.5 27.3-19.4 38-32.6 13.7-17 22.9-36.2 27.5-57.6.7-3.3-.1-6.1-2.5-8.4-2.1-2-4.6-2.8-7.5-2.8h-71.4c-17.8-.1-35.5-.1-53.2-.1zm-.2-13.3c0 .1 0 .1 0 0h127.5c.9 0 1.8 0 2.6-.2 4.4-.8 7.7-4.5 7.8-9.4 0-1.7-.2-3.5-.4-5.2-.5-5.8-1.3-11.6-2.5-17.4-3.3-15.8-9.3-30.6-17.8-44.4-7.8-12.7-17.4-23.8-28.8-33.4-8-6.7-16.6-12.6-25.9-17.3-11.6-6-23.8-10.2-36.6-12.7-6.1-1.2-12.3-2-18.5-2.3-5.4-.3-10.8-.3-16.2.1-4.4.3-8.8.8-13.2 1.5-12.9 2.1-25.1 5.9-36.9 11.6-15.5 7.4-29.1 17.4-40.9 29.9-4.6 4.9-8.9 10.1-12.8 15.6-10.5 15-17.8 31.4-21.8 49.3-1.2 5.4-2.2 10.9-2.6 16.5-.2 2.4-.3 4.9-.5 7.3-.3 2.6.4 4.9 2 6.9 2 2.4 4.6 3.6 7.8 3.6h127.7z"/><path class="st0" d="M285.8 313.1c1.6-3.4 2.2-6.9 2.8-10.3l2.1-10.5c.4-1.9.7-3.8.6-5.8 0-.7 0-1.3.1-2 .1-.4.2-.7.4-1 .6-1 1.7-1 2.2.1.5 1.1.9 2.2 1.3 3.4.4 1.6 1.2 3.1 1.8 4.6.4.8 1 1.6.9 2.5 0 .1 0 .2.1.2 1.3 2.8 2.6 5.6 4 8.3.2.4.7.7 1.1 1.2.5-.4.9-.8 1.2-1.2.4-.5.7-1 .9-1.6 1.7-3.7 3.3-7.5 5-11.2.9-2 1.9-4 2.6-6 .2-.6.8-1.2 1.3-1.6.9-.7 1.6-.3 1.7.8v.5c0 5.2.7 10.4 1.5 15.5.5 3.4 1 6.7 1.6 10.1.2.9.5 1.8.7 2.7.1.2.1.5.2.7-1.1.6-2.1 1.4-3.6 1.2-.1-.6-.3-1.3-.3-2-.1-2.2-.1-4.3-.3-6.5-.1-1.6-.4-3.2-.6-4.8-.3-2.7-.6-5.4-1-8.2-.1-.9-.3-1.9-.5-2.8-.1-.4-.3-.8-.5-1.4-.2.3-.4.4-.5.5-2.4 4.9-4.9 9.7-7.3 14.6-.4.8-.6 1.7-.8 2.6-.1.5-.3.9-.6 1.3-.4.5-.6 1-.9 1.5-.3.5-.6.6-1 .3-.3-.3-.7-.5-.9-.8-.5-1-1-2.1-1.5-3.1-.2-.5-.3-1.1-.6-1.6l-5.1-11.7c-.3-.7-.7-1.5-1.3-2.2-.1.4-.3.7-.4 1.1-.9 4.5-1.8 9-2.6 13.5-.4 1.9-.6 3.8-.8 5.7-.1.8 0 1.6 0 2.4-.1.8-1.2 1.9-1.9 1.8-.2 0-.6-.5-1.1-.8zm66.9.1c-.7.1-1.2.1-1.8.2-1.1.1-1.7-.6-1.6-1.7.3-2.5.7-5 .7-7.5.1-3.4 0-6.7 0-10.1 0-1.2-.3-2.3-.4-3.5-.1-.3-.2-.7-.4-1.3-.5.6-.9 1-1.3 1.4-3 3.6-5.9 7.2-8.9 10.7-2.5 3-5.2 5.9-7.8 8.8-.3.4-.5.8-.8 1.2-.6.7-1.3 1.5-2 2.2-.6.5-1.1.3-1.4-.3-.2-.4-.4-.8-.5-1.3-.1-.6-.1-1.2 0-1.7.9-4.5.5-9.1.3-13.7-.1-1.2-.1-2.5-.1-3.7 0-2.9-.3-5.8-1.2-8.6v-.7c.8 0 1.5-.1 2.2 0 .9.1 1.3.8 1.3 1.8-.1 1.1-.1 2.1-.1 3.2v.1c-.7 3.1 0 6.3-.1 9.4-.1 2.9 0 5.7 0 8.6 0 .4 0 .7.1 1.4.5-.4 1-.7 1.3-1 1.9-2.1 3.8-4.2 5.6-6.4 2.6-3 5.2-6.1 7.7-9.2 1.8-2.2 3.6-4.6 5.4-6.8.3-.3.5-.7.8-1 .3-.4.7-.7 1.2-.5.5.2 1 .6 1 1.2v2c.1 1.7.1 3.4.2 5.1.1 4.2.1 8.3.2 12.5 0 .4.2.9.2 1.3 0 .5-.1 1 0 1.6.2 1.4.5 2.8.7 4.3-.1 1-.2 1.2-.5 2zM233.5 311c.4-.8.9-1.5 1.4-2.3 3.5-6.2 6.5-12.6 9.3-19 .4-.8.8-1.7 1.1-2.5.3-.6.5-1.3.6-2 .4-1.6 2-2.7 3.7-2.4.6.1.7.6.8 1.1.8 2.8 1.6 5.6 2.5 8.4 1 3.1 1.9 6.3 3 9.4.7 2 1.6 3.8 2.4 5.7.3.8.6 1.6 1 2.3.4.6.9 1.2 1.4 1.7.7.7 1.1 1.6 1 2.6-.1.8-1 1.4-1.9 1.1-1.7-.6-3.4-.5-5-.6-3.5-.2-7.1-.1-10.6-.1-2.3 0-4.6-.1-7-.2-1.6-.1-3.2.2-4.8.7-1.1.3-1.8-.2-1.8-1.3 0-.2 0-.3.1-.5.1-2 1-2.6 2.8-2.1zm23.2.7c-.3-1.2-.6-2.2-.9-3.2-1.3-4.2-2.7-8.3-4-12.4-.7-2-1.5-4.1-2.3-6.1-.4-1-.9-1.8-1.8-2.5-1 .5-1.5 1.4-1.9 2.3-1 2.1-2 4.3-2.9 6.5-1.9 4.3-3.8 8.7-5.7 13-.3.7-.5 1.4-.7 2.1 1.9.1 3.5.3 5.2.4h10c1.6-.1 3.2-.1 5-.1zm12 44.4c-1.2-.1-2.5-.1-3.7-.3-.8-.1-1.5-.5-2.2-.7-.4-.2-.9-.3-1.3-.5-.5-.2-.9-.5-1.4-.8-.1-.1-.2-.2-.4-.3-2.5-1-3.7-3-4.4-5.4-1-4-1-7.9.8-11.7.4-1 .8-2 1.3-3 .4-.7 1-1.3 1.6-1.9 1.1-1.2 2.2-2.3 3.7-3.1 1.4-.8 2.8-1.6 4.3-2 2.3-.6 4.5-1.1 7-.6 1.8.4 3.6.4 5.3 1.3.6.3 1.3.6 1.8 1.1 3.1 3.3 4.4 7.1 4 11.6-.3 3.8-1.9 7.1-3.9 10.1-2.7 4.1-6.7 6.1-11.6 6.2-.4-.1-.7-.1-.9 0 0-.1 0-.1 0 0zm-11.5-13c.1 1.7.3 4.2 2.3 6 .1.1.1.1.1.2.7 1.3 1.8 2.1 3.1 2.6.8.3 1.6.6 2.5.9 2.9.9 5.8 1.3 8.7.3 1.2-.4 2.4-.9 3.2-1.8.7-.7 1.4-1.3 2.1-1.8.2-.1.4-.4.5-.6.3-.7.5-1.4.8-2.1 1.7-3.6 2.3-7.3 1.4-11.1-1-4.2-3.4-7-7.8-7.8-1.1-.2-2.2-.2-3.3-.4-.5-.1-1 0-1.4.4-.3.2-.7.5-1 .4-.8-.1-1.5.1-2.1.6-.2.2-.5.1-.8.2-1.4.2-2.6.8-3.5 1.7-1.8 1.8-3.3 3.9-4 6.3-.6 1.6-.9 3.4-.8 6zm68.2-5.2c1.1.5 2 .9 2.9 1.4 4.6 2.3 4.7 7.1 3.4 10.1-.8 1.9-2.2 3.3-4.1 4.4-1.8 1-3.6 1.3-5.5 1.8-2.1.5-4.3.2-6.4.5-.3-1-.1-1.9-.1-2.9.1-2.1.4-4.1.4-6.2.1-4.4.2-8.8.2-13.2 0-2.1-.3-4.2-.5-6.3 0-.3-.1-.7-.1-1 0-.7.3-1.1.9-1.3.4-.1.9-.3 1.1-.3 1.1.2 2.1.3 3 .5 1.5.2 3 .3 4.4.6 2.9.6 4.5 2.6 4.5 5.4 0 .6-.2 1.2-.4 1.8-.5 1.5-1.5 2.7-2.6 3.7-.3.3-.7.6-1.1 1zm4.6 8.6c0-1.6-.5-3-1.6-4.2-1.4-1.5-3.1-2.2-5-2.5-.5-.1-1-.2-1.5-.1-.5.2-.8.2-1.2-.1-1-.5-1.7 0-1.9 1.1-.1.5-.1 1-.1 1.5s.1 1 0 1.5c-.3 3.2-.3 6.4-.1 9.6.1.8.2 1 1 1.1.9.2 1.9.7 2.9 0 .1-.1.3 0 .5 0 .5-.1 1.1-.2 1.6-.4 3.3-1.4 5.1-4 5.4-7.5zm-11.5-15.4c.1 0 .1 0 0 0 .2 1.9.2 3.7.3 5.6.1 1.3.6 1.7 1.8 1.3 1-.3 1.8-.8 2.9-.9.2 0 .4-.2.5-.3.5-.4.9-.8 1.3-1.3 1.9-2 1.5-4.9.4-6.5-.5-.6-1-1.2-1.7-1.6-1-.5-2-.7-3.1-.9-1.2-.3-1.9.2-2.1 1.5-.1 1.1-.2 2.1-.3 3.1zM154 282c.9 4.1 1.2 5.1 4.6 12.8 1.9 4.3 3.9 8.6 5.8 13l.9 1.8c.2.4.5.9.6 1.4.5 1.3.3 1.7-1 2.2-.7.2-1.4.4-2.3.7-.1-.5-.1-.9-.2-1.3-.1-.7 0-1.3-.2-2-.6-2.4-1.6-4.5-2.7-6.7-.6-1.2-.7-1.2-2.1-1-.2 0-.4 0-.6-.1-1.7-.4-3.4-.2-5.2.1-1.1.2-2.3.2-3.4.1-1.7-.2-3.4.3-5 .7-.6.1-1.1.6-1.4 1.3-.8 1.9-1.7 3.7-2.5 5.6-.2.4-.2 1-.4 1.4-.3.8-.5 1.7-.9 2.4-.2.5-.6.7-1.2.5-.9-.3-1.8-.5-2.8-.7-.3-.7 0-1.1.4-1.5 1.5-1.7 2.8-3.5 4-5.4.7-1.1 1.4-2.1 2-3.2.4-.6.6-1.3.9-1.9l2.4-3.9c.9-1.5 1.7-2.9 2.6-4.4.9-1.5 1.8-2.9 2.6-4.4.7-1.3 1.3-2.7 2-4 .3-.6.6-1.3.9-1.9.5-.9 1.4-1.1 2.2-1.6zm-1.9 5.2c-.9.7-1.3 1.6-1.8 2.4-1.5 2.6-3 5.2-4.4 7.8-.4.7-.8 1.5-1.1 2.2-.4.9-.2 1.2.7 1.4 1 .2 2 .4 3 .3 2.2-.3 4.4-.3 6.5-.4.6 0 1.2-.1 1.8-.2 1-.2 1.1-.5.7-1.4-1.2-2.9-2.3-5.9-3.5-8.8-.3-.8-.7-1.5-1.1-2.2-.2-.5-.5-.8-.8-1.1zm223.8 13c.1 1.1-.4 1.7-1.2 2.3l-9.3 6c-1.6 1-3.1 2.1-4.4 3.5-.5.5-.9 1.2-1.8.9-.8-.3-1.4-1.3-1.5-2.3 0-.1 0-.2.1-.3 1.6-.5 2.9-1.6 4.3-2.6.7-.5 1.5-.8 2.2-1.3 2.1-1.4 4.3-2.8 6.4-4.2.6-.4 1.2-.9 1.5-1.5-.2-.7-.7-.8-1.2-1.1-1.3-.7-2.7-1.4-3.8-2.3-3-2.4-3.7-6-2.1-9.3.5-1.1 1.3-1.9 2.3-2.6 2-1.3 4.3-1.9 6.6-2 1.5-.1 3 .1 4.5.2 1 .1 1.1.3 1.1 1.3s-.2 2.1-.2 3.1c0 6.5-.1 13.1 0 19.6 0 1.3.5 2.6.7 3.9.1.4.2.9.1 1.3-.2.9-.6 1.1-1.5.9-1.8-.4-1.8-.4-1.8-2.3l.3-8.7v-2.1c0-2.4-.1-4.7-.1-7.1 0-2.2-.1-4.3-.1-6.5 0-.3 0-.6-.1-.9-.1-.9-.5-1.3-1.4-1.4-2.3-.2-4.4.2-6.2 1.6-1.1.9-1.7 2.1-1.9 3.5-.1 1.1-.1 2.2 0 3.2.3 2.2 1.6 3.8 3.5 4.9 1.3.7 2.7 1.1 4 1.7.3.3.7.5 1 .6zm-179.4 13.7c-.2-.6 0-1.1.4-1.4 1.6-1.7 2.8-3.6 4-5.5.6-1 1.3-2 1.9-3.1l.6-1.2c.5-.9 1-1.9 1.6-2.8 1.4-2.3 2.7-4.6 4.1-6.9.8-1.4 1.7-2.7 2.5-4.1.7-1.2 1.2-2.4 1.8-3.7.3-.6.5-1.2.8-1.8.4-.8 1.3-1 2.1-1.5.2.9.3 1.7.5 2.5.6 1.8 1.2 3.5 2 5.3 2.7 6.2 5.5 12.4 8.3 18.6.2.5.5.9.7 1.3.2.5.5 1.1.7 1.6.2 1 0 1.3-.9 1.7-.7.2-1.3.4-2 .6h-.6c0-.4-.1-.8-.1-1.2 0-.4.1-.9 0-1.3-.6-2.6-1.7-5-2.9-7.4-.5-1.1-.7-1.1-2.1-.9-.2 0-.4 0-.6-.1-1.7-.4-3.4-.2-5.1 0-1.2.2-2.4.2-3.5.1-1.7-.2-3.4.3-5 .7-.6.2-1.1.6-1.4 1.3-.7 1.7-1.5 3.3-2.3 5-.3.6-.4 1.4-.6 2-.3.9-.6 1.7-1 2.5-.1.2-.6.5-.8.4-1.1-.1-2.1-.4-3.1-.7zm23.6-13.9c-.1-.3-.2-.7-.3-1-.8-2.1-1.6-4.1-2.4-6.1-.6-1.5-1.3-3-2-4.4-.2-.5-.4-1-1.2-1.1-.4.7-.9 1.4-1.4 2.1-1.6 2.7-3.1 5.4-4.6 8.1-.4.7-.8 1.4-1.1 2.1-.3.8-.1 1.2.7 1.4 1.1.2 2.3.2 3.4.2.9 0 1.8-.2 2.7-.3 1.6-.1 3.1 0 4.7-.1.5-.2 1.1-.3 1.5-.9zm16.8 55.2c-1.4.2-2.6 1.2-4 .2 1.1-2.3 1.2-4.8 1.1-7.3 0-.2.1-.5 0-.6-.5-1-.3-2 0-3.1.1-.3 0-.6 0-.9v-12c0-.9-.2-1.7-.2-2.6 0-.8 0-1.6.1-2.3 0-.3.3-.6.6-.7.4-.2.9-.3 1.3-.3 2.6-.1 5.2-.2 7.8.3 1.5.3 3 .8 4.3 1.6 2 1.3 2.8 3.1 3.1 5.4.6 5-4.7 11-9.2 12.2-1.1.3-2.2.5-3.3.7-1.5.4-1.9.7-1.9 2.3 0 1.9.2 3.9.3 5.8v1.3zm-.2-10.9c3.4-.8 6.6-1.4 9.1-4.1 2.1-2.4 2.7-5.1 2.3-8.1-.1-.6-.4-1.3-.8-1.8-1.6-1.7-3.4-3-5.9-3.2-1-.1-2-.1-3-.1-1.3 0-1.7.5-1.7 1.8v.6c0 4.5.1 9.1.1 13.6-.1.4-.1.8-.1 1.3zm-27.9 11.8c.7-5.2.7-10.1.6-15-.1-4.9.4-9.7-.3-14.7 1.3-.4 2.4-1.2 4-.5 1 .4 2.2.3 3.3.3 1.9 0 3.7.1 5.6 0 1 0 2.1-.2 3.1-.3.6 0 1.1.1 1.8.1 0 .6 0 1-.1 1.3-.2 1-.5 1.3-1.5 1.2-.7 0-1.3-.2-1.9-.3-1.3-.2-2.7-.6-4-.6-1.9-.1-3.9 0-5.8.1-.5 0-.8.3-.9.8-.2 2.1-.6 4.3-.7 6.4 0 1 .4 2 .6 3 0 .2.3.4.5.5 1.3.2 2.6.6 4 .4 1.9-.3 3.9-.3 6.1-.4 0 .6.1 1.2 0 1.8-.1.8-1 1.4-1.8 1.1-2.4-.9-4.9-.5-7.3-.7-1.4-.1-1.9.2-2.1 1.6-.2 1.3-.3 2.7-.3 4.1 0 2.1.2 4.2.3 6.2.1 1.1.3 1.3 1.3 1.3s1.9-.1 2.9-.1c1.1 0 2.2-.1 3.2-.1 2.3 0 4.5-.3 6.6-.9.2-.1.5 0 .7 0-.1.8-.1 1.5-.1 2.1 0 .6-.4.8-.9.8-1.2 0-2.5 0-3.7-.1l-5.1-.3c-1.7-.1-3.3-.1-5-.1-.6 0-1.1.2-1.7.3-.4.4-.7.5-1.4.7zm100.6-3.3c0 .8-.1 1.5-.1 2.2 0 .5-.3.8-.9.8-1.3 0-2.7 0-4-.1-1.4-.1-2.9-.2-4.3-.2-1.8-.1-3.6-.1-5.5-.1-.6 0-1.1.2-1.7.3-.4.1-.8.2-1.2.4 0-.9-.1-1.7 0-2.4.4-3 .5-6 .4-9.1V330c0-.8-.1-1.6-.3-2.3-.2-1.1-.1-1.2 1-1.6 1-.4 1.9-.5 3-.1.9.3 2 .3 3 .3h6c.9 0 1.8-.2 2.7-.2.1 0 .2-.1.4-.1.6-.1 1.3-.2 1.6.4.2.4 0 1.1-.1 1.7-.1.5-.5.7-.9.7-.6 0-1.3.1-1.8-.1-1.7-.7-3.4-.8-5.1-.8-1.7-.1-3.4.1-5.1.1-.7 0-1.1.3-1.1 1-.2 2-.6 4-.6 5.9 0 1.1.4 2.2.6 3.3 0 .2.3.5.5.5 1.3.2 2.4.7 3.8.5 1.7-.3 3.5-.3 5.3-.5h1.1v1.4c0 1-.5 1.4-1.4 1.5h-.5c-2.4-.9-4.9-.5-7.4-.7-1.1-.1-1.6.3-1.9 1.5-.5 2-.4 4.1-.3 6.2.1 1.5.2 2.9.3 4.4.1 1 .3 1.3 1.3 1.2 3.5-.2 7 0 10.4-.6.8-.1 1.6-.4 2.4-.6 0-.2.2-.2.4-.2zm-42-56.9c2.4.8 4.7.8 7 .4 1.1-.2 2.2-.2 3.5-.3v1.3c0 1.2-.8 2-1.9 1.6-2.4-.9-4.9-.5-7.4-.7-1.3-.1-1.6.3-1.9 1.5-.5 1.8-.3 3.7-.3 5.6 0 1.7.2 3.3.3 5 .1.9.3 1.2 1.3 1.2.8 0 1.6.1 2.4 0 3-.3 6.1 0 9-.7.7-.2 1.3-.3 2.1-.5-.1.9-.1 1.6-.2 2.4-.1.5-.4.7-.9.7-1.2 0-2.4.1-3.6-.1-2.5-.4-5.1-.2-7.6-.3-.9 0-1.7-.1-2.6-.1-.6 0-1.2.2-1.8.4-.3.1-.7.2-1.2.4 0-.9.1-1.7.1-2.4.1-2 .4-4.1.4-6.1.1-4.7.2-9.4.1-14.1 0-2.1-.2-4.2-.4-6.3 0-.6.1-.8.6-1 1.1-.4 2.2-.5 3.5-.3 1.7.3 3.6.2 5.3.2h2.7c.7 0 1.3-.1 2-.1 1 0 1.9-.2 2.9-.1.7 0 .8.2.8.9-.2 1.6-.7 2-2.2 1.7-.7-.1-1.3-.4-2-.5-3-.5-6-.6-9.1-.3-.6.1-.9.3-1 .9-.2 2.2-.6 4.4-.6 6.6 0 1.1.4 2.1.7 3.1zm-77 32.5c-.1.9-.3 1.8-.2 2.7 0 3.3.2 6.6.2 9.8 0 1-.1 1.9-.1 2.9.1 2.9.3 5.9.4 8.8 0 .4.2.7.4 1.1.1.2.2.3.2.5.2.8-.7 1.7-1.9 2-1.2.3-2-.1-2.3-.9-.1-.2-.1-.4 0-.6 1.2-2.5.9-5.2.8-7.8-.1-2.9-.1-5.7-.1-8.6l-.3-7.5c-.1-1.3 0-2.6-.5-3.8-.1-.3 0-.8.1-1 1-.1 1.9-.2 2.7-.3h.5c.8.6 1.7.4 2.5.4 2.4.1 4.8.2 7.2.2.7 0 1.4-.3 2.1-.5.1 0 .2-.1.4-.1.6-.1 1.2-.4 1.6.2.4.6.5 1.3.2 2-.1.2-.5.4-.7.5-1 .2-2.1.1-3.1-.2-2.8-.8-5.6-.4-8.4-.1-.6.1-1 .2-1.7.3zm1.5-44.5c.4 1.2.3 1.6-.5 2.2-1.3 1-2.4 2.1-3.3 3.5-1.2 1.8-2.7 3.5-4 5.2l-.9.9c-.6.7-1.2 1.4-1.7 2.1-.5.7-.3 1.5.2 2.1.5.5 1.1 1 1.7 1.5 2 1.6 4.1 3.2 6.1 4.7 1.3.9 2.6 1.8 3.9 2.6.7.4 1.5.5 2.2.7.8.2 1 .4 1 1.1 0 .4 0 .8-.2 1.2-.5 1.4-2.2 2.3-3.7.7-1-1.1-2.2-2.2-3.4-3.1-2.4-1.9-4.8-3.6-7.2-5.4-1.1-.8-2.4-1.5-3.6-2.2-.5-.3-1.1-.6-1.6-1-.6-.5-.6-1.2 0-1.7.9-.7 1.5-1.7 2.7-2.1.8-.3 1.4-1 1.9-1.7 2.6-3.5 5.1-7 7.7-10.5.8-.9 1.7-.8 2.7-.8zm-16.1 23.7v3.4c0 .5 0 1-.1 1.5-.2.8-.5 1-1.3.9h-1.1c-.8 0-1-.3-1-1.1 0-.2 0-.5.1-.7 1-2 1.1-4.2 1.1-6.3.1-5.1 0-10.2 0-15.3 0-1.4-.2-2.9-.4-4.3-.1-.5 0-.9.4-1.2.5-.3 1.1-.7 1.6-.9.3-.1 1-.2 1.1 0 .3.3.5 1 .4 1.3-.7 1.3-.4 2.7-.4 4-.1 4.3-.2 8.6-.3 13 0 1.9-.2 3.8-.3 5.7h.2zm66.8-51.1c-.7-1.5-1.1-3.2-1.4-4.9-.6-3.4-.9-6.8-1.1-10.3-.6-9.8-.5-19.6-.5-29.4 0-3.6.1-7.2.3-10.7.4-7.1 1.1-14.2 2.9-21.1.9-3.3 2-6.4 3.8-9.3 1.3-2 2.8-3.8 4.9-5 4.4-2.6 10.2-2 14.1 2.5 2.3 2.7 3.7 5.8 4.8 9.1 1.5 4.5 2.3 9.2 2.8 13.9.3 3.3.6 6.5.7 9.8.2 4.5.2 9 .3 13.5 0 6.1 0 12.2-.1 18.2-.1 5.9-.4 11.9-1.2 17.8-.3 1.8-.7 3.6-1.1 5.3-.1.5-.4.9-.8 1.3-.1-.5-.2-1.1-.2-1.6-.1-4.4-.7-8.8-1.3-13.1-.8-5.1-1.8-10.1-3.5-14.9-.8-2.1-1.7-4.2-2.7-6.3-.8-1.7-1.9-3.1-3.4-4.2-2.7-2-5.7-1.7-7.9.8-1.7 1.9-2.8 4.2-3.7 6.6-1.8 4.5-2.8 9.2-3.7 14-.7 3.8-1.1 7.6-1.3 11.4-.1 2.2-.4 4.5-.5 6.7-.1-.2-.2-.2-.2-.1z"/><path class="st0" d="M302.2 256.8c-.1-.9-.3-1.8-.4-2.6-.5-8.4-1.9-16.7-4.3-24.7-.7-2.3-1.6-4.7-2.9-6.7-.6-.9-1.2-1.8-2-2.6-2-2.2-6-2.7-8.4.4-1.1 1.4-2 3-2.8 4.7-2.1 4.5-3.3 9.3-4.1 14.2-.7 4.1-1.2 8.3-1.3 12.5 0 1.4-.1 2.8-.2 4.2 0 .2 0 .4-.1.9-.3-.6-.5-.8-.7-1.2-.8-2.3-1.2-4.7-.9-7.2.5-3.9.9-7.8.9-11.8.1-4.5.3-9 .4-13.5 0-3.7-.2-7.3-.4-11 0-1.2-.1-2.5-.1-3.7-.1-3.6-.2-7.2-.3-10.7 0-1.8-.1-3.6-.2-5.4-.1-1.8 0-3.5.6-5.2.9-2.9 1.8-5.7 2.9-8.5 1-2.5 2.5-4.7 4.6-6.4 1.8-1.4 3.8-2.2 6.1-2.2 1.3 0 2.6-.1 3.8.3 2.1.7 3.8 2.1 5.1 3.8 2 2.5 3.1 5.5 4.1 8.5 1.1 3.5 1.8 7.2 2.2 10.9.4 4 .9 7.9 1 11.9.2 8.3.2 16.6.3 25 0 2.5-.1 4.9-.3 7.4-.3 4.6-.7 9.2-1.2 13.8-.2 1.7-.8 3.3-1.2 4.9.1.1-.1.1-.2 0zm-63.9.3c-.1-2.5-.2-4.8-.4-7.1-.7-7.5-1.7-15-4.2-22.2-.6-1.8-1.5-3.6-2.4-5.3-.5-.9-1.2-1.8-2-2.5-2-1.9-4.8-2.1-7.1-.4-1.5 1.1-2.5 2.6-3.3 4.2-1.7 3.2-2.7 6.6-3.6 10.1-1.2 4.9-2 9.8-2.6 14.8-.3 2.8-.6 5.5-.9 8.4-.6-.2-.7-.7-.8-1.2-.4-1.7-.8-3.4-1-5.1-.4-3.9-.6-7.9-.8-11.8-.5-8.7-.5-17.5-.4-26.2 0-7 .4-14 1.5-20.9.7-4.6 1.7-9.2 3.7-13.4 1.1-2.3 2.5-4.4 4.6-6 1.7-1.3 3.5-1.9 5.6-2 4.3-.2 7.4 1.6 9.7 5 1.6 2.2 2.7 4.7 3.5 7.3.8 2.5 1.5 5 1.9 7.5.3 1.7.1 3.5.1 5.2-.1 2.1-.4 4.2-.5 6.3-.3 7.7-.5 15.5-.4 23.2 0 4 .1 7.9.3 11.9.2 4.6.4 9.1 1.1 13.7.2 1.4-.6 4.8-1.6 6.5z"/><path class="st0" d="M183.6 256.8c-.2-.7-.5-1.5-.6-2.2-.7-3.7-1.1-7.5-1.3-11.2-.6-8.5-.5-17-.5-25.6 0-3.4.2-6.9.5-10.3.3-3.6.6-7.1 1.1-10.7.5-3.8 1.4-7.6 3-11.2.8-1.8 1.8-3.5 3.1-4.9 3.9-4.2 9.8-3.5 13.3-.1 1.6 1.6 2.7 3.5 3.6 5.5 1.3 3.1 2.2 6.4 2.7 9.7.2 1.7 0 3.5-.1 5.2-.7 9.8-.6 19.6-.5 29.4 0 3.2.1 6.5.3 9.7.2 3.3.4 6.5.8 9.8.3 2.3-.2 4.4-1 6.7-.1-.6-.3-.9-.3-1.3-.2-2.8-.3-5.6-.6-8.4-.6-6.7-1.9-13.3-4.7-19.5-.5-1.2-1.4-2.3-2.1-3.4-.1-.2-.3-.4-.5-.6-2.1-2.2-4.7-2.3-6.9-.2-1.4 1.3-2.4 3-3.2 4.7-1.6 3.5-2.5 7.3-3.3 11.1-1 4.8-1.7 9.7-2.2 14.6-.1 1 0 2.1 0 3.1-.4.1-.5.1-.6.1zm146.5-.2c-.2-1.7-.4-3.4-.5-5.1-.7-6-1.4-12-3-17.9-.7-2.5-1.5-4.8-2.8-7.1-.8-1.3-1.7-2.6-2.9-3.5-2.4-1.7-5-1.4-6.9.9-1.8 2.2-2.8 4.7-3.6 7.3-1.5 4.7-2.5 9.6-3 14.5-.4 3.6-.7 7.3-1 11-.1-.2-.3-.5-.4-.7-.7-2.2-1-4.3-.7-6.6.4-3 .5-6 .6-8.9.2-3.8.4-7.6.4-11.3.1-5 .1-10 0-15 0-3.8-.2-7.6-.3-11.4-.1-1.5-.4-3-.4-4.5 0-4 1.1-7.7 2.6-11.4.7-1.7 1.6-3.3 2.6-4.8 1.9-2.7 4.4-4 7.9-4 3 0 5.3 1.2 7.1 3.5.9 1.2 1.6 2.4 2.2 3.7 1.7 3.6 2.6 7.5 3.2 11.5.8 4.8 1.3 9.7 1.3 14.6.1 7 .2 14.1.1 21.1 0 3.7-.4 7.3-.4 11-.1 3.3-.4 6.5-1 9.8-.2 1.1-.5 2.2-.8 3.4 0-.1-.2-.1-.3-.1z"/><path class="st0" d="M160.3 257c-.8-1.3-.9-2.5-1.1-3.6-.3-3.5-.7-6.9-.8-10.4-.2-7-.3-14-.2-21 0-6.4.5-12.8 1.8-19.1.6-3.1 1.4-6.1 2.9-8.9.8-1.6 1.8-3 3.2-4.1 1.2-.9 2.5-1.4 4-1.5h1.7c1.7 0 3.2.6 4.4 1.7 2.5 2.3 4 5.3 4.8 8.6.1.3.1.7.1 1-.1 2.6-.2 5.1-.4 7.7-.6 8.7-.5 17.4-.4 26.1 0 4.9.4 9.8.7 14.7.1 2.1.6 4.1.9 6.2.1.9.3 1.7-.4 2.7-.1-.5-.2-.8-.2-1.2-.2-6.5-1.3-12.9-3.1-19.1-.7-2.4-1.6-4.8-3-7-.5-.7-1-1.4-1.6-2-1.9-1.8-4.5-1.7-6.2.1-.8.9-1.5 2-2.1 3.1-1.5 2.9-2.3 6.1-3 9.2-.8 3.8-1.4 7.7-1.6 11.6-.1 1.6-.3 3.3-.4 5.2zm193.3 0c-.2-1.6-.4-3-.5-4.3-.4-4.8-1-9.5-2.3-14.1-.8-2.7-1.6-5.4-3-7.9-.7-1.1-1.5-2.1-2.6-2.8-1.9-1.2-3.6-1.1-5.3.4-1.3 1.1-2.1 2.6-2.8 4.1-1.5 3.2-2.4 6.6-3 10-.2.8-.3 1.6-.7 2.4v-.6c.1-3.5.2-6.9.2-10.4.1-5.3.2-10.6.2-15.8 0-5.1-.1-10.1-.7-15.2-.2-1.4 0-2.8.5-4.2.8-2.1 1.7-4.1 3.1-5.8 2.4-2.8 5.3-3.9 8.9-3 1.6.4 2.8 1.4 3.9 2.6 1.9 2.2 3 4.8 3.8 7.5 1.1 3.8 1.7 7.7 2.1 11.6.4 4.1.5 8.2.5 12.3 0 5.5.1 11-.1 16.5-.2 4.7-.4 9.4-1.2 14-.1.7-.3 1.4-.5 2.1-.1 0-.2.2-.5.6zm2.6-.7c-.6-.9-.5-1.9-.4-2.8.3-3.1.6-6.3.9-9.4.1-1.4.1-2.8.1-4.2v-20.3c0-2-.2-4-.3-6-.2-4 1.2-7.5 3.9-10.4 2.1-2.3 6.7-3.1 9.6.8 1.6 2.2 2.4 4.8 3 7.5.7 3.2 1 6.5 1.3 9.7.6 5.6.5 11.2.4 16.8-.1 4.2-.3 8.3-.5 12.5-.1 1.9-.5 3.8-.8 5.7h-.3c-.2-1.6-.4-3.2-.5-4.8-.4-4.2-1.1-8.3-2.5-12.3-.5-1.5-1.3-3-2.1-4.4-.4-.7-1.1-1.3-1.8-1.8-1.3-.9-2.7-.8-3.8.3-.8.8-1.5 1.7-2 2.7-1.5 2.7-2.2 5.7-2.8 8.8-.7 3.5-1.1 7-1.2 10.6-.1.2-.2.6-.2 1zm-198.3.2c-.3-2.8-.6-5.4-1-8-.5-3.5-1.2-7-2.5-10.3-.7-1.7-1.4-3.4-2.7-4.7-1.9-1.9-3.9-1.8-5.5.3-1 1.2-1.6 2.7-2.2 4.2-1.3 3.5-2 7.2-2.5 10.9-.3 2.4-.5 4.8-.7 7.2-.4-.4-.4-.9-.5-1.4-.2-1.5-.4-3-.5-4.6-.5-8.4-.4-16.7-.3-25.1.1-4.7.5-9.5 1.7-14.1.5-1.9 1.1-3.9 2.1-5.6.7-1 1.4-2.1 2.3-2.9 2.7-2.3 6.4-1.8 8.7.9 1.4 1.7 2.2 3.7 2.8 5.8.3.9.4 2 .3 3-.1 3.6-.2 7.2-.3 10.7-.1 4.3-.2 8.6-.2 12.8 0 4.1.3 8.2.5 12.3.1 1.8.5 3.6.7 5.4.2 1.2.3 2.1-.2 3.2zm105.8-105.2c0 1.9-.3 3.7-1.3 5.3-.5.8-1.1 1.6-1.8 2.2-2.3 1.9-5.3 1.5-7.2-.8-1-1.3-1.6-2.8-1.9-4.4-.4-2.2-.3-4.3.6-6.4.3-.8.8-1.6 1.4-2.4 1.8-2.4 4.7-2.7 7-.9 1.9 1.5 2.8 3.5 3.1 5.8 0 .6 0 1.1.1 1.6zm-39.1-.9c1.7-.1 2.9.6 3.8 1.9 2.1 3.2 2.5 6.6 1 10.2-.3.8-.8 1.5-1.4 2.2-2 2.2-4.9 2.2-6.9 0-1.4-1.5-2.2-3.3-2.2-5.4 0-1.7-.1-3.4.7-5 .4-.7.7-1.4 1.2-2 .9-1.4 2.2-2.1 3.8-1.9zm59.2 7.9c-.1-2.6.7-4.8 2.5-6.7 1.3-1.5 5.1-1.6 6.5 0 1.1 1.4 1.9 2.8 2.2 4.5.4 2.3.3 4.6-.8 6.7-.4.8-.9 1.5-1.5 2.1-1.8 1.8-4.5 1.8-6.3.1-1.6-1.5-2.4-3.3-2.5-5.5-.1-.4-.1-.8-.1-1.2zm-93.6 8.4c.1-2.2.6-4.2 2-5.9 1.9-2.2 4.8-2.1 6.5.3 2 2.8 2.4 7.4.2 10.6-.7 1-1.5 1.8-2.7 2.1-1.3.3-2.6 0-3.6-1-1.7-1.6-2.3-3.8-2.4-6.1zm133.5.2c0 2.3-.5 4.4-2.2 6-1.8 1.8-4.1 1.7-5.8-.1-1.2-1.3-1.9-2.7-1.9-4.5-.1-1.5-.1-2.9.3-4.3.4-1.3 1.1-2.4 2.1-3.3 1.5-1.3 3.2-1.3 4.8-.2 1.5 1.1 2.3 2.7 2.6 4.5.1.6.1 1.2.1 1.9zM166.8 178c0-1.1.3-2.6 1.3-4 1.7-2.3 4.3-2.4 6-.1 1.8 2.3 2 6.2.4 8.7-.7 1.1-1.6 1.9-3 2.1-1.6.2-3-.6-3.9-2.2-.5-1.2-.7-2.5-.8-4.5zm181.1 1.1c0 2.1-.4 3.7-1.3 5-1.7 2.5-4.8 2.4-6.3-.2-1.5-2.7-1.6-5.6 0-8.3 1.5-2.6 4.4-2.8 6.2-.4 1 1.3 1.4 2.8 1.4 3.9zm-194.8 14.1c-.1.7-.2 1.5-.4 2.2-.1.5-.4.9-.6 1.3-1.1 1.6-3.3 1.8-4.6.3-1.9-2.1-1.6-6.3.4-8.2 1.1-1 2.6-1 3.7.2s1.5 2.6 1.5 4.2zm215.2-.2c0 1.2-.2 2.4-.9 3.5-1.2 2-3.4 2.2-4.8.3-1.6-2-1.4-5.9.3-7.8 1.2-1.3 2.7-1.3 3.9 0 1 1 1.5 2.4 1.5 4z"/></svg>