<svg id="Видеокамера" xmlns="http://www.w3.org/2000/svg" viewBox="0 0 512 512"><style>.st0{fill:#0098ce}</style><path class="st0" d="M157.5 289.8c37.1-4.5 62.7-25.1 76.2-60.1 4.1-10.8 1.2-9.4 13.7-9.7 3.8-.1 5.6 1.3 7 4.8 13 32.1 43.7 50 78 45.1 33.9-4.9 61.9-33.7 61.2-72.3-.9-51.9-52.3-85-100.4-65.4-27.2 11.1-46.2 41.3-43.7 70 .3 3.8-.8 5-4.5 5.1-4.4.1-6.8-1-6-5.9.2-1.5 0-3 0-4.5 0-1-.2-5.4-.5-8-.4-3.5-.9-6.9-1.6-10.3-.9-4.4-2.2-8.7-3.8-12.9-14.2-37-51-61.9-93.4-58.9-45.1 3.1-83 42.1-84.7 87.4-2.1 56.6 45.7 102.5 102.5 95.6zm164.1-150.7c32.7 0 59.4 26.8 59.4 59.5 0 32.8-26.7 59.4-59.5 59.4s-59.4-26.7-59.4-59.5c-.1-32.7 26.8-59.4 59.5-59.4zM67.9 197.7c.2-43.3 35.8-78.7 79.3-78.6 43.9.1 79.2 35.6 79 79.8-.2 43.9-35.5 79.1-79.2 79.1-44.1-.1-79.3-35.8-79.1-80.3z"/><path class="st0" d="M469.4 235.8c-12.4 3.4-24.7 6.8-37.1 10.2-17.1 4.7-17.2 4.7-18.4 22.5-.2 3.3-1.6 4.4-4.7 4.3-4.5-.1-9 0-13.5 0-7.9 0-8.7.9-8.7-8.3 0-4.4-1.7-7-6-7-4.6 0-6.9 1.6-6.9 6.4v121.9c0 9.1-.1 9.1-9.3 9.1H105.4c-4 .1-5.7-1.8-5.7-5.8.1-8.3 0-16.7 0-25 0-23 0-46-.1-69 0-5.4-2.6-8.3-6.7-8.1-3.8.1-6 2.9-6 8.2 0 31.8-.1 63.6 0 95.5 0 7.9 4.4 14.2 11.2 16 3.3.9 6.9 1.1 10.4 1.1 42.8.1 85.6 0 128.5 0h130.5c13.5 0 19.6-6.2 19.6-19.5 0-13.7.1-27.3 0-41 0-3.6 1.2-5.2 4.9-5.1 5.8.2 11.7.1 17.5 0 3.2 0 4.6 1.3 4.4 4.5-.1 1.5 0 3 0 4.5.1 9.6 3 13.5 12.3 16.1 14.4 4 28.9 8 43.4 12 12 3.3 19.4-2.3 19.4-14.7v-114c0-12.7-7.3-18.2-19.6-14.8zm-60.3 94c-5.8-.2-11.7-.1-17.5 0-3.1 0-4.5-1.3-4.5-4.5.1-11.8.1-23.7 0-35.5 0-3.5 1.5-4.7 4.8-4.7 5.8.1 11.7.1 17.5 0 3.1 0 4.6 1.3 4.5 4.5-.1 6 0 12 0 18 0 5.7-.1 11.3.1 17 0 3.6-1.1 5.3-4.9 5.2zm66.9 37.4c-2-.3-3.5-.4-5-.8-12.9-3.5-25.7-7.2-38.7-10.5-4.1-1.1-5.6-3-5.6-7.3.2-27.5.1-55 0-82.5 0-4 1.2-5.9 5.2-7 12.8-3.3 25.5-6.9 38.2-10.4 1.7-.5 3.8-.7 5.8-1.1.1 40.1.1 79.5.1 119.6z"/><path class="st0" d="M337 303.8c-8.8-.1-17.7 0-26.5 0-9 0-18-.1-27 0-7.5.1-10.6 3.2-10.6 10.7-.1 17.8-.1 35.6 0 53.5 0 7.6 3.4 11 11.1 11 17.7.1 35.3.1 53 0 7.7 0 11.1-3.4 11.1-10.9.1-17.8.1-35.6 0-53.5-.1-7.6-3.3-10.7-11.1-10.8zm-1.7 17.3c-.3 6.6-.1 13.3-.1 20 0 7-.1 14 .1 21 .1 3-.9 4.2-4 4.1-13.8-.1-27.6-.1-41.4 0-3.4 0-4.7-1.3-4.7-4.7.1-13.5.1-26.9 0-40.4 0-3.7 1.5-5 5.1-4.9 13.5.1 26.9.1 40.4 0 3.8-.2 4.8 1.3 4.6 4.9zm-101.1 26.1c2-1.5 4.6-4 4.5-6.1-.1-2-2.8-4.3-4.9-5.8-1.3-.9-3.5-.4-5.4-.4h-95.8c-7.5 0-10.5 1.7-10.7 6.1-.2 4.7 3.1 6.8 10.6 6.8h95.8c2 0 4.5.4 5.9-.6zM130.1 316c16.6.3 33.3.2 49.9.2h28.5c8 0 16 0 24-.1 3.8-.1 6.5-1.9 6.5-6s-2.5-5.9-6.4-6.2c-1.3-.1-2.7-.1-4-.1h-96.4c-1.8 0-3.7-.1-5.5.3-4 .8-6.5 5.2-4.1 8.3 1.6 2 4.9 3.5 7.5 3.6zm35.8 61c1.7 1.3 4.3 1.9 6.4 2 9.7.2 19.3.1 29 .1h30c4 0 7.4-1.3 7.7-6 .3-3.9-2.6-6.4-7.6-6.8-1-.1-2-.1-3-.1h-53.9c-2.3 0-4.7.2-6.8 1-4.2 1.7-5.2 7.2-1.8 9.8zm-39.6-9.9c-1.7.3-4 4.1-4 6.2 0 1.8 2.7 4.3 4.7 5.3 1.9 1 4.5.4 6.9.5 2.5-.1 5.4.5 7.4-.5 2.2-1.1 4.6-3.7 4.9-5.8.2-1.8-2.4-5.4-4.1-5.7-5.3-.8-10.7-.8-15.8 0zM182 196.5c-.9-19.7-17.5-33.8-38.4-32.6-17.5 1-32.4 17.8-31.5 35.7.9 19.5 17.3 34.8 36.1 33.8 20.2-1.1 34.8-16.9 33.8-36.9zm-57.1 2.2c-.1-12.4 10.1-22.6 22.5-22.5 12 .1 21.7 10 21.7 22.2.1 12.5-9.5 22.4-21.9 22.5-12 .1-22.2-9.9-22.3-22.2zM110.5 170c3.7 3 9.3-.5 9.2-5.6-.1-.4-.1-1.5-.6-2-5.2-5.4-10.2-10.9-15.8-15.7-1.2-1-5.6-.2-6.9 1.2-1.4 1.4-2 5.7-.9 7 4.5 5.5 9.5 10.7 15 15.1zm-.8 57.4c-4.9 4.4-9.7 9.1-14 14.1-1.1 1.3-1.1 4.5-.4 6.4.6 1.6 3 2.6 4.4 3.6 1.9-.6 3.3-.6 4-1.3 5.1-4.9 10.4-9.8 14.9-15.3 1.1-1.3.3-5.2-.9-7-1.9-2.7-5.5-2.7-8-.5zm71.6-56.4c.4-.1 1.4 0 1.9-.5 5.4-5.3 11-10.5 15.9-16.3.9-1.1 0-5.3-1.4-6.4-1.7-1.3-5.7-1.9-7-.8-5.4 4.5-10.6 9.5-15.1 15-3 3.7.5 9 5.7 9zm1.7 55.7c-1.1-.9-5.1.1-6.5 1.5-1.3 1.4-2.1 5.4-1.2 6.5 4.7 5.5 9.7 10.9 15.3 15.4 3.8 3 9.3-.5 9.1-5.6-.1-.4-.1-1.4-.6-1.9-5.1-5.4-10.3-10.9-16.1-15.9zm138.3-4.5c13.6.1 23.8-9.9 23.9-23.4.1-13.6-10-23.8-23.5-23.9-13.6-.1-23.8 10-23.9 23.4-.1 13.6 10 23.8 23.5 23.9zm.6-34.8c5.7.2 10.8 5.5 10.8 11.2 0 5.8-5.6 11.3-11.3 11.2-5.7-.1-11.3-5.9-11-11.4.2-6 5.8-11.2 11.5-11zm-27.4-9.8c4.2-.1 7.8-5.1 5.4-8.4-2.8-3.9-6.4-7.6-10.4-10.4-3.4-2.4-8.2 1.2-8.3 5.5-.1 4.4 9 13.4 13.3 13.3zm54 0c4.3.1 13.4-8.9 13.4-13.2 0-4.6-5-7.9-8.7-5.3-3.7 2.6-7.1 6-9.8 9.6-2.7 3.6.6 8.8 5.1 8.9zm-59.3 60.7c4.1-2.8 7.9-6.5 10.7-10.6 2.4-3.4-1.3-8.2-5.6-8.2-3.8 0-13 9.2-13.2 13 0 4.2 4.7 8.1 8.1 5.8zm59.7-18.8c-4.3-.1-8.2 4.6-5.9 8 2.8 4.1 6.5 7.9 10.6 10.7 3.4 2.4 8.2-1.3 8.2-5.6 0-3.6-9.1-12.9-12.9-13.1z"/></svg>