<svg id="Девушка" xmlns="http://www.w3.org/2000/svg" viewBox="0 0 512 512"><style>.st0{fill:#a81a5c}</style><path class="st0" d="M145.2 362.6c-6.8 2.7-12.4 7.1-17.3 12.3-8.4 9-13.6 19.7-14.9 32-.2 1.5-.5 3-.7 4.4-.6 4-2.9 6.6-7.1 6.1-4.2-.5-5.9-3.7-5.4-7.6.7-5.4 1.3-11 2.9-16.2 7.8-24.3 24.3-40.1 48.8-47.3 20.8-6.1 41.6-11.9 62.5-17.8 4.3-1.2 6.3-3.9 6.7-8.2.4-4-.2-7-4.6-9.2-22.5-11.2-38-28.8-46.4-52.6-1.2-3.5-2.6-5.5-6.8-5.6-8.9-.3-16.6-6.9-17.8-15.6-1.4-11-3.2-22.3 3.9-32.4.5-.7.7-1.9.6-2.8-1.1-45.7 19.6-78.7 59-100.5 3.7-2 5.2-4 5.2-8.3.3-23 19.9-41.7 43.2-41.6 23.3 0 42.7 18.8 43 41.8 0 4.1 1.6 5.9 5 8 9 5.7 17.7 11.8 26.1 18.3 4.7 3.5 5.1 7.7 2.4 10.7-2.8 3.1-6.5 2.7-10.9-1.3-19.8-18.4-43.2-27-70.1-26.3-44.2 1.2-84.4 37.7-89.5 81.7-.1 1.2-.4 2.3-.5 3.5-1.3 9.3-.6 10.4 8.6 9.5 2.1-.2 4.8-2.2 5.8-4.2 3.2-6.2 5.8-12.7 8.7-19.1 5.6-12.5 15.8-15.2 26.5-6.5 14.9 12 31.2 21.2 49.9 25.4 11.1 2.5 22.7 3.9 34.1 4.4 16.6.7 33.3.2 50 .2 5.9 0 6.2-.3 5.7-6.3-.9-11.7-3.5-23-8.7-33.7-.6-1.2-1.1-2.4-1.7-3.6-2.4-5.5-1.7-9 2.1-10.8 3.6-1.7 6.8-.1 9.3 5 8.4 16.8 13 34.5 11.7 53.5-.1 1.2.3 2.6 1 3.7 6.7 11.4 5.7 23.5 2.3 35.3-2.2 7.5-8.7 11.8-16.8 12.1-3.6.2-5.2 1.5-6.4 4.8-8.6 24.9-24.7 43.1-48.6 54.3-4.3 2-4 5.1-3.9 8.6.1 4.4 2.7 6.5 6.6 7.6 12.9 3.5 25.7 6.9 38.5 10.6 11.8 3.5 24 6.3 35.2 11.2 25.6 11.4 39.8 31.8 41.8 59.8 1 14.1.6 28.3.6 42.5 0 7.7-2.3 9.7-10 9.7H109.3c-7.8 0-9.9-2-10.1-9.6-.1-4.2-.1-8.3.2-12.5.3-3.9 2.3-6.7 6.5-6.9 3.6-.2 6 2.9 6.3 7.5.5 9 .5 9 9.7 9 6.7 0 13.3-.1 20 0 2.6 0 4.1-.7 4.1-3.6 0-27.2-.1-54.3-.1-81.5.1-.3-.3-.8-.7-1.9zm32-139.2c0 19.9 3.4 32.8 12.4 47.6 30.4 49.6 104.9 49.4 135.2-.4 9.7-16 12.9-33.3 12.2-51.7-.3-8.1-.1-7.9-8.2-8.1-17.6-.4-35.3-.1-52.8-1.9-25-2.5-47.5-12.5-67.4-27.9-9-6.9-8.9-7-13.5 3.5-2.4 5.5-4.7 11-7.4 16.4-1.2 2.3-2.7 5.2-4.8 6.1-5.6 2.5-6.2 6.7-5.6 11.8 0 1.6-.1 3.1-.1 4.6zm-.9 129.2c-4.6 1.3-8.2 2.6-11.9 3.3-4.4.8-5.4 3.1-5.4 7.3.2 26.7.1 53.3.1 80 0 6.5 0 6.6 6.6 6.6h144.5c13.3 0 26.7-.1 40 0 3.4 0 4.7-1 4.7-4.6-.1-27.8 0-55.7-.1-83.5 0-1.5-.5-4-1.5-4.3-4.9-1.8-10-3.2-15.6-4.9-.2 2.9-.3 4.7-.3 6.5v31c0 8.1-1.1 9.7-9 11-14 2.3-27.9 4.8-41.9 6.3-34.8 3.8-69.2.7-103.2-6.8-4.7-1-6.7-3.8-6.6-8.5.1-11 0-22 0-33-.1-1.7-.2-3.5-.4-6.4zm101.6-33.7c-14.4 3.2-29.2 3.1-44-.6-.3 1.2-.5 1.8-.6 2.4-1.3 12.5-6.3 17.9-18.4 20.8-7.3 1.7-14.4 4.1-21.7 5.9-3.2.8-4.1 2.5-4.1 5.7.2 10.3.2 20.6 0 31-.1 3.9 1.4 5.3 5 5.8 6.9 1 13.8 2.4 20.7 3.3 35.4 4.8 70.7 3.5 105.8-3.4 3.3-.6 4.3-2.3 4.2-5.5-.1-10.3-.2-20.6 0-31 .1-3.4-1-5.2-4.4-6-8.1-2-16-4.4-24.1-6.3-6.5-1.5-11.9-4.6-14.8-10.7-1.5-3.3-2.3-7.2-3.6-11.4zm90.7 43.8c-.3 1.1-.6 1.7-.6 2.3 0 27 0 53.9-.1 80.9 0 3.2 1.8 3.8 4.5 3.8 8.3-.1 16.7-.2 25 0 3.7.1 4.5-1.6 4.4-4.8-.1-10 .1-20-.1-30-.3-12.2-3.4-23.7-10.6-33.8-5.8-8-12.9-14.5-22.5-18.4zM227.1 93.2c10.2-1.1 20.1-3 29.9-3 9.9 0 19.9 2 29.8 3.1.7-4.1-.8-5.7-4.9-6.3-16.7-2.5-33.4-2.4-50.2 0-4 .6-5.3 2.3-4.6 6.2zM277 72.5c-11.2-10.5-30.6-10.3-39.6 0H277zm75.2 138.6c-.7 0-1.4.1-2.1.1v28.9c4-.2 6.8-2.7 6.5-6.5-.6-7.6 3.8-16.5-4.4-22.5zm-189 29.9l1-1v-28.4c-.6-.3-1.2-.7-1.7-1-1.6 1.9-4.5 3.7-4.7 5.8-.6 6.2-.6 12.6.1 18.8.2 2 3.4 3.8 5.3 5.8z"/><path class="st0" d="M259.4 288.4c-12 .1-20.2-2.9-26.6-10-2.8-3-4-6.4-.6-9.7 3.3-3.2 7-2.4 9.6.8 6.9 8.2 23.5 8.2 30.5-.1 3-3.5 7.1-3.4 9.6-.6 2.9 3.2 2 6.3-.6 9.4-5.3 6.5-14.2 10.2-21.9 10.2zm-45.7-63.1c0-2-.2-4 0-6 .4-3.4 2.5-5.4 6-5.5 3.5-.1 5.8 2 6.2 5.3.4 4.1.4 8.3 0 12.4-.3 3.3-2.5 5.5-6 5.5-3.7 0-5.8-2.1-6.2-5.8-.2-1.9 0-3.9 0-5.9zm74.3-.2c0-2-.3-4 .1-6 .6-3.3 2.7-5.4 6.2-5.3 3.5 0 5.7 2.1 6 5.5.3 4 .3 8 0 11.9-.2 3.6-2.5 5.8-6.2 5.8s-5.7-2.4-6.1-6c-.3-1.9-.1-3.9 0-5.9-.1 0-.1 0 0 0z"/></svg>