<svg id="Маски" xmlns="http://www.w3.org/2000/svg" viewBox="0 0 512 512"><style>.st0{fill:#a81a5c}</style><path class="st0" d="M285.8 286.4c1.7-1.3 3.4-2.7 5-3.9 15.7-11.9 37-12.8 53.5-2.3 16.7 10.6 25 30.5 20.8 49.8-.2.8-.4 1.6-.7 2.4-2.3 7.7-6.7 8.6-12.7 3.4-7-6.1-14-12.5-21.9-17-14.9-8.5-31.4-9.5-48-5.7-1.4.3-3 2.8-3.4 4.6-2.9 12.2-5.4 24.4-8.1 36.6-4.9 21.8-17.6 37.1-39 44.3-10.8 3.7-22 6.9-33.3 8.7-17 2.6-32.2-2.9-44.5-14.6-19.2-18-38-36.4-56.5-55.2-14-14.2-21-31.9-21.7-51.8-.5-12.6-3.5-24.3-8.8-35.6-4.4-9.6-8.1-19.4-7.6-30.2.8-18.6 8-34.1 23.5-44.7 37.8-25.8 79.9-38.4 125.7-38 26.6.2 49.2 19.7 53.8 46.3 2.8 16.6 7.5 32.1 16.2 46.8 9.2 15.5 11 33 8.1 50.8-.2 1.5-.5 2.9-.7 4.4-.2.1 0 .3.3.9zm-84.1-136.7c-41.5 1.3-77.2 12.7-109.7 34-15.4 10.1-22.8 24.7-19.8 43.2 1.2 7.4 4.4 14.6 7.3 21.7 4.3 10.4 7.6 21 7.9 32.3.5 18.3 5.6 35 18.7 48.2 18.1 18.2 36.5 36.1 55.1 53.8 12.3 11.7 27.2 14.8 43.6 10.7 7.3-1.8 14.4-4.1 21.5-6.5 16.9-5.6 27.5-17.1 31.4-34.5 5.4-23.9 10.6-47.8 15.6-71.8 3.3-15.7 1.7-31.3-6.5-45-9.2-15.4-14.5-31.7-17.1-49.2-1.4-9.1-5.2-17.2-11.7-23.8-10.7-10.9-23.9-14.5-36.3-13.1zM353 319.1c1.3-12.8-8.9-26.9-22.2-31.6-13.7-4.8-30.6-.1-37.7 11 22.5-1 42.3 5.7 59.9 20.6z"/><path class="st0" d="M326.2 118.9c-24.1-.9-41.6 12.5-46.9 36.1-.9 4.2-1.7 8.5-3 12.6-1 3.2-3.6 4.9-7 4.1-3.4-.8-5.2-3.3-4.7-6.7 2.7-16.5 6.6-32.3 19.9-44.1 11-9.7 23.6-15.2 38.2-14.8 40.2 1.2 77.5 12.2 111.4 33.9 7.8 5 15.8 10.4 21.7 17.4 14.3 16.9 17 36.4 9 57.1-1.6 4.2-3.6 8.3-5.6 12.2-5.5 10.7-8.2 22.1-9.1 34-1.6 19.3-9.2 36.2-23.2 49.6-18.8 17.9-38.1 35.3-57.7 52.4-17.1 15-36.9 18.1-58.4 11.1-6.5-2.1-12.9-4.3-19.4-6.6-5-1.8-7-4.8-5.8-8.4 1.2-3.9 4.7-5.1 10-3.4 7.6 2.5 15.1 5.3 22.8 7.5 16.2 4.6 30.8 1 43.3-10 18.5-16.4 36.7-33 54.8-49.6 13.3-12.2 20.2-27.5 21.5-45.4.9-12 3.7-23.3 9-34.1 2.3-4.8 4.7-9.6 6.6-14.6 7.5-19.4 1.4-39.6-15.5-51.8-32.1-23.1-72.1-36.9-111.9-38.5z"/><path class="st0" d="M336.1 252.5c5.6 2 10.3 3.6 15 5.3 4.9 1.8 6.8 4.9 5.5 8.5-1.4 3.7-4.6 4.9-9.6 3.2-4.7-1.6-9.5-3-14.1-5-8.9-3.8-11.6-13.3-5.6-21 7.4-9.4 15.2-18.5 22.9-27.7 2.5-3 5.7-4.2 9.2-1.6 3.1 2.2 3.2 6 .2 9.7-6.5 8-13.1 15.9-19.7 23.9-1.3 1.1-2.2 2.5-3.8 4.7zm6.4-61.6c-.2 4.3-1.9 7.1-5.7 7.9-3.7.8-5.5-1.4-7.2-4.6-1.2-2.3-3.7-4.8-6.1-5.6-8.6-3-17.4-1.6-26.1.1-2 .4-3.9 1.1-5.8 1.2-3.4.3-5.9-1.2-6.8-4.6-.9-3.4.6-6.2 3.8-7.1 13.1-3.8 26.4-5.9 39.7-1.4 7 2.4 12.4 6.9 14.2 14.1zm50.1 7.6c6 2.8 12.7 4.7 18 8.6 6.7 5 12.4 11.4 18.2 17.6 3.5 3.7 3.1 7.7-.1 10-3.9 2.8-6.8.6-9.5-2.2-4.9-5-9.4-10.4-14.9-14.6-5.2-4.1-11-8.4-18.4-3.1-1.2.9-5.6-.8-7-2.5-2.4-2.8-1.7-6.8 1.5-8.8 3.3-2.2 7.4-3.1 12.2-5zM193.1 362.2c-19.8-.2-37.3-12.5-43.8-31.2-.8-2.3-.7-6.1.7-7.7 1.4-1.6 5.2-2.3 7.5-1.8 26.8 5.7 49.6-1.3 69-20.5 1.8-1.8 5.5-3.2 7.7-2.7 2 .5 4 3.8 4.6 6.3 7.5 29.2-15.4 57.9-45.7 57.6zm34.2-44.9c-17.9 14.2-38.1 20.1-61 18.6 8.4 11.8 23.7 16.5 37.4 12.3 13.6-4.3 23.3-16.6 23.6-30.9zm-48.6-31.2c5.5-1.6 10.2-3 15-4.3 5-1.4 8.4-.1 9.5 3.6 1.1 3.8-.9 6.7-5.8 8.3-4.4 1.4-8.9 2.8-13.4 4-10.1 2.6-18.3-3.7-17.8-14.1.5-11.6 1.6-23.2 2.4-34.8.3-4.1 1.9-7.2 6.6-7.2 3.8 0 6.2 3.3 5.9 8.3-.7 10.1-1.5 20.2-2.2 30.4-.3 1.5-.2 3.3-.2 5.8zm-43.1-37.9c-10.9.1-19.5 4.4-27.8 9.3-1.6.9-3 2.1-4.6 2.9-3.1 1.5-5.9 1-8-1.8-2.1-2.9-1.7-6 1-8 13.4-10 28.1-16.7 45.3-14.5 9.1 1.2 11.4 6.3 7.2 14.5-1.3 2.5-2.5 5.1-3.9 7.5-1.9 3.3-4.6 5-8.3 3.2-3.9-1.9-4.4-5.1-2.8-8.8.6-1.1 1.1-2.3 1.9-4.3zm68.3-21.1c2.9 2 5.3 2.8 6 4.3 1.1 2.3 2.1 5.7 1 7.4-1 1.7-5 3.1-7 2.5-4.3-1.5-8.4-4.1-12.2-6.7-4.1-2.9-4.3-7.7-.7-11.8 5.2-6 11.9-10 19.4-11.7 8.7-1.9 17.7-2.6 26.6-3.5 3.9-.4 6.8 1.6 7.1 6 .2 3.7-2.6 6-7.3 6.4-6.8.6-13.6 1-20.3 2.3-3.9.8-7.6 2.9-12.6 4.8z"/></svg>