<svg id="Glasses" xmlns="http://www.w3.org/2000/svg" viewBox="0 0 512 512"><style>.st0{fill:#0098ce}</style><path class="st0" d="M252.1 252.3h178.5c2.8 0 5.7.1 8.5.5 10.6 1.6 17.6 9 17.7 19.7.2 34 .2 68 0 102-.1 10.4-7.1 17.9-17.3 19.7-2.8.5-5.6.6-8.5.6-42.3 0-84.7-.1-127 .1-10.9 0-20.1-3.2-27.9-11-6.7-6.7-14-12.8-20.9-19.4-2.6-2.5-4.2-2.1-6.6.2-7.4 7-15 13.7-22.4 20.7-6.6 6.3-14.5 9.4-23.5 9.4-44.2.1-88.3.1-132.5 0-14.9 0-23.1-8.6-23.1-23.5v-94.5c0-16.7 7.7-24.5 24.5-24.5 60.2-.1 120.4 0 180.5 0zm-.1 11.8H71.5c-9.8 0-12.6 2.8-12.6 12.4v95c0 8.1 3.1 11.3 11.2 11.3 44.3.1 88.6 0 133 0 5.6 0 10.4-1.8 14.5-5.7 9.3-8.6 18.6-17.2 28-25.7 5.4-4.9 7.5-4.9 12.8 0 8.9 8 17.8 16.1 26.4 24.4 5.4 5.3 11.6 7.1 19 7.1 42.5-.1 85-.1 127.5-.1 1.7 0 3.3 0 5-.2 5.5-.7 8.6-3.7 8.6-9.2.1-33.3.1-66.7 0-100 0-5.7-3.2-8.8-9-9.4-2-.2-4-.1-6-.1-59.2.2-118.6.2-177.9.2zm81.6-76.9c-.9 2.3-1.4 3.8-2.1 5.3-3.4 8-11.7 13-20 11.9-9.2-1.2-16.7-7.7-17.1-16.8-.6-15.5-.8-31 .1-46.5.5-9.5 6.6-16.3 15.5-19.8 9.2-3.6 18-1.9 25.1 4.7 7.9 7.4 15.1 15.5 22.5 23.4 24.3 26.1 48.6 52.2 72.8 78.3.7.7 1.4 1.4 2 2.2 2.2 2.8 2.9 5.9 0 8.5-2.8 2.5-5.9 2-8.5-.6-4.3-4.4-8.5-8.9-12.7-13.4-27.2-29.1-54.3-58.2-81.5-87.4-4.3-4.6-9.2-7.4-15.5-4.7-6.3 2.6-8.6 7.7-8.5 14.4.2 12.3 0 24.7.1 37 .1 5.6 3.4 9.1 8 8.9 4.1-.2 7-3.3 7.2-8.1.2-4.8-.4-9.7.3-14.5.4-2.6 2.1-5.7 4.2-7.1 3-2 5.6.6 7.4 3.1 15.8 21.5 31.6 42.9 47.4 64.4 2.4 3.2 3.7 6.5 0 9.7-3 2.5-6.3 1.5-9.6-2.9-11.2-15.1-22.4-30.3-33.5-45.5-1-1.3-2.1-2.7-3.6-4.5zm-163.4 0c-8.4 11.4-16.4 22.2-24.4 33.1-4.2 5.6-8.3 11.3-12.5 16.9-2.3 3-5 5.2-8.9 2.8-3.1-1.9-3.4-5.7-.5-9.7 15.7-21.5 31.5-43 47.5-64.3 1.4-1.8 5.3-3.6 6.9-2.9 2.1.9 4 4.2 4.4 6.8.7 4.2.2 8.6.2 13 .1 6.3 2.8 9.8 7.5 9.9 4.7.1 7.7-3.6 7.8-9.6.1-12.5.1-25 0-37.5 0-6.6-3.1-11.2-8.6-13.3-6-2.3-10.7-.1-14.8 4.3-21.9 23.5-43.9 47-65.8 70.5-9.1 9.7-18.2 19.4-27.3 29.2-2.7 2.9-5.7 5.1-9.5 1.9-3-2.5-2.6-6 1.1-9.9 30.7-33 61.4-66.1 92.3-99.1 13.9-14.8 35.3-11.7 42.5 6.2 1.4 3.4 1.8 7.4 1.9 11.2.2 11.8.1 23.7.1 35.5 0 12.3-5.8 20.2-15.9 22.1-10.3 1.9-18.3-3.3-22.7-14.9-.3-.6-.6-1-1.3-2.2z"/><path class="st0" d="M152.7 281h63c10.7 0 13.4 2.8 13.5 13.2 0 14.2-.1 28.3.1 42.5.1 4.9-1.5 8.6-5.2 11.8-5 4.4-9.6 9.3-14.8 13.4-2.7 2.1-6.5 3.8-9.8 3.8-37.3.3-74.6.2-112 .1-8.3 0-11.5-3.3-11.5-11.6-.1-20.7-.1-41.3 0-62 0-7.9 3.4-11.2 11.3-11.2h65.4zm.2 11.9c-19.8 0-39.7.1-59.5-.1-4.9-.1-6.3 1.7-6.2 6.4.2 16.2.2 32.3 0 48.5-.1 5.1 1.6 6.5 6.6 6.5 29.7-.2 59.3-.1 89-.1 18.6 0 18.6.1 31.6-13 1.9-1.9 3.2-5.1 3.3-7.8.4-11.5 0-23 .2-34.5.1-4.5-1.3-6.1-6-6-19.7.2-39.3.1-59 .1zM351.5 281H415c10.3 0 13.1 2.9 13.1 13v59.5c0 9.3-3 12.3-12.3 12.3-36.8 0-73.6.1-110.5-.2-3.8 0-8-2-11.1-4.3-5.3-4-9.8-9-14.8-13.4-3.2-2.9-4.7-6.2-4.6-10.5.1-14.8 0-29.7.1-44.5 0-8.8 3.2-11.9 12.2-11.9h64.4zm-.2 11.9c-19.7 0-39.3.1-59-.1-4.9-.1-6.4 1.6-6.2 6.3.3 7 .1 14 .1 21 0 18.7-.1 18.7 14.3 31 1.9 1.7 5 2.8 7.5 2.9 34.3.2 68.7.1 103 .2 4.4 0 5.9-1.4 5.8-5.8-.2-16.5-.2-33 0-49.5 0-4.4-1.3-6.1-6-6.1-19.8.2-39.6.1-59.5.1z"/></svg>