<svg id="Тарелки" xmlns="http://www.w3.org/2000/svg" viewBox="0 0 512 512"><style>.st0{fill:#0098ce}</style><path class="st0" d="M466.6 314.9c-27.1 87.4-85.8 140-176 157-7.5 1.4-15.1 2.1-22.6 3.1h-22c-1.6-.4-3.2-1-4.8-1.1-18-1.1-35.6-4.7-52.7-10.4-4.1-1.4-6.8-1.1-10.1 2.1-8 7.8-19.5 8.9-29.1 3.7-9.2-5-14.7-15.6-12.7-26.1.7-3.8-.6-5.4-3.3-7.3-18.1-12.5-34-27.4-47.4-44.7-2.2-2.8-4.5-3.7-8-3.6-10 .4-17.8-3.8-22.8-12.5-5.1-8.9-4.7-17.9.8-26.4 1.7-2.6 1.6-4.6.6-7.4-4.1-12.1-8.7-24.2-11.5-36.6-1.5-6.5-5-26.8-5.3-46.4-.3-18.5 2.7-36.4 3.6-41.4C59 127.6 133.2 55.4 222.9 42.1c4-.6 21.2-2.7 38.3-2.4 17 .3 34 2.9 38.4 3.9 70.3 15.1 121.3 55.3 153.9 119.2.9 1.8 16.6 37.1 19.3 74.8 2.4 35.3-4.2 70.9-6.2 77.3zM332.9 70.5c-5.1-1.9-9.3-3-13.1-4.9-4-2-6.4-.8-9.4 2.2-17.4 17.7-34.9 35.3-52.7 52.7-9.9 9.7-15 20.8-14 34.8 1.3 18.5-5.6 33.5-18.7 46.5C174.5 252 124.3 302.4 74 352.7c-1.6 1.6-3.9 3.2-4.5 5.2-.8 2.8-1.4 6.5-.1 8.8 1.3 2.2 4.9 4.1 7.6 4.3 2.3.2 5.4-1.6 7.3-3.4 5.8-5.3 11.2-11 16.7-16.5l138.9-138.9c11.9-11.9 26.2-17.8 42.9-16.6 13.8 1 25.1-2.9 34.8-12.7 21.1-21.3 42.4-42.4 63.6-63.6 1.4-1.4 2.8-2.9 4.5-3.9 3.4-2.1 6.8-1.7 9.6 1 3 2.9 3.4 6.4 1.3 10-.7 1.1-1.7 2.1-2.6 3l-66.8 66.8c-7.1 7.1-15.6 12.3-25.4 14.1-7 1.3-14.2 1.2-21.3 1.3-11.1.1-20.6 3.7-28.4 11.5-38.4 38.4-76.8 76.8-115.3 115.2-2.7 2.7-2.7 4.6-.5 7.5 12 15.9 26.4 29 43.3 39.6 3.8 2.4 6.1 2.2 9.3-1 21.7-21.9 43.5-43.7 65.4-65.4 4.7-4.7 7.1-9.9 6.8-16.5-.3-9.9 3.4-18.1 10.4-25.1 10.5-10.4 21-20.9 31.5-31.5 32.7-33.2 71.7-55.5 116.9-66.8 6.6-1.7 13.1-3.5 20.6-5.5-14.5-31.1-34.8-56.3-61.6-76.9-1.9 1.7-3.3 3.1-4.7 4.5-21 21-42 41.9-62.9 62.9-1.3 1.3-2.5 2.7-4 3.8-3.6 2.8-7.9 2.5-10.9-.6-2.7-2.8-2.9-7.7-.3-11 1-1.3 2.3-2.4 3.5-3.6 20.1-20.2 40.3-40.3 60.4-60.5 1.5-1.5 2.9-3.1 4.9-5.2-3.9-2.3-7.4-4.2-10.6-6.5-3.6-2.6-6.1-2.1-9.3 1.2-19.4 19.7-39 39.2-58.6 58.8-1.3 1.3-2.6 2.6-4.1 3.7-3.5 2.4-7 1.9-10-1-3-3-3.3-6.5-1.1-10 1-1.5 2.4-2.8 3.6-4.1l53.4-53.4c1.2-1.4 2.5-2.9 4.7-5.2zM240.5 406c11.4 0 23.2 1.4 34.6-.2 52.8-7.5 91.8-35.2 116.6-82.5.8-1.6 1.5-3.9 2.8-4.6 2.6-1.3 6.1-2.9 8.5-2 2.4.8 4.5 4.2 5.3 6.9.6 2-1 4.8-2.1 6.9-19.8 39.2-50.2 66.8-91.2 82.4-27.5 10.5-56 12.8-85 8.1-3.9-.6-6.9-.1-9.8 3-4.7 5.2-9.8 10-14.8 14.9-3 3-6 6-9.2 9.3 54 19.8 141.3 14.3 204.7-50.5 62.5-63.8 66.5-149.8 47.8-199.9L240.5 406zM70.9 332.4c1.7-1.6 3.1-2.7 4.4-4 6.3-6.2 12.4-12.6 18.8-18.7 2.9-2.7 3.6-5.2 2.5-9.2-6.3-22.1-7.8-44.8-4.1-67.3 10.3-61.6 44.5-105 101.7-130.1C215.4 93.8 238 91 261 90.2c2.4-.1 5.2-1.4 6.9-3 8.1-7.7 15.9-15.7 23.8-23.6 1.1-1.1 1.9-2.4 3-3.8-60.1-13.1-141.6 4.8-195.3 72.1-50.8 63.7-53 144.9-28.5 200.5zm40.2-40.1c2.5-2.3 4.1-3.7 5.5-5.2 31.3-31.3 62.4-62.9 94.1-93.8 11.8-11.5 18-24 16.7-40.7-1.2-15.3 4.7-28.7 15.3-39.9 1.2-1.3 2.3-2.6 3.5-4l-.9-1.2c-43.1 4-78.9 22.5-105.9 56.8-29.5 37.4-38.4 80-28.3 128zm315.1-97.6c-2.8.5-4.2.7-5.6 1.1-28 7.3-53.8 19.5-77.2 36.5-23.2 16.9-41.9 38.5-62 58.6-2.7 2.7-4.3 7.8-4.3 11.8.2 11.7-4.3 20.7-12.5 28.8-35.6 35.3-71 70.9-106.4 106.3-6.3 6.3-7.3 11.7-3 15.8 4.4 4.2 9.2 3.3 15.4-3 83.7-83.6 167.4-167.2 251-250.9 1.2-1.2 2.4-2.6 4.6-5zM97.3 379c.7 1 1.5 2.3 2.4 3.4 10.3 12.9 22 24.5 35.2 34.5 12.1 9.2 12.1 9.1 22.6-1.4 4.9-4.9 9.7-9.8 15.1-15.2-20.4-12.4-37.1-27.7-50.5-46.1L97.3 379z"/><path class="st0" d="M422.9 264.9c-.1 6.5-2.8 9.9-8 9.9s-8.1-3.5-7.9-9.8c.1-6.7 3-10.1 8.5-9.8 5.1.2 7.6 3.4 7.4 9.7z"/><path d="M66.4 344C53.9 317.2 47 287.4 47 256c0-115.4 93.6-209 209-209s209 93.6 209 209-93.6 209-209 209c-24.7 0-48.4-4.3-70.5-12.2" fill="none" stroke="#0098ce" stroke-width="15" stroke-miterlimit="10"/></svg>