<svg id="Кровать" xmlns="http://www.w3.org/2000/svg" viewBox="0 0 512 512"><path d="M256.8 394.8c-32 0-64 .1-96-.1-4.8 0-6.4 1.3-6.1 6.2.4 7.8.2 15.7.1 23.5-.1 13.1-8.3 21.3-21.2 21.4-11.2.1-22.3.1-33.5 0-12.4-.1-20.8-8.4-20.9-20.7-.1-62.1-.1-124.3 0-186.4.1-21.6 15.2-39.4 36.4-43.4 4-.7 4.6-2.7 4.6-6.1-.1-25.5-.1-51 0-76.5 0-28.3 19.1-47.4 47.4-47.4H347c28.9 0 47.8 19 47.8 48 0 25.3.1 50.7-.1 76 0 3.8.9 5.4 5 6.3 20.2 4.3 34.9 21.9 35 42.6.2 62.5.2 125 0 187.4 0 11.8-8.5 20.1-20.3 20.3-11.7.2-23.3.2-35 0-11.8-.2-20-8.5-20.2-20.3-.2-8 0-16 0-24 0-6.6 0-6.6-6.4-6.6-32-.2-64-.2-96-.2zm0-81.6h155c6.5 0 6.5 0 6.5-6.6v-66.5c0-17.3-12-29.3-29.2-29.3h-264c-17.2 0-29.2 12-29.2 29.3v66.5c0 6.6 0 6.6 6.5 6.6h154.4zm119 65.3v6.6c0 12.8.1 25.7 0 38.5 0 4.1 1.5 5.7 5.6 5.6 10-.1 20 0 30 0 6.4 0 6.8-.4 6.8-6.8v-85.5c0-7.1 0-7.1-7-7.1H102.8c-1 0-2 .1-3 0-3.1-.3-4 1.1-4 4.1.1 30 .1 60 0 90 0 3.8 1.5 5.4 5.3 5.4 10.5-.1 21-.1 31.5 0 4.1.1 5.7-1.5 5.6-5.6-.1-13 0-26 0-39v-6.1c79.4-.1 158.2-.1 237.6-.1zM257.7 81.8c-31 0-62-.1-93 0-14.8.1-27.6 11.7-27.8 26.1-.4 27.5-.1 55-.2 82.5 0 2.7.9 3.9 3.8 3.8 5-.1 10-.4 15 .1 4.6.4 5.9-1.6 6.6-5.7 13.2-69.9 96.3-101.9 153-58.7 19.8 15 32.2 34.8 36.7 59.3.7 3.8 2.1 5.4 6.1 5.1 4.5-.4 9-.1 13.5-.1 6.6 0 6.6 0 6.6-6.4v-76c0-18.2-11.8-30-30-30h-90.3zm-79.4 111.9h157.4c-3.2-30-32.5-66.5-77.9-66.9-45.7-.4-76.1 35.9-79.5 66.9z" fill="#0098ce"/></svg>