<svg id="YouTube" xmlns="http://www.w3.org/2000/svg" viewBox="0 0 512 512"><style>.st1{fill:#fff}</style><linearGradient id="SVGID_1_" gradientUnits="userSpaceOnUse" x1="150.81" y1="74.074" x2="360.881" y2="437.926"><stop offset="0" stop-color="#e53736"/><stop offset="1" stop-color="#d52524"/></linearGradient><path d="M255.8 466.1C140 466.1 45.7 371.9 45.7 256S140 45.9 255.8 45.9 466 140.1 466 256s-94.3 210.1-210.2 210.1z" fill="url(#SVGID_1_)"/><path class="st1" d="M255.8 53.4c111.9 0 202.6 90.7 202.6 202.6s-90.7 202.6-202.6 202.6c-111.9 0-202.6-90.7-202.6-202.6S143.9 53.4 255.8 53.4m0-15c-29.4 0-57.9 5.8-84.7 17.1-25.9 11-49.2 26.6-69.2 46.6s-35.7 43.3-46.6 69.2C44 198.1 38.2 226.6 38.2 256s5.8 57.9 17.1 84.7c11 25.9 26.6 49.2 46.6 69.2s43.3 35.7 69.2 46.6c26.8 11.4 55.3 17.1 84.7 17.1 29.4 0 57.9-5.8 84.7-17.1 25.9-11 49.2-26.6 69.2-46.6s35.7-43.3 46.6-69.2c11.4-26.8 17.1-55.3 17.1-84.7s-5.8-57.9-17.1-84.7c-11-25.9-26.6-49.2-46.6-69.2s-43.3-35.7-69.2-46.6c-26.8-11.4-55.3-17.1-84.7-17.1z"/><path class="st1" d="M385.3 192.2c-3.3-14.3-14.9-24.9-29-26.5-33.1-3.7-66.8-3.7-100.3-3.7s-67.1 0-100.3 3.7c-14 1.6-25.7 12.2-29 26.5-4.7 20.4-4.7 42.7-4.7 63.8 0 21 0 43.3 4.7 63.8 3.3 14.3 14.9 24.9 29 26.5 33.2 3.7 66.9 3.8 100.3 3.7 33.5 0 67.1 0 100.3-3.7 14-1.6 25.7-12.2 29-26.5C390 299.3 390 277 390 256s0-43.3-4.7-63.8z"/><linearGradient id="SVGID_2_" gradientUnits="userSpaceOnUse" x1="221.421" y1="253.266" x2="306.609" y2="253.266"><stop offset="0" stop-color="#e53736"/><stop offset="1" stop-color="#d52524"/></linearGradient><path d="M221.4 297.9v-89.2c28.4 14.9 56.6 29.7 85.2 44.7-28.5 14.9-56.7 29.6-85.2 44.5z" fill="url(#SVGID_2_)"/></svg>