<svg id="Планета" xmlns="http://www.w3.org/2000/svg" viewBox="0 0 512 512"><style>.st0{fill:#0098ce}</style><path class="st0" d="M216.9 470.9c-87-15.3-158.4-86.6-173.8-173.8-1.7-9.6-2.8-19.4-4.1-29.1v-22c.4-1.8.8-3.5 1.1-5.3 1.7-11.3 2.7-22.8 5.3-34C65 121.4 137 54.9 223.4 42.1c7.5-1.1 15.1-2 22.7-3.1h22c9.7 1.4 19.4 2.5 29.1 4.2 87 15.3 158.3 86.6 173.8 173.8.8 4.6 3.6 22 3.4 40.1-.2 20-3.5 40.8-4.6 45.9-17.6 86.4-91.8 156.6-178.5 169 0 0-19.9 2.7-35.2 2.7s-39.2-3.8-39.2-3.8zM198.4 249c15.1 0 30.3-.1 45.4.1 3.9 0 5.3-1.4 5.3-5.3-.1-21.3-.1-42.6 0-63.9 0-3.8-1.1-5.3-5.1-5.2-27.3.2-54.6.1-81.9 0-3.5 0-5 1.1-5.8 4.5-4.8 21.1-7.4 42.6-8.5 64.2-.2 4.5 1.3 5.8 5.7 5.7 14.9-.2 29.9-.1 44.9-.1zm117 0c15 0 30-.1 45 .1 4.7.1 6-1.6 5.8-6.1-1.1-21.3-3.6-42.4-8.3-63.3-.8-3.7-2.5-5.1-6.4-5-27 .2-54 .2-81 0-4.6 0-5.6 1.7-5.6 5.9.1 20.8.1 41.7 0 62.5 0 4.4 1.3 6.2 6 6.1 14.9-.3 29.7-.2 44.5-.2zm.5 16c-15.2 0-30.3.1-45.5 0-3.7 0-5.4 1.1-5.4 5.1.1 20.8.1 41.6 0 62.5 0 3.3 1 4.7 4.6 4.7 27.8-.1 55.6-.1 83.4 0 3.1 0 4.4-1.1 5.1-4.1 4.6-20.5 7-41.3 8.1-62.3.3-4.7-1.4-6.1-5.9-6-14.8.3-29.6.1-44.4.1zm-117.3 0c-15 0-30 .1-45-.1-4.6-.1-6.4 1.5-5.8 6.1 2.7 20.4 5.4 40.9 7.9 61.3.5 4.1 2.6 5 6.4 5 27-.1 54-.2 81 0 4.5 0 6.1-1.2 6.1-5.9-.2-20.2-.2-40.3 0-60.5 0-4.6-1.5-6.1-6.1-6.1-14.9.4-29.7.2-44.5.2zm-36.5 89c.1 1.2 0 2 .3 2.8 9 28.2 21.6 54.4 42.2 76.1 10.5 11 22.6 19.5 37.6 23.5 6.2 1.6 6.8 1.2 6.8-4.9 0-30.6-.1-61.2.1-91.9 0-4.5-1.3-6-6-6-25.3.2-50.6.1-75.9.1-1.6.1-3.2.2-5.1.3zm190.4.2c-1.9-.2-2.7-.4-3.5-.4-26.5 0-53 .1-79.5-.1-4.7 0-4.5 2.7-4.5 5.8v92c0 6.1.6 6.5 6.8 4.9 15.7-4.2 28.2-13.3 39-25 16.6-17.9 27.7-39 36.3-61.6 1.9-5 3.5-10 5.4-15.6zm-1.2-196.3c-.1-1.3 0-2-.2-2.6-9-27.3-21.4-52.7-41.3-73.9-10.7-11.3-23.1-20-38.5-24-5.5-1.4-6.2-1-6.2 4.6 0 30.1.1 60.3-.1 90.4 0 4.6 1.6 5.9 6.1 5.8 25.1-.2 50.3-.1 75.4-.1 1.4.1 2.9 0 4.8-.2zm-189.1 0c2 .2 3 .3 4 .3 26 0 52-.1 77.9.1 4.8 0 5-2.4 5-5.9-.1-30 0-60 0-89.9 0-6.2-.6-6.5-6.8-4.9-15.9 4.2-28.5 13.5-39.4 25.3-17 18.4-28.2 40.2-36.9 63.5-1.3 3.6-2.4 7.2-3.8 11.5zm-21.9 17.2c-2.3-.1-3.8-.3-5.2-.3-19 0-38 .1-57-.1-3.8 0-5.6 1.4-7 4.8-8.5 20.5-13.2 41.8-15.2 63.8-.4 4.4 1.1 5.9 5.5 5.8 21.5-.2 43-.2 64.5 0 4 0 5.5-1.2 5.8-5.3 1.3-15.6 2.8-31.1 4.6-46.7.8-7.2 2.5-14.3 4-22zm234.1-.4c-.2 1.2-.4 1.6-.4 1.9 4.8 22.7 7.6 45.6 8.5 68.8.1 3.8 2.6 3.6 5.2 3.6 21.7 0 43.3-.1 65 .1 4.5 0 5.8-1.5 5.4-5.9-1.9-22-6.7-43.4-15.2-63.8-1.4-3.4-3.2-4.8-7-4.7-16 .2-32 .1-48 .1-4.5-.1-8.9-.1-13.5-.1zM138.4 337c-2.4-23.4-4.8-46-7-68.6-.3-3.5-2.6-3.3-5-3.3-21.8 0-43.6.1-65.5-.1-4.3 0-5.4 1.7-5.1 5.7 1.9 21.4 6.4 42.1 14.4 62 1.4 3.5 3.3 4.7 7 4.7 19-.2 38-.1 57-.1 1.7-.1 3.4-.2 4.2-.3zm236.1-.2c1 .2 1.8.4 2.6.4 20.3 0 40.6.1 61-.1 1.7 0 4.2-1.9 4.9-3.6 8.7-20.2 13.2-41.5 15-63.3.3-4.1-1.3-5.2-5.1-5.2-21.8.1-43.6.1-65.5 0-3.6 0-4.9 1.2-5.1 4.9-.5 10-1.2 19.9-2.4 29.9-1.4 12.1-3.4 24.2-5.4 37zm-293 16.9c10.1 33.4 83.9 93.7 115.1 93.2-1.2-1.8-3.2-2.7-4.8-4.1-1.7-1.4-3-3.1-4.4-4.8-19.8-23.2-32.5-50.2-41.2-79.1-1.2-4.1-3.1-5.5-7.3-5.4-11.1.3-22.3.1-33.5.1-7.8.1-15.6.1-23.9.1zm236.6 94.2c30.3-.2 109.6-65.5 114-94.1h-5.5c-16.8 0-33.6.2-50.4-.1-5.1-.1-7.1 1.5-8.6 6.4-10 32.3-24.6 62.2-48.7 86.6-.4.2-.5.7-.8 1.2zM82.9 157.8c1.1.1 2.2.4 3.4.4 17.3 0 34.7-.2 52 .2 5.4.1 7.4-1.7 9-6.6 10-31.5 24.4-60.5 47.9-84.3.4-.4.5-1 .8-1.7-35.6 5-105.6 62.1-113.1 92zm234.5-92c3.5 3.9 6.5 6.9 9.3 10.2 19.3 22.7 31.8 49.1 40.7 77.3 1.2 3.8 2.9 5.2 7 5.1 17.3-.2 34.6-.1 52-.1 1.6 0 3.2-.2 4.9-.3-8.6-30.9-78.7-87.9-113.9-92.2z"/><path class="st0" d="M256 53.7c111.7 0 202.3 90.6 202.3 202.3S367.7 458.3 256 458.3 53.7 367.7 53.7 256 144.3 53.7 256 53.7m0-15c-29.3 0-57.8 5.7-84.6 17.1-25.9 10.9-49.1 26.6-69.1 46.6-19.9 19.9-35.6 43.2-46.6 69.1-11.3 26.8-17.1 55.2-17.1 84.6s5.7 57.8 17.1 84.6c10.9 25.9 26.6 49.1 46.6 69.1 19.9 19.9 43.2 35.6 69.1 46.6 26.8 11.3 55.2 17.1 84.6 17.1s57.8-5.7 84.6-17.1c25.9-10.9 49.1-26.6 69.1-46.6 19.9-19.9 35.6-43.2 46.6-69.1 11.3-26.8 17.1-55.2 17.1-84.6s-5.7-57.8-17.1-84.6c-10.9-25.9-26.6-49.1-46.6-69.1-19.9-19.9-43.2-35.6-69.1-46.6-26.8-11.3-55.3-17.1-84.6-17.1z"/></svg>