<svg id="Зима" xmlns="http://www.w3.org/2000/svg" viewBox="0 0 512 512"><circle cx="256" cy="256" r="218" fill="#fff"/><path d="M402.1 323.8v17c-4.9 2.1-9.8 4-14.7 6.2-2.2 1-3.9 1-6-.3-10.5-6-21.1-11.7-31.6-17.6-1-.6-2-1-3.4-1.7-.1 1.5-.2 2.6-.2 3.6 0 7.2 0 14.3-.1 21.5 0 1.1-.3 2.5-1 3.2-7.5 7.2-8.3 7.3-16.9 1.4-.4-.2-.9-.4-1-.8-.7-1.3-2-2.6-2-3.9-.2-10.1-.6-20.3.1-30.3.5-7.1-1.6-11-8.3-13.7-6.7-2.7-12.8-6.7-19.7-10.4v28.4c-9.5-5.3-18.4-10.3-27.8-15.5 0 9.6-.1 18.6.1 27.6 0 .9 1.2 2.2 2.2 2.8 8.7 5.1 17.3 10.5 26.3 15 5.4 2.7 6.8 6.1 7 12 .2 6.9-1.6 11-8.3 13.4-2.7 1-4.6 1.3-7.1-.3-6.5-4.1-13.1-8-20.2-12.2v4.1c0 12.4-.1 24.8.1 37.2 0 2.1-.7 3.4-2.4 4.5-3.6 2.5-7.1 5.2-10.7 7.8h-1.3c-3.5-2.6-7-5.3-10.7-7.8-1.7-1.2-2.4-2.4-2.4-4.5.1-12.1.1-24.1.1-36.2v-4.9c-1.4.8-2.3 1.2-3.2 1.8-6.1 3.7-12.2 7.5-18.5 11-1 .6-2.8.4-4 0-7.8-3.1-11.5-8.5-9.6-17.1.1-.5.1-1.1 0-1.6-.3-2.2.5-3.5 2.5-4.6 10-5.6 19.9-11.5 30-17.1 2-1.1 2.9-2.4 2.9-4.8-.2-7.7-.1-15.4-.1-23.1 0-.8-.2-1.6-.3-2.7-9.2 5.6-18.1 11-27.6 16.8v-30.5c-8.8 4.5-16.9 8.7-25.2 12.8-1.9 1-2.6 2.1-2.6 4.2.1 12.2.1 24.3 0 36.5 0 1.2-.3 2.8-1.1 3.4-3.3 2.6-6.8 4.9-10.2 7.3-9.7-6-9.7-6-9.7-16.7v-18.4c-1.6.9-2.6 1.4-3.6 1.9-10.9 6.1-21.7 12.3-32.7 18.3-1.4.7-3.5.8-5 .3-4.9-1.7-9.7-3.8-14.5-5.7v-17.6c13-7.4 26.1-14.7 39.6-22.3-8.4-4-16-7.6-23.7-11.2-1.6-.7-2.3-1.6-2.2-3.4.2-4.6-1.4-10 .6-13.4 1.9-3.3 7.3-4.7 11.1-6.9.1-.1.2-.1.3-.1 2-1.6 3.7-1.4 5.9 0 8.3 5.1 17.1 9.5 25.1 15.2 6.3 4.5 11.3 4.7 17.4-.1 4.8-3.7 10.4-6.4 16-9.7-8.9-5.2-17.2-10-26-15.1 8.6-5.3 16.6-10.3 25-15.6-7.9-4.5-15.3-8.6-22.5-12.9-1.8-1.1-3.2-1.1-5 0-8.1 4.9-16.6 9.1-24.3 14.5-6.5 4.6-12 5-18.8.8-3.3-2.1-5.3-3.7-4.8-7.8.4-3.3-1-7.4.5-9.9 1.6-2.6 5.6-3.8 8.6-5.5 5.2-3 10.4-5.9 16.1-9.1-13.3-7.2-26.1-14.1-38.9-21.1v-17.6c4.6-2.1 9.3-4.1 13.9-6.3 1.9-.9 3.3-.8 5.1.2 11.1 6.2 22.2 12.3 33.3 18.4 1 .5 2 1 3.5 1.7v-3.8c0-7.1-.1-14.1.1-21.2 0-1.5 1-3.3 2.1-4.3 2.4-2.3 5.1-5.6 7.9-5.8 2.8-.2 5.8 2.9 8.7 4.5.9.5 1.6 1.1 2.5 1.5 2 .8 2.5 2.2 2.4 4.4-.3 12.3-.4 24.6-.7 36.8-.1 2.2.5 3.5 2.5 4.6 5.8 3.2 11.5 6.6 17.2 9.9 1.8 1.1 3.7 2.1 6 3.5v-30.5c9.5 5.1 18.4 9.8 27.8 14.8 0-9.2-.1-17.8.1-26.3 0-2.1-.7-3.3-2.5-4.3-10.2-5.8-20.3-11.7-30.5-17.5-1.7-1-2.6-2.1-2.3-4.1.2-1.1.2-2.2 0-3.3-1.5-7.3 1.5-11.9 8.2-15.1 2.7-1.3 4.4-1.7 6.9 0 6.5 4.1 13.1 8 20.2 12.2v-4.1c0-12.4.1-24.8-.1-37.2 0-2.1.7-3.4 2.4-4.5 3.6-2.5 7.1-5.2 10.7-7.8h1.3c3.5 2.6 7 5.4 10.7 7.8 1.7 1.2 2.4 2.4 2.4 4.5-.1 9.8-.1 19.6-.1 29.3v11.7c1.3-.6 2.3-1 3.2-1.5 6.3-3.3 12.6-6.3 18.7-9.9 3.7-2.2 6.7-2.4 10.3.1 3 2.1 7.6 3 9.2 5.7 1.6 2.9.4 7.4.7 11.2.2 2.2-.8 3.3-2.7 4.2-12.2 6-24.3 12.2-36.5 18.1-2.4 1.1-3 2.5-3 5 .2 7.4.1 14.8.1 22.2 0 1 .1 2 .2 3.4 9.3-5.2 18.1-10.1 27.6-15.4v31.2c8.8-4.5 16.9-8.7 25.2-12.8 1.9-1 2.6-2 2.6-4.2-.1-13.3 0-26.5-.1-39.8 0-2.1.9-3.1 2.4-4.4 5.3-4.6 10.4-4.8 15.7-.2l.6.3c1.9.7 2.5 2 2.4 4-.1 7.6-.1 15.2 0 22.8 0 1 .1 2.1.2 3.5 1.5-.7 2.5-1.2 3.6-1.7 11.5-6.1 23-12.2 34.5-18.4 1.9-1 3.2-1.1 5 .1 4.1 2.6 8.4 4.9 12.6 7.4v16.3c-12.6 7.2-25.2 14.3-38.2 21.7 7.3 4.1 14.1 8 21 11.6 2.7 1.4 3.8 3 3.5 6-.3 3.8 1.1 8.4-.6 11.2-1.8 2.9-6.5 3.9-9.8 5.9-1.8 1.1-3.2 1-5-.1-10.3-6.1-20.7-11.9-30.9-18.1-2.9-1.8-4.9-1.8-7.7.1-6.8 4.8-13.9 9.2-21.3 13.9 8.3 5.3 16.1 10.4 24.4 15.6-8.8 5.1-17 9.9-25.7 14.9 8.3 4.3 16.1 8.2 23.9 12.3 1.9 1 3.3.9 5.1-.1 10.5-5.9 21.2-11.5 31.7-17.4 2.3-1.3 4-1.4 6.1.2 3.1 2.3 7.7 3.6 9.4 6.7 1.7 3 .4 7.6.6 11.5.1 2.2-.6 3.5-2.6 4.6-6.8 3.6-13.4 7.4-20.6 11.4 12.6 7.7 24.8 15.1 36.9 22.4zM257.5 277c3.2 0 6.3-.1 9.5 0 1.8.1 3-.4 3.8-2.2 2.7-5.4 5.8-10.7 8.5-16.2.6-1.1.5-3 0-4.1-2.9-5.9-6.1-11.8-9.3-17.5-.5-1-2.1-1.9-3.2-1.9-6.7-.2-13.5-.2-20.2 0-1.1 0-2.6 1-3.2 2-3.5 5.8-6.8 11.6-9.9 17.6-.6 1-.5 3 .1 4 3.3 5.5 6.7 10.9 10.3 16.2.7 1 2.3 1.9 3.5 2 3.4.3 6.8.1 10.1.1z" fill="#2d6cfc"/></svg>