<svg id="Autumn" xmlns="http://www.w3.org/2000/svg" viewBox="0 0 512 512"><circle cx="256" cy="256" r="218" fill="#fff"/><path d="M407.2 193.9c-11.7 7.1-24.1 12.6-37.9 14-7.7.8-15.4.3-22.5-3-3.8-1.8-6.5-1.1-9.3 1.5-7.6 7-15.9 13-25.4 17-3.6 1.5-7.6 2.3-11.5 3-3.9.6-5-.3-4.8-4.3.3-5 .7-10.1 1.7-15.1 3.3-15.5 8.8-30.4 14.8-45 2.7-6.5 1.2-9.1-5.7-10.2-25.3-4-43.3-22.1-48.9-49.1-.5-2.4-1-4.9-1.1-7.3-.2-3-1.5-5.3-4.2-6.3h-2.6c-3.7 1-3.9 4.7-4.4 7.9-2.2 16.4-8.8 30.6-21.1 41.8-8.2 7.5-18.1 11.5-29 13.1-6.4.9-8.1 3.8-5.6 9.9 6.6 15.7 12.4 31.7 15.6 48.5.7 3.9 1 7.9 1.1 11.9.1 4-.9 4.8-4.8 4.5-8-.7-15-4.1-21.4-8.4-5.4-3.6-10.5-7.6-15.4-11.7-3-2.5-5.6-3.1-9.4-1.5-11.9 5-24.2 4.3-36 .1-8.4-2.9-16.4-7.2-24.4-11.1-4.9-2.4-6.9-2.3-9.9 2v3.2c10 18.9 16.7 38.3 18.2 59.6.2 3.4-.2 6.9-.5 10.3-.6 5.3.1 6.5 4.8 8.9 7.4 3.7 14.9 7.3 22 11.5 4.2 2.5 8 5.8 11.5 9.3 3.1 3.1 2.8 4-.7 6.5-11.2 8-22.3 15.9-33.5 23.9-.9.6-2.1 1.1-2.5 2-.8 1.9-2 4.2-1.4 5.8.6 1.5 3 2.8 4.8 3.4 1.8.5 3.8 0 5.8-.2 19.4-1.4 38.9-2.5 58.2-.1 13.5 1.7 12 .6 7.8 12.2-5.6 15.7-12.1 31.1-18.3 46.6-.2.6-.5 1.2-.8 1.8-1.1 2.4-1.4 4.8.7 6.9 2.2 2.2 4.6 1.7 7.2.8 6.9-2.5 13.7-5.3 20.7-7.3 12.2-3.5 24.7-5.1 37.4-3.4 3.1.4 5.2-.8 6.8-3.3 3.3-4.9 6.3-9.9 9.6-14.8.6-.8 2.1-1.6 2.1-2.3v7.3c0 9.7.4 19.6.3 29.3 0 3.3 1.4 5.1 4.4 7.1h2.6c3-2 4.4-3.9 4.4-7.2-.1-11.1.3-22.4.3-33.5v-3.1c0-.1.1-.2.4-.2 1.4 2.1 2.6 4.2 4 6.3 2.5 3.8 5 7.5 7.5 11.3 1.6 2.4 3.7 3.4 6.6 3.1 19.7-2.3 38.1 2.3 56.1 9.7 3.1 1.3 6.2 3.2 9.2.2 2.9-3 .9-6-.2-9-6.6-17-13.3-33.9-19.7-50.9-2.1-5.5-1.8-6.1 4-6.7 11.7-1.1 23.4-1.9 35.1-2 10.7-.1 21.3 1 32 1.4 1.7.1 3.6 0 5-.7 3.6-1.9 3.5-6.6-.3-9.3-7.9-5.8-16-11.4-24-17.1-4-2.9-8-5.9-12.1-8.6-1.9-1.3-2.2-2.7-.8-4.2 2.6-2.7 5-5.9 8.1-7.7 8.8-5.2 17.9-10 26.9-14.8 2.8-1.5 5.3-3.2 4.7-6.8-1.9-11-.2-21.7 2.6-32.3 3.5-13.7 8.7-26.9 15-39.5v-3.2c-3.3-4.7-5.3-5.2-9.9-2.4z" fill="#ff8416"/><path d="M407.2 193.9c-11.7 7.1-24.1 12.6-37.9 14-7.7.8-15.4.3-22.5-3-3.8-1.8-6.5-1.1-9.3 1.5-7.6 7-15.9 13-25.4 17-3.6 1.5-7.6 2.3-11.5 3-3.9.6-5-.3-4.8-4.3.3-5 .7-10.1 1.7-15.1 3.3-15.5 8.8-30.4 14.8-45 2.7-6.5 1.2-9.1-5.7-10.2-25.3-4-43.3-22.1-48.9-49.1-.5-2.4-1-4.9-1.1-7.3-.2-3-1.5-5.3-4.2-6.3h-2.6c-3.7 1-3.9 4.7-4.4 7.9-2.2 16.4-8.8 30.6-21.1 41.8-8.2 7.5-18.1 11.5-29 13.1-6.4.9-8.1 3.8-5.6 9.9 6.6 15.7 12.4 31.7 15.6 48.5.7 3.9 1 7.9 1.1 11.9.1 4-.9 4.8-4.8 4.5-8-.7-15-4.1-21.4-8.4-5.4-3.6-10.5-7.6-15.4-11.7-3-2.5-5.6-3.1-9.4-1.5-11.9 5-24.2 4.3-36 .1-8.4-2.9-16.4-7.2-24.4-11.1-4.9-2.4-6.9-2.3-9.9 2v3.2c10 18.9 16.7 38.3 18.2 59.6.2 3.4-.2 6.9-.5 10.3-.6 5.3.1 6.5 4.8 8.9 7.4 3.7 14.9 7.3 22 11.5 4.2 2.5 8 5.8 11.5 9.3 3.1 3.1 2.8 4-.7 6.5-11.2 8-22.3 15.9-33.5 23.9-.9.6-2.1 1.1-2.5 2-.8 1.9-2 4.2-1.4 5.8.6 1.5 3 2.8 4.8 3.4 1.8.5 3.8 0 5.8-.2 19.4-1.4 38.9-2.5 58.2-.1 13.5 1.7 12 .6 7.8 12.2-5.6 15.7-12.1 31.1-18.3 46.6-.2.6-.5 1.2-.8 1.8-1.1 2.4-1.4 4.8.7 6.9 2.2 2.2 4.6 1.7 7.2.8 6.9-2.5 13.7-5.3 20.7-7.3 12.2-3.5 24.7-5.1 37.4-3.4 3.1.4 5.2-.8 6.8-3.3 3.3-4.9 6.3-9.9 9.6-14.8.6-.8 2.1-1.6 2.1-2.3v7.3c0 9.7.4 19.6.3 29.3 0 3.3 1.4 5.1 4.4 7.1h2.6c3-2 4.4-3.9 4.4-7.2-.1-11.1.3-22.4.3-33.5v-3.1c0-.1.1-.2.4-.2 1.4 2.1 2.6 4.2 4 6.3 2.5 3.8 5 7.5 7.5 11.3 1.6 2.4 3.7 3.4 6.6 3.1 19.7-2.3 38.1 2.3 56.1 9.7 3.1 1.3 6.2 3.2 9.2.2 2.9-3 .9-6-.2-9-6.6-17-13.3-33.9-19.7-50.9-2.1-5.5-1.8-6.1 4-6.7 11.7-1.1 23.4-1.9 35.1-2 10.7-.1 21.3 1 32 1.4 1.7.1 3.6 0 5-.7 3.6-1.9 3.5-6.6-.3-9.3-7.9-5.8-16-11.4-24-17.1-4-2.9-8-5.9-12.1-8.6-1.9-1.3-2.2-2.7-.8-4.2 2.6-2.7 5-5.9 8.1-7.7 8.8-5.2 17.9-10 26.9-14.8 2.8-1.5 5.3-3.2 4.7-6.8-1.9-11-.2-21.7 2.6-32.3 3.5-13.7 8.7-26.9 15-39.5v-3.2c-3.3-4.7-5.3-5.2-9.9-2.4zM259.6 321.6c-.8.7-1.7 1.3-3 2.1-.1-1.1-.3-1.9-.3-2.7 0-37.7 0-75.4.1-113 0-1.4.8-3.2 1.7-4.2 5.8-6 11.7-11.8 17.6-17.7.7-.7 1.4-1.4 2-2.1 2-2.4 2-5.3.1-7.3-2-2.1-5.2-2.3-7.5-.1-3.7 3.4-7.3 7.1-10.8 10.7-.8.8-.8 2.1-1.4 3.1-.5-.3-1-.7-1-1v-17.6c0-2.5-.3-5-.4-7.4-.1-4-2.2-6.4-5.4-6.5-3.2 0-5.7 2.4-5.8 6.4-.1 7.4-.4 14.9-.4 22.3v3.8c-2-3.8-6.6-6.9-9.8-10.1-1.4-1.4-2.5-2.8-4.1-4-2.3-1.8-5.1-1.5-7 .4-1.9 1.9-2 4.8-.2 7.1 1.1 1.4 2.4 2.5 3.6 3.8 5.4 5.4 10.9 10.8 16.2 16.3.9 1 1.8 2.5 1.8 3.8.1 38.1.1 76.2.1 114.3 0 .4-.1.8-.2 1.8-1.2-.8-2.1-1.4-3-2.1-29.5-22.9-59-45.9-88.4-68.8-1.1-.9-2.2-1.8-3.4-2.5-2.5-1.5-5.3-.9-7 1.2-1.6 2.1-1.4 5 .5 7.1.7.8 1.6 1.4 2.5 2.1 32.2 25 64.4 50.1 96.6 75.1 1.7 1.3 2.2 2.7 2.5 4.8 1.3 10.9-1.5 20.2-8.6 28.7-3.9 4.7-6.8 10.2-10.3 15.3-.7.9-2.2 1.9-3.3 1.8-15.6-1-30.7 1.7-45.5 6.5-.8.3-1.6.4-2.8.7 3.4-8.7 6.8-16.9 9.8-25.3 2.8-7.9 5.5-15.9 7.7-24 1.5-5.5-.6-9.8-6-11.6-5.9-1.9-12.1-3.6-18.2-3.9-13-.6-26.1-.3-39.1-.4h-3.1c2.4-1.8 4-3 5.7-4.2 5.4-3.9 10.9-7.8 16.3-11.7 5.6-4 7-9.2 4.1-15.5-2.7-5.9-7.3-10.2-12.6-13.5-7.8-4.8-15.9-9.1-23.9-13.5-1.4-.8-2.5-1.3-2.3-3.3 1.3-16.3-2.8-31.6-8-46.8-1-3.1-2.2-6.1-3.6-9.8 3 1.2 5.4 2.2 7.8 3.1 14.5 5.4 29.2 7.7 44.3 3.4 3.1-.9 5.2-.5 7.7 1.6 9.1 7.5 18.8 14.1 30.4 17.4 3.6 1 7.4 1.6 11.1 1.6 7.4.2 12.1-4.2 13.2-11.5 1.2-7.5.3-15-1.7-22.1-3.7-12.8-8.1-25.5-12.2-38.2-.4-1.2-.9-2.4-1.4-3.8 24.4-5.3 39.8-20.7 49.6-43.6 9.7 22.6 25.1 38.2 49.6 43.5-2 5.5-4 10.8-5.9 16.2-4.3 12.3-8.6 24.7-9.6 37.8-.3 4.1 0 8.4.9 12.5 1.3 5.9 5.8 9 11.8 9.2 8.8.3 16.9-2.5 24.2-6.9 6.8-4.1 13.1-9 19.8-13.4 1.1-.7 2.8-1.2 3.9-.8 12.1 3.8 24.3 3.3 36.4.2 5.8-1.5 11.4-3.8 17.6-5.9-.5 1.4-.9 2.6-1.3 3.9-5.5 14.4-9.7 29-10.4 44.5-.1 1.2-.1 2.4-.1 3.6.3 6.4.3 6.4-5.6 9.3-10.1 5-20.1 10.1-28 18.3-3.5 3.6-6.2 7.8-6.2 13.1 0 3.7 1.4 6.6 4.5 8.8 6.6 4.6 13.2 9.4 19.8 14.1.8.6 1.6 1.3 3 2.3h-4.4c-15.6-.5-31.3-1.1-46.8 1.6-3.3.6-6.5 1.6-9.5 2.9-4.9 2.2-7.2 6.2-5.5 11.3 4.2 13.1 8.9 26.1 13.5 39.1 1.2 3.3 2.6 6.6 4.2 10.4-4.5-1.3-8.6-2.4-12.7-3.5-11.7-3.2-23.5-4.4-35.6-3.7-1.1.1-2.7-.8-3.3-1.7-6-8.8-11.9-17.8-17.7-26.7-.7-1-1.1-2.4-1.1-3.6-.1-4.7-.2-9.5.1-14.2.1-1.4 1.1-3.2 2.3-4.1 23.4-18.3 46.8-36.5 70.2-54.7 8.9-7 17.9-13.9 26.8-20.9 1.2-.9 2.8-2 3-3.2.3-1.9 0-4.3-1-5.9-1.2-2-3.7-2.2-5.8-1.1-1.5.8-2.9 1.9-4.2 2.9" fill="#4d1301"/></svg>