<svg id="Лето" xmlns="http://www.w3.org/2000/svg" viewBox="0 0 512 512"><circle cx="256" cy="256" r="218" fill="#fff"/><path d="M424.6 255.3v1.3c-11.9 10.7-23.8 21.5-35.7 32.2-1.9 1.7-1.7 3.5-1 5.7 4.4 13.8 8.7 27.6 13 41.5 1.3 4.1 1.2 4.4-3 5.3-14.2 3.1-28.3 6.2-42.5 9.1-2.7.6-4.1 1.8-4.7 4.6-3.1 14.3-6.3 28.5-9.6 42.7-.9 3.8-1.1 3.9-4.9 2.7-13.2-4.2-26.5-8.1-39.5-12.7-4.9-1.7-7.5-.3-10.6 3.2-8.8 10-18 19.8-27.1 29.6-3.1 3.4-3.3 3.4-6.4 0-9.7-10.5-19.3-21-28.9-31.5-2-2.3-3.9-2.8-6.9-1.8-13.9 4.6-27.8 8.9-41.7 13.4-2.8.9-3.9.4-4.5-2.5-3.1-14.4-6.5-28.7-9.6-43.1-.6-2.8-2-4-4.7-4.6-14.2-3-28.3-6-42.5-9.1-4.2-.9-4.3-1.1-3-5.3 4.3-13.8 8.6-27.7 13-41.5.9-2.7.4-4.6-1.8-6.3-2-1.6-3.8-3.4-5.6-5-9.8-8.8-19.5-17.6-29.3-26.4v-1.3c11.9-10.7 23.8-21.5 35.7-32.2 1.9-1.7 1.7-3.5 1-5.7-4.4-13.8-8.7-27.6-13-41.5-1.3-4.1-1.2-4.4 3-5.3 14.2-3.1 28.3-6.2 42.5-9.1 2.7-.6 4.1-1.8 4.7-4.6 3.1-14.3 6.3-28.5 9.6-42.7.9-3.8 1.1-3.9 4.9-2.7 13.2 4.2 26.5 8.1 39.5 12.7 4.9 1.7 7.5.3 10.6-3.2 8.8-10 18-19.8 27.1-29.6 3.1-3.4 3.3-3.4 6.4 0 9.7 10.5 19.3 21 28.9 31.5 2 2.3 3.9 2.8 6.9 1.8 13.9-4.6 27.8-8.9 41.7-13.4 2.7-.9 3.9-.4 4.6 2.5 3.1 14.4 6.5 28.7 9.6 43.1.6 2.8 1.9 4 4.7 4.6 14.2 3 28.3 6 42.5 9.1 4.2.9 4.3 1.1 3 5.3-4.3 13.8-8.6 27.7-13 41.5-.9 2.7-.4 4.6 1.8 6.3 2 1.6 3.8 3.4 5.6 5 9.7 8.8 19.4 17.6 29.2 26.4z" fill="#ffd300"/><path d="M256.1 161.3c54.5 1 96.5 43.2 96.3 96.8-.1 54.4-43.3 96.2-96.4 96.3-53.4 0-96.6-42.1-96.5-96.5.1-54.5 42.9-95.9 96.6-96.6z" fill="#ffdf00"/></svg>