<svg id="Spring" xmlns="http://www.w3.org/2000/svg" viewBox="0 0 512 512"><style>.st2{fill:#2e4e08}</style><circle cx="256" cy="256" r="218" fill="#fff"/><path d="M359.3 126.8c-15.2 22.6-25.6 49.8-23.7 76.2 1 13.9 2 27.7 1.1 41.6-1.2 17.9-4.7 35.2-11.8 51.7-7.3 16.9-18 31.2-32.6 42.5-11.1 8.5-23.5 14.7-36.6 19.6-18.1 6.7-36.7 10-56 7.7-15.1-1.8-27.4-8.4-35.7-21.4-4-6.3-9.4-14-13.1-20.4-1-1.7-4.3-18.7-4.5-21.3-.2-2.3-4-36.1 12.7-68.5 17.7-36.5 45.4-63.8 79.7-84.7 24.8-15.2 51.7-25.5 79.9-32.1 6.1-1.4 12.3-2.7 18.5-4 0 0 6.2-1.5 15.8 0 9.5 1.3 8.5 9.8 6.3 13.1z" fill="#87e710"/><path class="st2" d="M377.6 118.2c-3 2.8-6.1 5.5-9.1 8.4-15.5 14.8-24 33.1-26.2 54.4-1.4 13.4.1 26.8.8 40.1 1.7 31.1-2.1 61.2-17 89.1-9.9 18.6-24.2 33.2-42.5 43.6-14.9 8.5-30.6 14.9-47.5 18.1-16.8 3.2-33.5 3.7-49.9-2-4.7-1.6-9-4.3-13.4-6.7-1.3-.7-2.1-1-3.4-.2-20.1 13.1-42.4 19.6-66.1 21.7-.6.1-6.5.6-7.9-.2-1-.5-2.1-2.9-.6-6.1s4.3-3.7 7.4-3.9c21.1-1.9 41.1-7.4 59.4-18.5.6-.4 1.2-.8 2-1.3-2.2-3-4.6-5.7-6.4-8.8-3.4-6-6.6-12.2-9.7-18.5-1.7-3.4-.6-6.5 2.2-7.6 2.9-1.2 5.6.1 7.1 3.6 3.8 9.4 8.9 17.9 15.6 25.6 7.1 8.1 16.1 12.1 26.4 13.8 21.9 3.6 42.6-.9 62.7-9.3 15.7-6.5 30-15.1 41.6-27.9 12.7-14.1 20.7-30.6 25.4-48.8 5.2-20.3 6.2-41 4.2-61.8-1.6-17.1-1.9-34.2 2.5-51 3.5-13.2 9.4-25 18-35.6.5-.6 1-1.1 1.4-1.7.1-.1.1-.3.2-1-1.1.3-2.1.5-2.9.9-7.9 3.9-15.9 7.8-23.8 11.7l-2.7 1.5c-2.7 1.4-5.7.7-6.9-1.4-1.5-2.5-.8-5.6 2-7.2 4.5-2.6 9.1-5 13.7-7.5.9-.5 1.7-1 2.5-1.5-.1-.3-.2-.5-.2-.8-2.9.5-5.9.8-8.8 1.4-26.5 5.1-51.8 13.5-75.7 26.2-34.5 18.2-63 42.9-83 76.7-12.6 21.4-19.5 44.4-18.2 69.4.1 2.8.5 5.6.8 8.3.3 3.6-1.3 6-4.3 6.4-3 .4-5.2-1.5-5.7-5.1-2.5-18.2-.6-36 4.9-53.5 7-22.2 19-41.5 34.1-59 19.2-22.3 42.3-39.7 68.4-53.1 27.4-14.1 56.5-23.3 87-28 8.4-1.3 16.8-1.7 25.3-2.6 1.2-.1 8.7-.8 12.7-.2 3.9.5 7.1 1.1 7.1 3.6s-2.3 5.3-3.5 6.3z"/><path class="st2" d="M265.7 184.5c.6-1 1.3-1.9 1.9-2.9 8.8-14 19.8-26.1 32.6-36.5 2.9-2.3 6-2.2 7.9.2 1.8 2.3 1.3 5.2-1.5 7.6-9.2 7.7-17.5 16.1-24.7 25.7-8.5 11.3-14.2 23.9-19.6 37.5 3.6-1.1 7.4-1.8 10.8-3.3 4.1-1.8 8-4.3 12-6.6 2.9-1.7 5.5-1.6 7.3.5 1.9 2.2 1.6 5.4-1 7.4-8.7 6.4-18.2 10.8-29.1 11.8-1.3.1-2.6.1-3.9.4-.8.2-1.7.8-2 1.4-7.1 16-14.2 31.9-21.3 47.9-.1.2-.1.5-.2 1.7 5.7-1.5 11.2-2.4 16.3-4.5 5.7-2.4 11-5.8 16.4-8.8.8-.4 1.5-1.1 2.3-1.6 2.7-1.6 5.3-1.2 7 1 1.7 2.2 1.3 5.5-1.2 7.2-4.8 3.2-9.5 6.5-14.7 9.1-9.2 4.6-19.1 7.2-29.5 7.4-1.8 0-2.3 1.1-3 2.3-6.7 12-13 24.3-20.2 36-4.2 6.8-9.7 12.9-14.9 19.1-3 3.6-8.2 2.6-8.8-1.6-.3-1.7.7-3.9 1.8-5.4 3.7-5 7.7-9.8 11.6-14.6 1.1-1.4 1.3-2.6.5-4.3-6.5-13.3-10.3-27.5-11.9-42.2-.3-3.1-.4-6.3-.5-9.5 0-3.1 2-5.4 4.8-5.5 2.9-.2 5.1 2 5.2 5.4.4 14.1 3.4 27.7 8.6 40.7.3.8.7 1.6 1.3 2.9.8-1.3 1.4-2.2 1.9-3.2 6.4-12.8 12.9-25.6 19.2-38.4.4-.8.3-2.2-.1-3-8.5-14.2-11.9-29.5-10.9-46 .2-3.5 2-5.5 5-5.5 3.1 0 5 2.2 5 5.8.1 4.2-.1 8.4.2 12.5.7 7.7 2.7 15.1 6.6 22.7.7-1.2 1.2-2 1.6-2.9 7.8-17.4 15.5-34.8 23.2-52.3.5-1.2.6-2.9.1-4.1-2.9-8.1-3.7-16.5-4-25-.1-3.4 2.1-5.5 5-5.6 2.9 0 4.7 2 5 5.5l1.2 13.2c.2.4.5.4.7.4zm-45.7 153c-3.6.1-5.9-1.8-6.2-4.4-.3-3 1.3-5.1 4.5-5.7 6.2-1.1 12.5-2.1 18.7-3.3 7.5-1.5 14.6-4.2 21.2-8.1.6-.3 1.1-.7 1.7-.9 2.9-1.4 5.6-.7 7 1.7 1.4 2.4.7 5.2-2.1 7-8.8 5.7-18.6 8.9-28.7 11-5.5 1.1-11.3 1.9-16.1 2.7z"/></svg>