<svg id="WhatsApp_1_" xmlns="http://www.w3.org/2000/svg" viewBox="0 0 512 512"><circle cx="256" cy="256" r="218" fill="#fff"/><linearGradient id="SVGID_1_" gradientUnits="userSpaceOnUse" x1="119.003" y1="255.997" x2="392.997" y2="255.997"><stop offset="0" stop-color="#50d661"/><stop offset="1" stop-color="#41c452"/></linearGradient><path d="M178.4 368.9c22.1 15.2 48.8 24.1 77.6 24.1 75.7 0 137-61.3 137-137s-61.3-137-137-137-137 61.3-137 137c0 30.5 10 58.6 26.8 81.4l-12.1 43.7 44.7-12.2zm149.9-50l-11 11c-2 2-7.7 3.2-7.9 3.2-34.7.3-68.1-13.3-92.7-37.9-24.6-24.6-38.3-58.2-37.9-93 0 0 1.3-5.6 3.2-7.5l11-11c4-4 11.7-5.9 17.1-4l2.3.8c5.4 1.8 11 7.8 12.5 13.2l5.5 20.3c1.5 5.5-.5 13.3-4.5 17.3l-7.3 7.3c7.2 26.6 28.1 47.5 54.7 54.7l7.3-7.3c4-4 11.9-6 17.3-4.5l20.3 5.5c5.5 1.5 11.4 7.1 13.2 12.5l.8 2.3c2 5.4.2 13.1-3.9 17.1z" fill="url(#SVGID_1_)"/></svg>