<svg id="Telegram" xmlns="http://www.w3.org/2000/svg" viewBox="0 0 512 512"><style>.st0{fill:#fff}</style><circle class="st0" cx="256" cy="256" r="218"/><path d="M345.6 162.5c4.8 0 8.7 4.5 7.5 9.5l-43.8 186.2c-.9 3.7-4.2 6-7.5 6-1.7 0-3.4-.6-4.9-1.8l-51.5-42.1-36.4 27.3c-.3.2-.7.5-1 .6-.1.1-.2.1-.3.2-.2.1-.5.2-.7.3-.1.1-.3.1-.4.1-.2.1-.4.1-.7.2-.1 0-.3.1-.4.1-.2 0-.4.1-.6.1h-1.4c-.2 0-.4 0-.6-.1-.1 0-.3 0-.4-.1-.2 0-.4-.1-.6-.1-.1 0-.3-.1-.4-.1-.2-.1-.4-.1-.6-.2-.1 0-.2-.1-.2-.1-2.3-1.1-4.2-3.1-4.8-6L181 274.8l-57.6-25.2c-6.5-2.8-6.1-12.2.7-14.4L343.3 163c.7-.4 1.5-.5 2.3-.5m0-15c-2.4 0-4.8.4-7.1 1.2l-219.2 72.2c-9 3-15.1 11-15.6 20.5-.4 9.5 4.9 18.1 13.6 21.9l50.6 22.1 13 60.3c1.5 7 6 12.8 12.4 16 .3.2.6.3.9.5.4.2.7.3 1 .4.4.2.8.3 1.2.5.4.1.8.2 1.1.4.5.2 1.1.3 1.7.4.4.1.8.1 1.2.2.6.1 1.1.1 1.7.2.4 0 .8.1 1.2.1h1.7c.2 0 .7 0 1.2-.1.8-.1 1.4-.2 1.8-.3.3 0 .7-.1 1.3-.3.7-.2 1.4-.4 1.7-.5.3-.1.7-.2 1.3-.4.7-.3 1.3-.6 1.7-.8.3-.1.7-.3 1.1-.6.9-.5 1.8-1.1 2.7-1.7l27-20.2 42.4 34.7c4 3.3 9.2 5.1 14.4 5.1 10.6 0 19.7-7.2 22.1-17.5l43.8-186.2c1.6-6.8 0-13.8-4.3-19.3-4.1-5.7-10.6-8.8-17.6-8.8z" fill="#3fa9f5"/><path class="st0" d="M181 274.8l-57.6-25.2c-6.5-2.8-6.1-12.2.7-14.4L343.3 163c5.7-1.9 11.3 3.2 9.9 9.1l-43.8 186.2c-1.3 5.6-8 7.8-12.4 4.2l-51.5-42.1-64.5-45.6z"/><path d="M300.4 203.1L181 274.8l14.6 67.8c1.3 6.1 8.5 8.8 13.5 5l36.4-27.3-30-24.5 88.7-87.8c2.5-2.6-.7-6.8-3.8-4.9z" fill="#e6f2f8"/><path d="M200.4 348.5c2.7 1.2 6 1.1 8.6-.9l36.4-27.3-15-12.3-15-12.3-15 52.8z" fill="#d5e8f3"/></svg>