<svg id="Инстаграм" xmlns="http://www.w3.org/2000/svg" viewBox="0 0 512 512"><style>.st1{fill:#d4417b}</style><circle cx="256" cy="256" r="218" fill="#fff"/><path class="st1" d="M315.4 123.5H196.6c-40.3 0-73.1 32.8-73.1 73.1v118.7c0 40.3 32.8 73.1 73.1 73.1h118.7c40.3 0 73.1-32.8 73.1-73.1V196.6c.1-40.3-32.7-73.1-73-73.1zM365 315.4c0 27.4-22.3 49.6-49.6 49.6H196.6c-27.4 0-49.6-22.3-49.6-49.6V196.6c0-27.4 22.3-49.6 49.6-49.6h118.7c27.4 0 49.6 22.3 49.6 49.6v118.8zm0 0"/><path class="st1" d="M256 187.7c-37.7 0-68.3 30.6-68.3 68.3 0 37.7 30.6 68.3 68.3 68.3 37.6 0 68.3-30.6 68.3-68.3 0-37.6-30.7-68.3-68.3-68.3zm0 113.1c-24.7 0-44.8-20.1-44.8-44.8 0-24.7 20.1-44.8 44.8-44.8s44.8 20.1 44.8 44.8c0 24.7-20.1 44.8-44.8 44.8zm71.1-133c-4.5 0-9 1.8-12.2 5-3.2 3.2-5.1 7.7-5.1 12.2 0 4.5 1.9 9 5.1 12.2 3.2 3.2 7.6 5 12.2 5 4.5 0 9-1.8 12.2-5 3.2-3.2 5.1-7.7 5.1-12.2 0-4.5-1.8-9-5.1-12.2-3.2-3.2-7.6-5-12.2-5zm0 0"/></svg>