<svg id="vk" xmlns="http://www.w3.org/2000/svg" viewBox="0 0 512 512"><circle cx="256" cy="256" r="218" fill="#fff"/><path d="M249.9 353.4h17.3s5.2-.6 7.9-3.5c2.5-2.7 2.4-7.6 2.4-7.6s-.3-23.3 10.5-26.7c10.6-3.4 24.3 22.5 38.8 32.4 11 7.5 19.3 5.9 19.3 5.9l38.7-.5s20.3-1.3 10.6-17.2c-.8-1.3-5.6-11.8-28.8-33.3-24.3-22.5-21-18.9 8.2-57.9 17.8-23.7 24.9-38.2 22.7-44.4-2.1-5.9-15.2-4.3-15.2-4.3l-43.6.3s-3.2-.4-5.6 1c-2.3 1.4-3.8 4.7-3.8 4.7s-6.9 18.4-16.1 34c-19.4 33-27.2 34.7-30.4 32.7-7.4-4.8-5.5-19.2-5.5-29.4 0-32 4.8-45.3-9.4-48.7-4.7-1.2-8.2-1.9-20.3-2-15.6-.2-28.7 0-36.2 3.7-5 2.4-8.8 7.8-6.5 8.1 2.9.4 9.4 1.8 12.9 6.5 4.5 6.1 4.3 19.7 4.3 19.7s2.6 37.6-6 42.3c-5.9 3.2-13.9-3.3-31.3-33.3-8.9-15.3-15.6-32.3-15.6-32.3s-1.3-3.2-3.6-4.8c-2.8-2.1-6.7-2.7-6.7-2.7l-41.4.3s-6.2.2-8.5 2.9c-2 2.4-.2 7.4-.2 7.4s32.4 75.9 69.2 114.1c33.6 34.9 71.9 32.6 71.9 32.6z" fill-rule="evenodd" clip-rule="evenodd" fill="#4267ec"/></svg>